<?xml version="1.0" encoding="UTF-8" standalone="no"?><!DOCTYPE svg PUBLIC "-//W3C//DTD SVG 1.1//EN" "http://www.w3.org/Graphics/SVG/1.1/DTD/svg11.dtd"><svg width="100%" height="100%" viewBox="0 0 390 369" version="1.1" xmlns="http://www.w3.org/2000/svg" xmlns:xlink="http://www.w3.org/1999/xlink" xml:space="preserve" xmlns:serif="http://www.serif.com/" style="fill-rule:evenodd;clip-rule:evenodd;stroke-linejoin:round;stroke-miterlimit:2;"><g><path d="M268.044,22.293c50.582,25.779 69.117,55.025 84.79,87.599c58.513,139.381 -75.173,283.415 -220.513,228.87c-34.645,-13.002 -60.01,-39.964 -64.297,-44.521c-1.509,-1.74 -3.019,-3.479 -4.528,-5.219c-8.951,-11.586 -17.825,-21.419 -29.173,-50.968c-5.368,-16.332 -14.696,-41.426 -8.448,-86.179c12.875,-92.23 118.869,-183.922 242.17,-129.582Z" style="fill:#242329;fill-opacity:1;"/><path d="M268.285,25.533c34.579,17.619 51.9,35.333 70.436,63.285c7.209,12.576 21.173,34.537 25.064,77.334c8.833,97.138 -81.615,200.449 -199.105,178.927c-21.413,-3.922 -35.979,-10.773 -37.681,-11.447c0.264,-0.146 -0.183,-1.412 1.625,-0.902c0.058,0.016 0.297,0.084 0.75,0.005c0.125,-0.022 0.044,-0.021 9.707,2.373c24.22,3.795 85.947,8.169 125.35,-6.073c11.116,-4.018 4.967,-10.422 0.057,-12.452c-0.716,-0.296 -7.924,-3.277 -9.115,-3.277c-0.472,-0 -0.642,0.875 -1.114,0.875l-0.646,-0.818c-7.277,-7.057 -6.962,-13.007 -11.919,-8.063c-1.172,1.169 -5.356,-0.657 -7.371,-0.96c-3.933,-0.591 -5.198,0.275 -4.892,-1.707c3.249,-21.053 5.339,-21.123 1.692,-42.74c-0.648,-3.842 19.411,-1.483 39.119,-25.625c20.567,-25.194 8.002,-46.573 5.959,-50.049c-1.179,-2.007 -0.451,-2.252 1.636,-3.195c3.114,-1.407 4.147,2.354 9.331,-1.794c2.915,-2.333 23.391,3.284 30.932,-8.017c0.223,-0.334 0.111,-0.365 2.615,-4.276c2.607,-4.071 -0.825,-4.265 -4.661,-8.991c-5.072,-6.248 -22.952,-1.72 -22.074,-5.24c1.265,-5.073 1.425,-9.182 -4.103,-12.092c1.987,-2.146 1.135,-2.461 0.229,-5.263c-0.276,-0.135 -2.295,-3.578 -2.822,1.447c-0.143,1.357 -0.821,1.401 -0.882,1.575c-0.063,0.18 0.114,0.148 0.504,2.332c-4.765,3.424 -1.235,9.142 -3.212,11.051c-3.575,3.452 -4.367,2.854 -6.064,7.539c-0.98,2.707 -6.139,0.582 -6.354,6.829c-0.105,3.063 -0.358,3.1 -3.041,4.725c-6.451,3.153 -6.477,3.405 -13.624,3.079c-5.458,-0.249 -6.157,1.436 -12.929,-2.191c-5.063,-3.36 -11.021,-5.669 -5.126,-6.631c12.517,-2.043 22.499,-18.969 11.219,-31.897c-0.818,-0.938 -1.693,-1.824 -2.512,-2.762c1.565,-1.838 1.948,-2.085 0.615,-4.054c-3.002,-3.463 -2.921,-5.005 -6.612,-3.578c-5.343,-12.165 -0.627,-17.683 3.84,-34.001c1.974,-23.207 -7.873,-21.966 -17.424,-32.438c0.383,-0.556 1.097,-2.283 1.775,-2.19c3.149,0.43 -2.62,-3.248 -2.925,-3.443c-2.161,-1.378 -2.315,-0.783 -4.676,0.228c-12.75,-7.751 -17.13,-10.021 -34.246,-7.187c-2.161,0.358 -31.075,-11.272 -59.861,21.202c-12.838,14.483 -10.694,30.118 -10.32,32.847c1.902,13.876 0.883,14.409 -8.303,24.996c-9.234,10.642 -16.11,33.193 11.098,43.105c0.886,0.323 0.603,0.548 1.085,1.737c0.084,6.225 -2.487,4.975 -10.736,12.178c-23.332,20.375 -0.141,29.441 2.124,30.327c0.479,0.187 0.445,0.168 6.011,2.269c2.42,1.152 2.24,1.32 3.275,3.749c5.403,6.199 3.793,16.856 3.105,21.713c-6.293,4.662 -4.177,6.274 -8.861,21.923c-3.479,11.625 2.19,14.24 3.287,14.747c10.578,4.881 28.489,5.405 28.825,7.865c1.445,10.567 1.217,10.533 3.83,20.952c0.419,1.67 -11.191,4.153 -12.422,2.831c-3.145,-3.376 -4.905,-2.098 -9.504,5.679c-1.062,1.198 -2.124,2.395 -3.187,3.593c-0.562,-0.264 -1.123,-0.527 -1.685,-0.791c-6.728,2.806 -6.988,2.137 -12.83,6.531c-1.496,1.141 -1.512,0.943 -2.862,2.259c-17.336,-11.493 -17.851,-10.903 -36.334,-29.629c-13.44,-15.547 -26.119,-30.587 -37.476,-66.166c-3.027,-10.786 -25.968,-81.43 29.377,-153.933c16.908,-20.786 27.547,-30.18 51.836,-44.222c30.509,-14.95 83.044,-36.196 153.2,-4.018Z" style="fill:#c9c5d7;"/><path d="M219.857,50.973c3.1,2.618 3.034,2.547 5.826,5.404c9.55,10.471 19.397,9.231 17.424,32.438c-4.467,16.318 -9.182,21.835 -3.84,34.001c2.66,4.091 2.834,3.855 5.997,7.632c0.818,0.938 1.693,1.824 2.512,2.762c11.281,12.928 1.298,29.854 -11.219,31.897c-5.894,0.962 0.063,3.271 5.126,6.631c6.772,3.626 7.47,1.941 12.929,2.191c7.147,0.326 7.172,0.074 13.624,-3.079c2.683,-1.625 2.936,-1.661 3.041,-4.725c0.215,-6.247 5.373,-4.122 6.354,-6.829c1.697,-4.685 2.489,-4.087 6.064,-7.539c1.977,-1.909 -1.553,-7.627 3.212,-11.051c1.474,-0.3 1.388,-0.311 2.971,-0.091c5.527,2.91 5.368,7.019 4.103,12.092c-0.878,3.52 17.001,-1.008 22.074,5.24c3.837,4.726 7.268,4.919 4.661,8.991c-2.504,3.911 -2.392,3.942 -2.615,4.276c-7.541,11.301 -28.017,5.684 -30.932,8.017c-5.183,4.148 -6.216,0.387 -9.331,1.794c-2.087,0.943 -2.815,1.188 -1.636,3.195c2.043,3.476 14.607,24.855 -5.959,50.049c-19.707,24.142 -39.767,21.782 -39.119,25.625c3.648,21.617 1.557,21.687 -1.692,42.74c-0.306,1.982 0.959,1.115 4.892,1.707c2.015,0.303 6.199,2.129 7.371,0.96c4.956,-4.943 4.642,1.006 11.919,8.063l0.646,0.818c7.654,17.369 -26.52,11.35 -26.584,11.341c-25.682,-3.8 -16.464,-15.517 -18.665,-16.346c-2.655,-1 -2.559,-1.041 -5.046,-2.368c-0.41,-0.504 -4.144,-5.085 -2.337,-7.778c3.843,-5.73 10.491,1.292 11.111,1.947c4.748,5.015 8.864,-40.622 3.671,-40.518c-14.685,0.293 -17.213,1.205 -41.145,-6.935c-5.677,-2.588 -5.628,-2.6 -6.131,-2.795c-1.902,-0.737 0.552,4.185 3.37,14.485c0.459,2.898 2.978,8.6 -1.93,12.595c-2.645,2.153 -9.551,3.444 -9.89,4.47c-0.591,1.789 3.733,18.723 4.012,19.541c0.18,0.529 0.584,0.533 5.948,-3.658c5.201,-1.481 14.075,5.72 -0.788,11.939c-1.237,0.518 0.24,3.733 0.34,5.236c0.604,9.093 -28.14,15.431 -42.269,10.417c-4.826,-3.148 -4.93,-4.381 -2.867,-10.253c1.062,-1.198 2.124,-2.395 3.187,-3.593c4.599,-7.777 6.359,-9.055 9.504,-5.679c1.231,1.322 12.841,-1.161 12.422,-2.831c-2.614,-10.419 -2.385,-10.385 -3.83,-20.952c-0.336,-2.46 -18.247,-2.985 -28.825,-7.865c-1.098,-0.506 -6.766,-3.122 -3.287,-14.747c4.684,-15.65 2.568,-17.262 8.861,-21.923c0.688,-4.857 2.299,-15.514 -3.105,-21.713c-1.035,-2.429 -0.855,-2.597 -3.275,-3.749c-5.566,-2.101 -5.533,-2.082 -6.011,-2.269c-2.265,-0.886 -25.456,-9.952 -2.124,-30.327c8.249,-7.204 10.82,-5.953 10.736,-12.178c-0.482,-1.189 -0.199,-1.414 -1.085,-1.737c-27.208,-9.912 -20.332,-32.463 -11.098,-43.105c9.186,-10.587 10.205,-11.12 8.303,-24.996c-0.374,-2.729 -2.518,-18.364 10.32,-32.847c28.785,-32.474 57.699,-20.845 59.861,-21.202c17.116,-2.834 21.496,-0.564 34.246,7.187Z" style="fill:#45352b;"/><path d="M205.984,77.211l0.679,-0.395c6.749,10.073 15.756,10.213 19.881,21.877c-2.101,-0.445 -3.143,-0.681 -2.719,1.416c0.198,0.978 0.889,0.594 0.846,1.547c-0.01,0.209 -0.157,0.103 -2.183,1.434c-1.52,-6.363 -0.216,-7.211 -5.229,-11.318c-3.764,-3.083 -3.888,-2.847 -7.104,-6.48c-0.337,-0.381 -5.152,-5.819 -5.25,3.579l-0.546,1.479c-4.448,3.003 -4.015,3.397 -8.34,6.654c1.731,1.286 1.816,0.79 3.897,1.342l1.601,0.268c-4.299,5.274 -9.354,1.308 -8.519,6.08c0.124,0.711 -1.29,1.788 -1.458,1.696c-0.366,-0.202 -0.218,-0.868 -0.546,-1.128c-0.663,-0.527 -0.718,-0.149 -3.954,0.804c-0.286,0.015 -0.38,-0.558 -0.666,-0.543c-2.003,0.103 -0.297,2.694 -0.169,2.887c1.382,2.101 1.302,2.261 1.654,2.172c0.824,-0.209 0.66,-0.935 1.668,-0.505c0.227,0.097 2.478,1.057 3.069,-0.332c0.181,-0.424 -0.482,-1.074 -0.135,-1.377c1.791,-1.566 5.409,0.62 5.811,0.863l1.063,1.597c0.048,1.547 1.042,1.845 -0.212,2.661c-0.028,0.018 -2.189,8.22 0.79,14.38c-0.603,1.059 -0.762,0.992 -0.565,2.16c-0.4,1.29 -2.023,2.307 0.453,3.34c2.419,1.009 2.8,1.222 4.644,-1.047c0.815,0.506 0.842,0.434 0.815,0.506c-0.17,0.459 -0.856,0.682 -0.887,1.171c-0.078,1.203 1.943,-0.117 2.083,-0.209c0.895,1.066 1.068,1.442 2.211,0.532c3.046,-2.426 3.119,-2.161 6.842,-3.03c0.306,3.266 0.137,3.171 -0.471,6.349c-0.577,15.23 -0.247,19.182 7.454,32.139l0.953,1.427c-0.149,0.411 -3.034,2.878 1.365,4.342c0.493,0.164 0.321,0.344 5.169,3.935c0.711,0.745 5.902,6.179 12.684,2.202c5.99,0.566 5.92,0.436 11.922,0.496c5.752,1.304 5.646,1.396 11.078,3.7c10.142,7.821 12.466,16.707 7.55,33.474c-4.767,-2.927 -2.896,1.287 -2.733,1.475c0.096,0.111 0.12,0.064 1.614,0.86c-1.051,1.835 -1.026,2.528 -3.057,1.82c-1.375,0.935 -2.393,1.418 -0.865,2.041c0.227,0.093 0.415,-0.451 0.642,-0.359c-0.274,0.993 0.085,1.037 -0.502,1.819c-0.704,0.938 -0.773,0.704 -1.791,1.153c-0.134,0.059 -2.339,1.032 -0.651,1.71c1.855,0.746 -2.917,5.518 -2.996,5.466c-0.339,-0.221 -0.34,-1.525 -2.921,0.055c-1.088,0.666 -6.987,2.415 -7.603,2.598c-0.473,0.101 -0.458,-0.042 -5.936,1.123c-10.528,1.718 -15.262,1.791 -39.717,-1.312c-2.182,-0.277 -1.798,-1.047 -3.874,-1.911l-0.201,-0.714c0.562,-0.926 0.601,-0.99 5.692,-12.286c-2.671,-1.272 -2.595,-1.907 -5.423,-1.228c-0.482,-0.683 -1.535,-2.174 -8.922,-5.437c-3.656,-1.616 -3.173,-3.866 -6.968,-2.622c-0.017,-0.073 0.77,-1.313 -1.225,-2.719c-4.052,-2.856 -3.525,-3.321 -3.89,-3.53c-2.098,-1.199 -0.848,-2.416 -1.254,-2.987c-0.244,-0.344 -1.021,0.397 -1.266,0.053c-0.823,-1.377 -0.65,-1.457 -1.989,-2.34l-0.803,-0.551c-1.274,-1.221 -12.197,-14.057 -13.815,-24.776c-0.657,-1.275 -0.372,-1.5 -1.223,-1.616c-0.713,-0.097 -0.465,-0.4 -1.018,-0.875c0.662,-2.229 0.158,-2.214 -1.384,-3.946c1.252,-0.973 2.504,-1.947 3.755,-2.92c1.835,1.159 2.065,1.595 3.697,0.188c0.894,-0.771 1.413,-6.278 4.669,-8.241c-0.376,-3.184 -1.801,-1.95 -4.616,-0.416c-0.579,-0.058 -0.497,0.38 -7.259,0.381c1.93,-3.696 2.703,-2.769 6.791,-3.605c7.33,2.41 2.276,-2.758 2.061,-2.948c-1.862,0.06 -1.724,0.365 -2.957,1.574c-2.792,-2.487 -4.29,-0.306 -8.837,-1.731c-1.932,-3.634 -0.261,-5.381 0.668,-6.749l0.722,-0.056c8.925,-1.673 4.445,-5.254 3.83,-5.34c-2.324,-0.326 -5.291,1.407 -5.005,-2.087c0.721,-8.805 5.753,-16.758 1.437,-19.46l0.302,-0.856c0.377,-0.137 2.593,0.965 1.396,-2.913c-0.019,-2.039 -0.198,-2.166 -0.348,-2.273c-1.044,-0.741 -0.036,-0.769 0.824,-1.659c1.995,1.82 1.917,1.944 1.653,4.684c-0.47,4.874 0.785,8.724 0.804,8.798c0.715,2.697 2.383,2.452 1.351,4.711c-0.428,0.937 1.069,1.055 1.197,1.065c6.359,0.503 6.218,1.029 10.656,3.802c0.316,0.092 0.384,0.604 0.701,0.696c1.161,0.336 0.479,-0.477 0.471,-1.628l-0.377,-0.251c-4.909,-6.387 -9.559,-1.417 -11.877,-8.261c-4.743,-14.005 11.205,-21.987 10.928,-17.22c-0.045,0.773 -5.898,3.584 -4.407,14.267c2.007,14.37 20.052,6.207 12.401,-12.61c-3.594,-8.839 -14.955,-4.54 -16.205,-4.067c-2.64,0.999 -5.695,-1.691 -3.777,-2.219c15.058,-4.148 15.254,-4.125 16.611,-3.97c2.349,0.269 1.262,-2.925 1.596,-3.301c0.21,-0.236 7.622,-8.07 5.755,-3.842c-2.051,4.645 -4.662,8.7 0.067,6.594c14.461,-6.44 16.203,-16.693 17.396,-20.809c0.259,-0.147 0.518,-0.295 0.777,-0.442Z" style="fill:#dec59e;"/><path d="M175.266,253.524c23.933,8.14 26.46,7.228 41.145,6.935c5.193,-0.104 1.077,45.533 -3.671,40.518c-0.62,-0.655 -7.268,-7.677 -11.111,-1.947c-1.806,2.693 1.927,7.274 2.337,7.778c2.487,1.327 2.391,1.368 5.046,2.368c2.201,0.829 -7.017,12.545 18.665,16.346c0.064,0.01 34.238,6.029 26.584,-11.341c0.472,0 0.642,-0.875 1.114,-0.875c1.19,0 8.399,2.981 9.115,3.277c4.91,2.03 11.059,8.435 -0.057,12.452c-39.403,14.242 -101.13,9.868 -125.35,6.073c-9.663,-2.394 -9.582,-2.395 -9.707,-2.373c-0.453,0.079 -0.692,0.011 -0.75,-0.005c-1.808,-0.511 -1.361,0.755 -1.625,0.902c-9.877,-4.808 -9.769,-4.826 -19.317,-10.132c1.35,-1.316 1.366,-1.119 2.862,-2.259c0.316,0.265 0.514,0.653 0.83,0.918c1.288,1.079 2.224,-0.025 2.664,1.624c0.606,2.269 0.967,2.09 3.336,2.455c0.727,0.129 1.454,0.257 2.181,0.386c0.077,0.147 2.848,5.446 1.836,0.962c-0.329,-1.457 0.661,-0.505 2.928,0.068c1.305,-0.967 3.304,-1.777 3.607,-1.9c14.129,5.014 42.873,-1.324 42.269,-10.417c-0.1,-1.503 -1.577,-4.718 -0.34,-5.236c14.863,-6.219 5.989,-13.42 0.788,-11.939c-1.723,-1.41 -2.779,-1.022 -2.283,-3.041c0.057,-0.231 0.696,-2.832 0.755,-2.875c0.27,-0.196 0.443,0.563 0.767,0.641c0.824,0.2 2.235,-1.352 2.387,-1.519c1.745,-1.918 -8.443,-0.389 -6.127,-3.735c1.366,-1.974 0.529,-3.419 2.974,-2.973c4.861,0.887 -0.371,-1.83 -0.511,-1.903c-1.304,-0.677 1.376,0.193 3.091,-2.683c0.405,-0.679 3.981,1.001 3.291,-0.604c-0.48,-1.117 -0.043,-1.036 0.104,-2.344c0.106,-0.941 0.942,-8.358 -0.719,-11.811c-0.624,-0.033 -1.247,-0.067 -1.871,-0.1c-2.818,-10.3 -5.272,-15.221 -3.37,-14.485c0.503,0.195 0.454,0.207 6.131,2.795Z" style="fill:#b7b4c7;"/><path d="M204.904,88.871c0.098,-9.398 4.913,-3.96 5.25,-3.579c3.216,3.632 3.34,3.397 7.104,6.48c5.014,4.107 3.709,4.954 5.229,11.318c-0.017,0.25 0.248,16.773 1.348,2.824c0.132,-1.67 0.618,0.054 1.889,1.081c-1.341,3.91 -14.332,34.402 -0.805,57.47c10.474,17.861 23.747,8.062 41.771,15.033c-0.1,0.454 -0.716,0.677 -0.815,1.131c-0.061,0.277 0.973,0.087 0.65,3.488c-0.103,1.087 0.458,0.697 0.428,0.76c-0.385,0.791 -0.879,0.167 -1.288,1.008c-5.432,-2.305 -5.326,-2.396 -11.078,-3.7c-6.001,-0.06 -5.931,0.071 -11.922,-0.496c-11.672,-2.372 -14.862,-6.359 -19.218,-10.479l-0.953,-1.427c-7.701,-12.957 -8.031,-16.909 -7.454,-32.139c0.608,-3.178 0.777,-3.083 0.471,-6.349c1.147,-0.533 1.295,-0.659 0.832,-1.833c-5.645,-0.193 -7.113,1.627 -9.885,4.33c-0.14,0.092 -2.161,1.411 -2.083,0.209c0.032,-0.489 0.717,-0.711 0.887,-1.171c0.027,-0.072 0,-0 -0.815,-0.506l-2.259,-1.503c-0.758,-0.983 -1.515,-1.966 -2.273,-2.949c-2.98,-6.16 -0.818,-14.361 -0.79,-14.38c1.253,-0.816 0.26,-1.115 0.212,-2.661c3.309,-5.155 2.856,-6.163 8.788,-7.431c1.899,-0.406 1.662,-0.784 2.259,-1.066c1.098,-0.522 0.954,-0.6 1.704,-1.513c-1.253,-0.851 -1.321,-0.317 -2.443,0.798c-0.353,0.005 -0.382,-0.769 -0.735,-0.764c-0.37,0.005 -0.429,0.684 -0.785,0.786c-0.734,0.211 -2.581,-1.021 -3.657,0.8c-1.324,2.242 -3.587,-1.623 -4.765,1.301c-1.076,2.671 -0.928,2.6 -1.432,5.492c-0.402,-0.243 -4.019,-2.428 -5.811,-0.863c-0.347,0.304 0.315,0.953 0.135,1.377c-0.591,1.388 -2.842,0.429 -3.069,0.332c-1.008,-0.43 -0.844,0.296 -1.668,0.505c-0.352,0.089 -0.272,-0.071 -1.654,-2.172c0.03,-0.197 0.202,-1.328 0.835,-2.344c3.236,-0.954 3.291,-1.331 3.954,-0.804c0.327,0.26 0.18,0.926 0.546,1.128c0.168,0.092 1.582,-0.985 1.458,-1.696c-0.835,-4.772 4.22,-0.806 8.519,-6.08c-0.031,-0.126 -2.397,-5.864 -1.601,-0.268c-2.081,-0.553 -2.166,-0.057 -3.897,-1.342c4.325,-3.257 3.892,-3.651 8.34,-6.654c0.629,-0.633 0.525,-0.606 0.546,-1.479Z" style="fill:#e5d9bf;"/><path d="M138.383,177.352c1.262,0.057 2.524,0.113 3.786,0.17c0.333,0.067 0.666,0.133 0.999,0.2l0.533,-0.276c1.709,8.245 2.507,7.877 5.753,15.761c5.731,13.918 12.18,19.353 14.204,21.99l0.223,0.413c0.246,0.263 0.493,0.526 0.739,0.789c-5.893,5.563 -7.586,5.472 -6.175,7.582c0.623,0.932 1.018,3.613 1.701,3.845c0.245,0.083 0.302,-0.634 0.548,-0.551c0.262,2.186 0.561,4.366 0.613,4.745c0.359,1.543 0.718,3.086 1.077,4.629c-0.007,0.022 -1.291,0.573 -0.593,1.947c0.023,0.046 0.044,0.087 0.457,0.46c2.801,2.531 8.91,5.008 9.733,5.342c11.708,4.778 11.641,4.813 12.686,5.14c2.074,2.519 4.278,1.26 13.002,3.453c14.953,3.758 35.287,-0.513 38.285,-1.143c2.314,-0.779 2.239,-0.706 4.486,-1.542c4.627,-2.173 4.729,-1.815 9.08,-4.504c0.967,-0.532 1.934,-1.064 2.902,-1.596c-1.336,-0.716 -1.192,-0.733 -2.22,-1.727c2.546,-0.883 4.321,0.371 3.628,-2.104c-0.06,-0.216 -0.11,-0.176 -1.479,-2.376c0.616,-0.183 6.515,-1.932 7.603,-2.598c2.581,-1.581 2.582,-0.276 2.921,-0.055c0.079,0.051 4.851,-4.72 2.996,-5.466c-1.688,-0.679 0.517,-1.651 0.651,-1.71c1.019,-0.449 1.088,-0.216 1.791,-1.153c0.587,-0.782 0.228,-0.826 0.502,-1.819c0.074,-0.561 0.148,-1.121 0.222,-1.682c2.031,0.708 2.006,0.014 3.057,-1.82c0.373,-0.778 0.746,-1.557 1.119,-2.335c4.916,-16.767 2.592,-25.653 -7.55,-33.474c0.409,-0.84 0.903,-0.217 1.288,-1.008c0.031,-0.063 -0.531,0.327 -0.428,-0.76c0.323,-3.401 -0.711,-3.211 -0.65,-3.488c0.1,-0.454 0.716,-0.677 0.815,-1.131c36.095,23.623 -9.852,104.75 -93.865,69.999c-6.775,-2.802 -5.371,-5.001 -12.08,-8.118c-1.254,-0.582 1.774,-1.842 -4.646,-16.646c-1.876,-4.327 -0.054,-6.398 -3.079,-9.487c-5.991,-6.116 -4.884,-7.755 -12.994,-10.493c-1.398,-0.472 -2.145,-2.463 -3.199,-3.324c-1.869,-1.527 -2.023,-1.1 -4.436,-1.408l-1.305,-2.448c0.545,-0.232 1.649,-0.704 7.261,1.442l0.76,0.134c3.357,0.818 3.373,-0.255 6.809,0.571c1.556,0.374 1.487,0.221 2.93,-0.244c-3.811,-1.085 -2.744,-3.801 -6.751,-3.527c-1.896,0.13 -1.805,0.076 -3.719,0.156l-0.727,-0.112c3.956,-4.548 -4.588,-0.395 -4.608,-2.874c-0.016,-2.045 -0.967,-1.405 -1.67,-2.13c-1.064,-1.097 0.943,-0.373 1.683,-1.637c2.401,-4.105 2.096,-4.782 -1.487,-7.8c1.351,-0.174 1.049,-0.777 2.307,-0.939c0.181,-0.023 0.167,0.025 2.261,0.332c-2.205,-1.37 -2.306,-1.172 -2.475,-1.319c-0.134,-0.116 -0.15,-0.299 1.792,-1.304c0.241,-0.053 0.181,-0.099 2.931,-0.969Z" style="fill:#d1b189;"/><path d="M322.213,190.488c8.872,-1.186 11.514,1.669 15.589,7.18l0.496,0.863c5.736,17.829 -10.221,21.296 -14.678,20.888c-0.683,-0.063 -5.963,-0.546 -7.295,4.512c-0.596,2.263 3.64,4.672 -3.192,7.457c-0.78,0.318 -0.686,3.163 -1.003,3.548c-3.237,3.942 -7.765,-0.662 -8.725,-0.477c-2.662,0.512 -2.547,1.029 -5.21,0.509c-4.826,-4.716 -1.985,-6.171 12.358,-23.403c3.541,-4.254 -4.758,-14.979 11.66,-21.077Z" style="fill:#372d28;"/><path d="M146.607,73.063c3.282,-1.101 6.036,-3.565 7.765,0.738c2.145,5.339 4.08,3.252 8.666,-0.113c0.318,0.57 0.637,1.139 0.955,1.709c-4.622,5.94 -8.872,7.079 -8.858,23.992c0.012,14.42 -2.585,13.835 -9.667,27.798c-0.07,-0.024 -1.031,-1.725 -2.245,0.265c-1.692,2.773 -1.619,2.813 -4.328,4.6c-0.683,0.266 -1.366,0.532 -2.049,0.798c-0.676,-0.277 -1.352,-0.554 -2.028,-0.831l-1.15,-0.92c3.087,-2.02 2.742,-6.333 0.952,-3.985c-0.154,0.202 -1.289,1.691 -1.839,2.579c-0.453,-0.178 -0.906,-0.355 -1.358,-0.533c0.311,-0.585 0.236,-0.598 3.746,-7.39c1.272,1.485 1.378,1.435 1.374,1.603c-0.006,0.312 -0.07,3.416 0.874,3.802c0.313,0.128 0.671,-0.378 0.985,-0.25c0.793,-0.63 0.679,-0.696 2.07,-2.78c1.322,4.409 2.673,-0.684 2.699,-0.725c-0.203,-0.173 -0.806,-2.262 -2.592,-0.808c-0.021,-4.515 0.413,-4.607 -0.522,-6.142c-0.118,-0.193 0.675,-5.372 0.747,-5.838c0.175,-1.144 5.111,1.288 3.999,-2.253c-1.52,-4.839 3.895,-10.409 -4.188,-10.122c-0.185,0.007 -1.979,0.022 -2.151,0.024c-0.367,0.005 -4,0.049 -4.59,-0.009c-3.86,-0.382 -3.529,1.225 -2.907,4.744c-1.513,0.16 -1.485,0.041 -1.513,0.16c-0.218,0.911 0.213,0.741 0.634,1.529c1.92,3.593 -3.609,14.477 -4.195,15.632c-1.769,2.07 -1.644,2.132 -2.756,2.939c-0.264,0.419 -0.528,0.837 -0.792,1.256c-0.666,0.615 -1.332,1.23 -1.998,1.845c-0.319,-0.601 -0.638,-1.202 -0.958,-1.803c8.025,-10.173 7.587,-10.75 7.598,-23.72c0.012,-14.968 1.002,-14.908 4.596,-21.748c0.515,0.738 0.665,0.552 1.024,1.469c1.839,4.696 3.689,1.617 10.938,2.464c3.999,3.975 2.248,7.902 7.356,6.282c1.136,-1.185 1.04,-1.118 2.001,-2.511c-0.841,-0.176 -0.702,-0.719 -1.775,-0.373c-0.988,0.319 -0.501,-0.383 -0.553,-2.749c0.331,-7.342 0.044,-7.513 0.73,-8.089c1.132,-0.95 0.483,-1.682 -0.879,-1.321c-2.054,0.544 -1.86,-0.293 -3.816,-1.215Z" style="fill:#8c643e;"/><path d="M196.85,235.064l0.648,-0.27c2.582,0.502 2.511,0.861 5.126,0.389l0.201,0.714c2.075,0.864 1.691,1.634 3.874,1.911c24.455,3.103 29.189,3.03 39.717,1.312c0.312,1.807 -0.284,2.215 1.437,3.056c-1.082,1.022 -1.244,1.075 -0.754,2.433c-3.208,0.739 -2.794,1.634 -5.937,2.593c-0.807,0.246 -0.383,1.102 -0.593,1.423c-0.197,0.301 -0.75,0.391 -0.777,0.75c-0.029,0.377 0.678,0.553 0.649,0.93c-2.247,0.836 -2.171,0.763 -4.486,1.542c-2.999,0.63 -23.332,4.901 -38.285,1.143c-8.725,-2.193 -10.928,-0.934 -13.002,-3.453c1.555,-1.567 1.512,-1.601 1.679,-1.692c1.161,-0.635 4.715,-2.579 10.503,-12.78Z" style="fill:#c8a170;"/><path d="M306.721,266.482c-1.068,-0.296 -16.868,-0.665 -17.636,0.104c-0.415,0.415 -0.181,5.504 -1.395,5.554c-16.167,0.672 -16.748,0.397 -16.83,-0.949c-0.024,-0.393 -0.29,-4.741 0.949,-4.83c11.692,-0.839 4.362,-6.148 3.783,-6.18c-7.342,-0.402 -11.233,2.512 -10.75,-4.839c0.157,-2.395 11.819,0.446 11.977,-2.25c0.419,-7.141 0.007,-7.672 0.99,-7.732c3.043,-0.186 4.045,-1.258 4.872,1.723c0.84,3.029 23.768,-0.369 23.958,2.226c0.242,3.303 -1.255,4.83 2.048,4.997c11.501,0.581 3.519,5.788 2.996,5.837c-4.117,0.386 -4.851,-0.301 -4.996,1.277c-0.097,1.061 0.02,4.657 0.033,5.062Z" style="fill:#c9c6d7;"/><path d="M299.641,159.161c-0.008,0.019 -1.409,0.098 1.528,9.203c1.4,4.341 16.883,-4.168 14.954,1.511c-0.25,0.737 -11.613,11.957 -31.514,3.819c-7.586,-3.102 0.668,3.208 0.632,3.665c-0.271,3.444 -8.186,1.754 -11.106,-7.485c-1.188,-3.761 0.443,-8.727 3.235,-6.24c2.805,2.498 0.451,-3.703 5.982,-8.541c4.539,-3.97 3.068,-4.755 3.726,-10.661c0.344,-3.082 6.565,-1.507 4.86,6.66c-1.999,9.578 6.246,3.798 17.447,5.961c0.242,0.047 12.495,2.413 1.551,2.664c-6.744,0.155 -8.456,1.704 -11.295,-0.556Z" style="fill:#d57197;"/><path d="M176.926,45.184c-4.644,1.842 -4.52,2.027 -9.358,3.063c-14.99,0.363 -34.696,15.508 -32.916,18.811c-0.42,0.179 -3.856,1.643 -3.422,4.568c0.225,1.518 1.208,1.487 1.321,1.627c-2.769,4.165 -2.639,4.1 -5.101,8.408c-0.927,-0.069 -0.854,-0.225 -1.791,-0.134c-3.81,0.368 -2.958,1.645 -4.697,5.022c-0.891,4.146 -1.136,4.027 -1.342,8.326c0.21,0.509 0.419,1.018 0.629,1.527c-0.116,0.986 0.451,4.693 0.708,5.266c2.656,5.93 -0.481,9.97 -1.363,11.958c-0.059,0.315 -0.174,0.923 -1.384,3.756c-0.579,0.73 -1.158,1.461 -1.737,2.191c-4.594,6.554 -9.612,7.138 -4.189,12.102c-0.451,1.043 -7.22,16.72 -1.265,14.15c0.978,-1.14 1.327,-0.772 1.881,-2.193c0.442,-1.135 0.335,-1.102 0.693,-2.277c3.101,3.083 1.601,3.824 -0.114,7.703c-0.332,0.286 -0.663,0.572 -0.995,0.859c-0.941,10.103 10.957,16.316 3.676,12.973c-9.152,-4.202 -13.338,-14.606 -13.976,-16.194c-2.3,-13.095 4.738,-19.176 12.086,-27.917c9.772,-11.625 2.136,-19.98 3.414,-29.117c2.112,-15.094 12.034,-25.082 12.067,-25.126c1.87,-1.814 13.164,-12.767 27.393,-17.607c10.022,-3.409 17.757,-2.605 19.783,-1.744Z" style="fill:#9d7757;"/><path d="M162.762,176.762c1.618,10.719 12.542,23.554 13.815,24.776c0.268,0.184 0.535,0.367 0.803,0.551c-1.359,2.289 -10.335,13.398 -11.259,14.543l-1.5,-0.233l-0.739,-0.789l-0.223,-0.413c-2.024,-2.638 -8.473,-8.073 -14.204,-21.99c-3.246,-7.884 -4.044,-7.516 -5.753,-15.761c3.724,0.051 3.628,0.233 7.399,-0.158c-1.526,4.82 2.998,1.352 7.191,4.128c0.14,0.093 2.546,1.686 1.818,-1.045c-0.652,-2.445 0.781,-1.847 2.653,-3.608Z" style="fill:#d6b586;"/><path d="M315.771,198.132c10.407,-12.65 27.771,-1.619 18.72,14.047c-4.881,5.554 -8.711,4.507 -12.374,4.415c-2.5,-0.063 -9.69,4.391 -7.861,9.023c1.623,4.111 -3.156,1.095 -4.563,3.673c-0.611,1.119 1.305,7.193 -4.591,2.685c-1.698,-1.298 -0.007,-1.702 11.117,-15.543c1.397,-1.738 0.019,-3.178 -1.585,-1.548c-14.827,15.059 -12.633,17.058 -14.336,17.707c-8.379,3.191 13.154,-20.5 14.084,-21.615c1.909,-2.288 -3.296,-3.431 1.39,-12.845Z" style="fill:#dcbf7a;"/><path d="M136.147,204.375l-1.041,0.437c-8.315,2.167 2.832,1.629 6.925,2.876c4.912,1.497 13.307,14.371 9.813,12.871c-4.961,-2.13 -3.993,-3.232 -6.014,-5.499c-0.852,-0.955 -1.032,0.256 -0.686,7.314c0.163,3.334 4.489,7.462 4.979,8.35c0.216,0.391 1.756,3.516 -5.06,2.355c-2.485,-0.423 -4.208,-4.585 -5.247,-5.302c-4.691,-3.242 1.129,5.666 0.919,5.922c-1.743,2.132 -2.01,0.033 -7.02,-4.233c-4.483,-3.817 0.556,3.977 0.256,4.231c-0.21,0.177 -0.614,-0.188 -0.824,-0.011l-2.075,-0.357c-1.736,-1.718 -3.716,-1.944 -5.291,-7.998c-1.095,-4.209 -0.551,-7.587 -0.446,-8.239c0.118,-0.382 3.234,-10.422 -0.298,-4.988c-0.198,0.305 -0.087,0.283 -2.121,4.014c-4.14,-7.528 8.724,-18.253 13.232,-11.743Z" style="fill:#d86e9c;"/><path d="M168.584,220.121c12.342,8.126 12.097,8.456 25.922,13.771c0.196,0.075 0.091,0.128 2.344,1.171c-5.788,10.201 -9.342,12.145 -10.503,12.78c-0.167,0.092 -0.124,0.125 -1.679,1.692c-1.045,-0.327 -0.978,-0.362 -12.686,-5.14c-0.823,-0.334 -6.932,-2.811 -9.733,-5.342c-0.412,-0.373 -0.433,-0.414 -0.457,-0.46c-0.698,-1.374 0.586,-1.925 0.593,-1.947c1.278,-1.745 0.53,-1.865 0.369,-4.17c0.054,-0.449 0.74,-0.652 0.794,-1.102c0.162,-1.349 -2.272,-4.076 -2.541,-4.378l0.325,-0.996c0.724,-0.185 1.098,-0.281 7.252,-5.881Z" style="fill:#cba372;"/><path d="M213.493,56.857c3.835,0.577 3.733,0.611 7.455,1.828c3.949,0.877 26.014,10.259 18.527,34.637c-4.862,15.831 -10.315,23.488 3.718,38.468c8.834,9.431 8.016,15.724 4.302,22.657l-0.871,-1.072c-0.226,-2.203 0.773,-2.137 0.14,-4.341c1.314,-1.54 1.472,-1.494 1.415,-1.659c-0.227,-0.659 -0.589,-0.558 -0.445,-2.98c-0.286,-0.444 -0.572,-0.888 -0.858,-1.333c-0.241,-0.587 0.757,-1.245 0.516,-1.833c-0.545,-1.331 -0.608,0.303 -1.876,0.935l-0.697,-0.816l0.193,-1.296c0.287,-0.475 1.321,-2.185 -3.033,-6.24c-0.714,-0.806 -1.428,-1.612 -2.143,-2.418c-2.469,0.894 -2.473,0.846 -2.667,0.965c-0.22,0.135 0.386,0.621 0.166,0.757c-2.685,4.192 1.916,8.708 -1.462,8.708c-0.223,0 -0.143,-0.143 -1.971,-1.971c-2.672,-9.721 -4.214,-9.084 -7.45,-18.692c-0.619,-9.616 -0.638,-10.059 5.493,-17.404c0.666,-0.798 4.325,-5.182 5.254,-11.887c0.626,-1.69 2.955,-4.05 0.003,-11.921c-0.593,-1.582 0.236,-3.003 -1.322,-2.259c-0.284,0.136 -0.209,0.19 -3.16,2.349c-0.429,-0.585 -2.263,-3.083 -5.878,-6.902c1.647,-2.698 5.56,-0.019 4.281,-2.963c-0.007,-0.016 -4.599,-7.677 -14.21,-10.948c-2.815,-0.958 -4.544,-0.352 -3.424,-2.371Z" style="fill:#987452;"/><path d="M159.136,170.325c1.542,1.732 2.046,1.717 1.384,3.946c-5.485,2.394 -7.302,2.437 -9.421,3.015c-3.77,0.391 -3.674,0.21 -7.399,0.158c-0.733,-1.512 -0.297,-1.575 -0.975,-3.069l-0.53,-0.996c-2.953,0.861 -7.422,-0.865 -11.9,1.136c-4.919,2.199 -6.415,2.536 -4.542,5.339c-10.751,8.053 -10.881,8.46 -15.062,14.841c-0.5,0.763 -7.54,-2.586 -3.616,1.23c1.528,1.485 1.703,1.199 8.784,4.737c5.778,2.04 8.719,2.738 7.32,4.28c-1.437,1.584 -1.385,1.529 -2.523,3.364c-1.989,3.62 -3.001,1.618 -6.908,0.242c-8.992,-3.167 -22.541,-9.219 -2.981,-27.263c16.053,-14.809 19.689,-10.154 24.607,-9.91c5.746,0.284 5.738,-0.742 11.298,0.533c4.729,1.084 11.513,-1.255 12.463,-1.582Z" style="fill:#d1b893;"/><path d="M179.369,204.428c0.244,0.344 1.021,-0.397 1.266,-0.053c0.405,0.571 -0.844,1.787 1.254,2.987c0.365,0.209 -0.163,0.673 3.89,3.53c1.995,1.406 1.207,2.646 1.225,2.719c3.795,-1.244 3.312,1.006 6.968,2.622c7.386,3.264 8.439,4.755 8.922,5.437c-0.107,0.365 -0.874,2.995 -1.147,4.617c-0.465,2.761 -1.644,2.143 -4.247,8.507l-0.648,0.27c-2.253,-1.043 -2.148,-1.096 -2.344,-1.171c-13.824,-5.315 -13.58,-5.646 -25.922,-13.771l-0.091,-0.762c10.327,-8.394 10.752,-13.459 10.876,-14.931Z" style="fill:#d6b687;"/><path d="M160.264,111.213c-0.86,0.89 -1.868,0.919 -0.824,1.659c0.15,0.106 0.33,0.234 0.348,2.273c-0.837,1.436 -0.757,1.347 -1.396,2.913l-0.302,0.856c4.317,2.702 -0.716,10.655 -1.437,19.46c-0.286,3.493 2.681,1.761 5.005,2.087c0.616,0.086 5.096,3.668 -3.83,5.34c-0.241,0.019 -0.481,0.037 -0.722,0.056c-0.928,1.368 -2.6,3.115 -0.668,6.749c4.547,1.425 6.045,-0.756 8.837,1.731c0.822,0.572 0.773,0.509 0.822,0.572c0.299,0.382 -0.203,0.449 0.074,0.803c-4.088,0.836 -4.86,-0.091 -6.791,3.605c-1.983,-0.46 -15.48,-3.59 -14.432,-20.954c0.763,-12.643 10.168,-15.205 12.735,-33.004c0.497,-3.446 2.461,-2.422 4.304,0.605c0.424,0.696 4.635,1.991 1.032,3.701c-1.556,0.739 -6.745,-4.596 -4.265,0.045c0.08,0.15 0.169,0.022 1.506,1.504Z" style="fill:#c6a377;"/><path d="M133.132,241.802c21.557,2.094 23.439,2.007 26.971,1.824c2.828,-0.147 4.217,2.656 2.973,2.519c-3.485,-0.383 -3.671,-0.27 -5.852,2.537c-1.804,-2.833 -4.038,-2.616 -3.722,0.668l-1.032,0.636c-1.221,0.681 -1.041,0.724 -2.289,1.435c0.091,0.561 0.182,1.122 0.274,1.683c2.716,-0.289 2.896,-1.593 5.07,-0.005c-3.433,8.519 -8.75,6.596 -8.757,6.573c-0.238,-0.816 0.432,-8.253 -7.63,-4.266c-4.028,1.992 -4.074,0.465 -7.705,-2.004c-5.633,-3.83 -5.192,4.623 -8.12,2.81c-8.04,-4.979 -2.043,-15.997 1.514,-15.524c1.951,0.26 1.855,0.353 3.773,0.601c0.362,0.047 0.336,0.038 4.53,0.513Z" style="fill:#a2c7cc;"/><path d="M115.83,268.893c-0.1,-1.095 -1.027,-11.192 2.276,-13.555c0.461,-0.33 0.407,0.149 5.9,3.919c0.131,0.09 -0.208,8.446 4.594,7.038c5.461,-1.601 5.781,-1.968 10.572,0.994c6.481,4.007 5.399,-3.48 8.249,-4.322c5.323,-1.575 4.91,-2.266 7.501,-4.394c1.664,-1.367 0.514,1.012 0.823,15.55c-1.502,0.427 -1.166,1.38 -4.595,1.307c-6.122,-0.129 -6.047,-0.279 -12.016,-1.373c-7.64,-0.484 -7.434,-1.643 -15.009,-1.712c-0.82,-0.007 -3.597,-3.904 -8.295,-3.452Z" style="fill:#a3c8cd;"/><path d="M211.769,104.923c3,1.593 3.128,2.957 6.061,1.094c3.101,-1.971 0.906,2.188 0.812,2.365c-0.93,1.761 0.673,2.301 0.714,2.302c2.805,0.116 2.119,1.149 2.013,1.309c-4.898,7.373 -3.131,19.695 -5.267,13.06c-0.174,-0.541 3.782,-14.287 -4.945,-16.894c-6.226,-1.86 6.705,6.923 0.247,18.375c-14.179,14.956 -14.953,-24.668 0.366,-21.61Z" style="fill:#1b1916;"/><path d="M226.022,262.522c4.373,-1.021 3.83,1.383 4.48,7.867c0.641,6.401 -0.355,29.578 -5.148,30.67c-0.231,0.053 -8.99,2.662 -8.061,-0.654c4.025,-14.36 4.228,-15.124 4.066,-27.759c2.779,-1.255 2.715,-1.213 5.442,-2.407c0.111,-0.143 1.532,-0.134 1.632,-2.114c0.107,-2.104 0.223,-2.073 0.186,-2.25c-0.082,-0.387 -0.757,-0.453 -0.839,-0.841c-0.786,-1.375 -0.631,-1.395 -1.759,-2.512Z" style="fill:#d6bd94;"/><path d="M145.468,127.188c-12.236,29.133 11.521,35.593 15.402,35.065c3.414,-0.465 2.047,1.314 1.923,1.463c-3.003,3.611 -4.251,3.844 -4.817,4.192c0.297,-2.364 -0.627,-3.21 -0.834,-3.399c-1.151,-0.336 -1.159,-0.523 -2.269,0.111c-0.283,0.147 -0.566,0.293 -0.849,0.44c-1.39,-0.482 -1.281,-0.437 -1.39,-0.482c-0.453,-0.187 -0.312,-0.27 -0.781,-0.464c-1.906,-0.839 -1.604,-1.621 -3.747,-1.584c-1.497,0.026 -1.31,-0.239 -2.58,-1.166c0.05,-0.405 0.101,-0.81 0.151,-1.216c-0.216,-0.597 -0.433,-1.194 -0.649,-1.791c0.093,-0.202 2.556,-5.53 -1.952,-1.973c-0.477,-1.82 -0.177,-3.352 -1.689,-2.121c-0.457,0.372 -0.462,0.245 -1.007,0.534c-0.068,-1.208 -0.388,-1.056 -0.497,-2.172c-0.105,-1.07 -0.497,-0.801 -1.027,-1.656c-3.223,5.006 -4.484,1.121 -7.35,-4.164c2.594,-6.068 -1.383,-8.908 3.312,-14.784c0.676,0.277 1.352,0.554 2.028,0.831c-0.685,4.447 0.029,7.112 0.241,8.511c0.438,2.88 -1.419,4.079 1.378,4.73c-0.142,-2.282 -0.213,-2.276 -0.154,-2.464c0.152,-0.487 1.205,-0.238 0.554,-2.035c-0.528,-1.456 -0.384,-6.608 -0.024,-6.968c1.072,-1.068 0.824,-1.2 0.054,-2.572c2.709,-1.787 2.636,-1.827 4.328,-4.6c1.214,-1.99 2.175,-0.289 2.245,-0.265Z" style="fill:#a07752;"/><path d="M223.721,120.992c2.894,2.628 1.377,3.412 2.98,6.959c5.052,11.181 9.511,16.416 1.273,27.968c-0.105,0.139 -1.308,1.737 -1.308,1.737c-0.065,0.154 0.077,0.133 1.045,1.801l-0.447,0.42c-0.222,0.341 -0.443,0.682 -0.665,1.023c-2.966,-4.678 -3.877,-11.275 -3.891,-11.333c1.627,0.214 2.257,1.675 3.15,0.486c3.981,-5.299 -3.194,-3.512 -3.579,-3.417c-1.319,-11.461 -0.844,-11.408 1.441,-25.645Z" style="fill:#744d2e;"/><path d="M139.121,69.367c0.799,1.479 0.912,1.356 1.357,3.043c1.647,3.312 2.628,1.786 6.129,0.653c1.956,0.922 1.762,1.76 3.816,1.215c1.362,-0.361 2.011,0.371 0.879,1.321c-0.686,0.576 -0.399,0.747 -0.73,8.089c0.052,2.367 -0.434,3.068 0.553,2.749c1.073,-0.346 0.935,0.196 1.775,0.373c-0.961,1.393 -0.865,1.326 -2.001,2.511c-5.108,1.62 -3.357,-2.307 -7.356,-6.282c-7.249,-0.848 -9.099,2.232 -10.938,-2.464c-0.359,-0.917 -0.51,-0.731 -1.024,-1.469c3.183,-5.331 2.841,-5.584 7.54,-9.739Z" style="fill:#af845e;"/><path d="M216.511,309.861c7.343,3.748 7.385,3.737 15.566,4.139c2.567,0.126 4.794,10.071 9.412,0.075c0.039,-0.085 0,-0 1.05,-0.515l0.836,-0.141c5.252,-1.172 6.045,-1.77 9.208,2.59c-0.242,0.457 -1.329,2.514 -4.825,4.303c-0.365,0.187 -0.424,-0.429 -5.125,0.194c-0.379,0.05 -1.815,-1.02 -3.758,-0.677c-3.1,0.548 -2.509,1.46 -3.75,2.182c-6.8,-0.736 -7.257,0.624 -12.878,-3.407c-3.559,-2.552 -3.332,-2.698 -6.583,-5.565c-3.342,-2.117 0.381,-2.833 0.846,-3.179Z" style="fill:#a6c7cd;"/><path d="M190.346,79.937c-2.328,8.151 -4.435,9.637 -14.302,15.986c-17.601,7.461 -18.701,4.195 -18.692,2.685c0.03,-5.176 0.216,-5.078 0.964,-9.013c1.109,1.623 1.074,1.561 2.641,2.72c2.008,-0.149 2.148,0.369 7.234,-2.263c0.17,1.982 0.238,1.978 0.183,2.141c-0.124,0.369 0.656,2.644 4.674,-1.357c7.216,1.279 15.415,-10.925 16.326,-12.282c0.324,0.461 0.647,0.923 0.971,1.384Z" style="fill:#835c39;"/><path d="M124.905,139.137c0.904,8.94 -3.304,17.451 12.123,29.168c-1.101,0.569 -3.997,2.064 -14.964,-4.005c-1.213,-0.671 -1.014,-0.851 -2.732,-3.164c0.391,-0.849 0.907,-0.212 1.275,-1.01c0.057,-0.124 -0.018,-0.125 -0.237,-1.688c-0.922,-0.931 -1.34,-0.795 -1.058,-2.062c0.944,-4.24 -3.252,-7.387 1.127,-14.444c2.884,0.997 2.598,-0.34 4.466,-2.794Z" style="fill:#7d5533;"/><path d="M177.859,139.433c1.712,4.849 13.59,4.797 22.004,5.745c1.416,0.16 0.586,7.536 -9.739,9.031c-13.08,-1.544 -10.648,-10.658 -14.976,-9.248c-2.985,0.973 1.461,-5.535 2.711,-5.527Z" style="fill:#3e2d26;"/><path d="M146.614,62.226c0.245,0.826 1.065,1.291 -0.952,2.403c-2.434,1.341 -2.237,1.425 -4.47,2.938l-2.071,1.8c-4.699,4.155 -4.357,4.408 -7.54,9.739c-3.594,6.84 -4.584,6.78 -4.596,21.748c-0.01,12.97 0.427,13.546 -7.598,23.72c-3.278,4.837 -3.363,4.657 -5.958,9.991c-1.932,5.516 -1.886,5.458 -2.411,11.259c-5.954,2.57 0.815,-13.107 1.265,-14.15c0.441,-0.737 3.973,-6.643 5.98,-8.91c14.437,-16.31 2.51,-20.365 9.187,-41.104c2.463,-4.307 2.332,-4.242 5.101,-8.408c4.073,-4.675 4.023,-4.586 8.958,-8.241c2.535,-1.626 2.424,-1.59 5.104,-2.785Z" style="fill:#553619;"/><path d="M134.614,313.923c1.19,0.356 1.09,0.335 2.271,0.68c2.7,0.788 2.045,8.083 8.287,3.062c0.338,0.044 -0.009,-0.421 0.341,-0.376c0.213,0.028 0.194,0.047 2.613,0.637c3.497,0.868 3.789,1.795 6.504,-0.475c1.524,-1.274 1.9,-0.58 3.246,-1.964c1.329,-1.365 2.908,0.388 3.842,0.724c-6.982,4.478 -7.033,4.317 -15.092,6.083c-2.052,0.45 -2.026,0.531 -3.046,2.475c-9.475,0.339 -11.114,1.594 -16.823,-3.176c-0.56,-2.049 -0.574,-1.999 0.025,-4.085c1.451,0.532 1.501,1.111 2.613,0.164c1.484,-1.265 1.471,-1.271 1.501,-1.254c0.399,0.23 0.188,1.022 0.587,1.252c1.417,-2.056 1.112,-2.218 3.132,-3.746Z" style="fill:#9ec3c9;"/><path d="M172.504,265.214c0.624,0.033 1.247,0.067 1.871,0.1c1.661,3.453 0.825,10.871 0.719,11.811c-0.147,1.308 -0.585,1.227 -0.104,2.344c0.69,1.605 -2.886,-0.075 -3.291,0.604c-1.715,2.877 -4.395,2.006 -3.091,2.683c0.14,0.073 5.372,2.79 0.511,1.903c-2.445,-0.446 -1.608,0.999 -2.974,2.973c-2.316,3.346 7.872,1.817 6.127,3.735c-0.152,0.167 -1.563,1.719 -2.387,1.519c-0.324,-0.079 -0.497,-0.837 -0.767,-0.641c-0.059,0.043 -0.698,2.644 -0.755,2.875c-0.496,2.019 0.56,1.631 2.283,3.041c-5.364,4.192 -5.768,4.187 -5.948,3.658c-0.279,-0.819 -4.603,-17.753 -4.012,-19.541c0.339,-1.026 7.244,-2.317 9.89,-4.47c4.909,-3.995 2.389,-9.697 1.93,-12.595Z" style="fill:#c7c7d4;"/><path d="M187.883,77.696c1.077,0.506 1.07,0.385 1.492,0.857c-0.911,1.357 -9.11,13.56 -16.326,12.282c-0.815,-0.365 -1.629,-0.729 -2.444,-1.094c2.065,-0.482 2.159,-0.255 3.739,-1.702c-2.001,-3.241 -2.503,-2.594 -5.748,-4.438c-2.671,2.931 -1.736,3.981 -5.422,5.463c-0.741,-5.392 4.382,-4.523 2.938,-7.499c-0.124,-0.256 -0.18,-0.192 -2.435,-2.595c5.423,-3.914 3.897,1.958 4.782,2.142c2.271,0.474 7.879,-6.622 10.669,0.174c1.581,3.851 3.33,-0.955 8.754,-3.59Z" style="fill:#ae855e;"/><path d="M213.493,56.857c-1.12,2.019 0.609,1.413 3.424,2.371c9.611,3.271 14.203,10.931 14.21,10.948c1.279,2.944 -2.635,0.266 -4.281,2.963l-0.5,-0.825c-0.606,-0.183 -1.213,-0.366 -1.819,-0.548c-1.199,-0.697 -1.169,-0.551 -2.196,-1.622c-0.766,-1.018 -0.904,-0.851 -1.208,-2.155c-1.376,0.968 -2.816,0.776 -1.617,1.985c0.238,0.24 0.896,0.061 0.932,0.397c0.039,0.363 -0.592,0.446 -0.809,0.741c-0.306,0.417 0.864,1.816 -0.309,1.903c-2.55,0.189 -1.866,-1.005 -1.315,-3.592c0.637,-2.989 -5.977,0.289 -6.18,0.165c-2.089,-1.271 -0.817,-1.915 -0.754,-6.909c6.635,-0.218 7.216,-0.437 6.817,-0.814c-0.054,-0.051 -4.673,-1.698 -5.282,-2.002c-0.492,-0.33 -0.984,-0.659 -1.476,-0.989c-0.427,-2.725 1.932,-1.922 2.364,-2.016Z" style="fill:#8c613d;"/><path d="M211.843,75.384c0.896,-1.179 1.247,-1.677 4.307,0.351c4.779,3.168 4.335,-0.734 6.289,-1.601c2.17,-0.963 18.401,11.022 7.932,28c-1.519,2.463 -1.411,-3.426 -1.421,-3.466c-1.355,-5.269 -2.082,-5.414 -4.655,-8.763c0.783,-0.417 1.569,-2.013 3.372,1.204c0.104,0.186 0.836,1.491 1.23,2.365c1.06,2.51 1.436,2.472 1.671,2.447c0,0 0.923,-2.331 1.003,-2.534c-0.082,-1.243 -0.164,-2.487 -0.246,-3.73l-0.983,-3.638l0.194,-0.781c-0.136,-0.367 0.266,-0.8 0.131,-1.166c-0.774,-2.091 -3.756,1.269 -8.258,0.248l0.778,-2.757c1.485,0.439 1.362,0.454 1.485,0.439c1.057,-0.133 -0.177,-0.244 -0.772,-1.062c1.064,-0.548 1.008,-0.735 2.225,-0.411c2.609,0.694 -1.273,-5.166 -3.574,-2.042c-0.092,0.125 0.448,2.159 -0.914,2.246c-1.987,0.128 -1.595,0.782 -2.283,1.422c-0.652,-0.479 -3.782,-2.779 -7.51,-6.77Z" style="fill:#9b7651;"/><path d="M127.451,81.659c-6.677,20.739 5.25,24.795 -9.187,41.104c-2.007,2.267 -5.539,8.173 -5.98,8.91c-5.423,-4.963 -0.404,-5.547 4.189,-12.102c1.444,0.7 1.689,0.741 2.531,-0.728c1.026,-1.822 1.082,-1.721 1.6,-3.758c0.479,-0.862 2.712,-2.166 2.604,-6.01c-0.064,-3.747 -0.062,-3.674 -0.229,-7.488l0.001,-0.744c0.281,-1.162 0.142,-1.112 -0.3,-2.238c0.288,-5.077 -1.101,-7.266 0.087,-10.56c0.574,-1.592 -0.121,-1.654 -1.806,-1.499c1.739,-3.376 0.887,-4.653 4.697,-5.022c0.937,-0.091 0.865,0.065 1.791,0.134Z" style="fill:#895f3c;"/><path d="M239.837,131.394c0.714,0.806 1.428,1.612 2.143,2.418c-1.657,3.504 -1.815,3.391 -2.027,4.856c-4.501,8.704 -2.178,9.105 -1.218,10.321c0.621,0.788 0.903,1.232 -1.691,4.788c-2.311,3.121 -2.218,3.708 -2.071,4.097c0.164,0.434 0.893,0.472 1.057,0.906c-5.225,5.073 -7.051,6.748 -9.429,2.12c0.222,-0.341 0.443,-0.682 0.665,-1.023l0.447,-0.42c8.035,-8.773 6.667,-13.83 6.192,-19.604c1.829,1.828 1.748,1.971 1.971,1.971c3.378,-0 -1.224,-4.516 1.462,-8.708c0.22,-0.135 -0.386,-0.621 -0.166,-0.757c0.193,-0.119 0.198,-0.071 2.667,-0.965Z" style="fill:#845b3a;"/><path d="M119.388,124.574c0.319,0.601 0.638,1.202 0.958,1.803c-0.835,2.381 -0.945,2.619 0.905,4.265c1.92,0.528 1.867,0.39 3.724,-0.34c1.654,-0.54 1.696,-0.497 2.997,0.589c-1.022,2.748 -2.045,5.497 -3.067,8.245c-1.868,2.454 -1.582,3.791 -4.466,2.794c-3.478,-1.233 -4.071,-0.475 -5.971,-3.59c0.177,-2.122 0.249,-2.134 -1.038,-3.776c2.594,-5.334 2.679,-5.154 5.958,-9.991Z" style="fill:#af875e;"/><path d="M186.537,128.681c-0.628,3.652 2.051,5.393 -1.581,6.04c-1.531,7.263 3.65,2.701 12.664,3.837c1.56,0.197 1.475,-0.843 3.008,-0.289c0.491,0.178 5.223,-0.13 4.335,2.397c-0.175,0.497 -2.899,0.628 -1.926,2.064c0.512,0.756 0.505,0.661 0.684,1.632c-2.361,-1.67 -2.392,-1.52 -5.276,-1.966c-2.654,0.604 -2.617,0.484 -5.364,0.067c-5.793,-0.892 -5.63,-1.277 -11.359,-2.441l-0.834,-0.728c-0.052,-0.122 -0.486,-1.135 -0.788,-1.463c-1.751,-1.895 -1.389,-2.014 -2.005,-4.488c3.407,-2.041 3.876,-1.384 6.219,-4.71c1.697,-2.41 1.926,-0.418 2.224,0.05Z" style="fill:#dec7a0;"/><path d="M258.352,188.708c0.748,0.339 9.523,4.325 4.719,9.113c-0.917,0.915 -16.443,-2.322 -17.174,-4.758c-2.258,-7.532 11.423,-4.577 12.454,-4.355Z" style="fill:#f8f0d7;"/><path d="M115.83,268.893c4.698,-0.452 7.475,3.445 8.295,3.452c7.575,0.069 7.368,1.228 15.009,1.712c5.969,1.094 5.894,1.243 12.016,1.373c3.429,0.073 3.093,-0.88 4.595,-1.307c1.359,5.03 1.098,5.25 0.681,5.364c-0.907,0.246 -16.638,-1.055 -28.473,-4.174c-10.063,-2.652 -10.745,-3.28 -12.122,-6.419Z" style="fill:#82a0a4;"/><path d="M326.61,209.917c-14.502,-2.941 -0.498,-19.229 5.129,-9.95c1.544,2.546 2.439,9.071 -5.129,9.95Z" style="fill:#392b24;"/><path d="M159.425,251.672c0.779,1.058 1.307,1.026 1.87,4.508c3.01,18.634 5.657,20.719 0.362,22.621c-7.116,-0.303 -2.736,-25.683 -2.231,-27.13Z" style="fill:#82acae;"/><path d="M188.444,45.946c16.202,-4.376 30.69,7.947 32.773,9.718c-3.2,1.242 -3.245,0.111 -10.96,-1.837c-3.746,-1.526 -7.837,-1.362 -4.306,-3.423c-0.296,-0.107 -0.287,-0.093 -5.972,-1.576c-0.895,-0.004 -9.37,-0.04 -11.08,-1.539c-0.355,-0.311 -0.1,-1.031 -0.455,-1.342Z" style="fill:#ac8d70;"/><path d="M125.06,315.501c-2.063,5.872 -1.959,7.105 2.867,10.253c-0.302,0.122 -2.302,0.932 -3.607,1.9c-2.267,-0.573 -3.257,-1.526 -2.928,-0.068c1.012,4.485 -1.759,-0.815 -1.836,-0.962c-0.837,-1.025 -0.947,-0.73 -2.181,-0.386c-2.369,-0.364 -2.73,-0.186 -3.336,-2.455c-0.44,-1.649 -1.376,-0.545 -2.664,-1.624c-0.316,-0.265 -0.514,-0.653 -0.83,-0.918c5.842,-4.394 6.102,-3.725 12.83,-6.531c0.562,0.264 1.123,0.527 1.685,0.791Z" style="fill:#a3a0b5;"/><path d="M135.727,104.715c0.764,-0.026 2.438,0.18 0.119,9.559c-0.899,3.638 -5.92,13.226 -6.504,14.342c-2.752,-2.786 -0.479,-3.115 1.359,-6.866c2.023,-4.128 1.955,-5.574 1.645,-7.38c-3.016,4.812 -2.603,8.808 -7.201,12.27c-1.875,1.412 -0.296,3.266 -0.17,3.662c-1.857,0.729 -1.804,0.868 -3.724,0.34c-1.85,-1.646 -1.74,-1.884 -0.905,-4.265c0.666,-0.615 1.332,-1.23 1.998,-1.845c0.398,-0.035 0.422,0.91 0.82,0.875c1.875,-0.164 1.645,-0.724 1.766,-0.636c0.275,0.201 1.292,0.75 2.246,-3.62c1.679,-3.564 1.79,-3.367 3.5,-6.894c2.15,-4.432 0.038,-7.532 2.265,-6.363c2.571,1.35 2.663,-2.308 2.786,-3.18Z" style="fill:#8a613d;"/><path d="M148.95,283.873c3.387,2.737 5.168,0.476 6.896,4.393c3.816,8.65 2.366,13.325 2.02,14.439c-1.4,-0.121 -2.8,-0.242 -4.199,-0.363c-3.831,-3.697 -4.058,-13.99 -4.717,-18.47Z" style="fill:#dbc19c;"/><path d="M138.463,98.282c0.172,-0.001 1.966,-0.017 2.151,-0.024c8.083,-0.286 2.668,5.283 4.188,10.122c1.112,3.541 -3.824,1.109 -3.999,2.253c-0.071,0.465 -0.864,5.644 -0.747,5.838c0.934,1.535 0.5,1.627 0.522,6.142c-0.036,0.511 -0.071,1.022 -0.107,1.533c-1.391,2.085 -1.277,2.15 -2.07,2.78c0.061,-5.774 -0.198,-5.713 0.407,-7.459c0.1,-0.289 0.308,-0.889 -1.258,-3.616c1.518,-6.954 0.962,-17.275 0.912,-17.57Z" style="fill:#895e38;"/><path d="M162.319,250.789c2.483,-0.738 3.159,-0.979 3.872,1.561c2.817,10.041 7.626,20.91 2.114,23.863c-2.04,1.093 -4.238,-18.236 -5.848,-23.828c-0.229,-0.795 -0.064,-0.737 -0.138,-1.596Z" style="fill:#84abae;"/><path d="M131.44,158.761c2.874,-1.292 3.051,-0.769 5.505,1.291l0.48,0.381c3.917,4.134 10.867,4.001 12.948,4.261l0.781,0.516c0.823,1.075 1.003,0.776 2.18,0.024l0.69,-0.174c0.283,-0.147 0.566,-0.293 0.849,-0.44c1.161,-0.152 1.063,-0.164 2.269,-0.111c0.207,0.189 1.13,1.035 0.834,3.399c-17.69,4.667 -24.043,-6.304 -26.536,-9.148Z" style="fill:#794f2c;"/><path d="M127.563,142.129c0.252,0.472 1.17,0.274 1.421,0.746c0.354,0.664 0.085,1.503 0.176,2.25c0.04,0.325 -0.052,0.769 0.215,0.96c0.61,0.437 1.521,0.284 2.131,0.72c2.867,5.286 4.128,9.17 7.35,4.164c0.53,0.855 0.922,0.586 1.027,1.656c0.109,1.116 0.429,0.964 0.497,2.172c-0.015,0.784 -0.03,1.568 -0.044,2.352c-0.497,0.524 -0.994,1.048 -1.492,1.572c-1.608,-0.867 -2.27,-0.417 -1.899,1.33c-2.454,-2.06 -2.631,-2.583 -5.505,-1.291c-1.839,-3.227 -4.891,-8.185 -3.878,-16.632Z" style="fill:#8a5f39;"/><path d="M123.607,195.291c0.438,1.275 0.95,2.524 1.388,3.8c1.731,5.039 -11.433,-1.867 -11.614,-2.887c-0.429,-2.424 7.257,-11.398 8.253,-8.228c0.182,0.578 0.146,0.542 1.973,7.315Z" style="fill:#bbbcc8;"/><path d="M216.511,309.861c-0.465,0.345 -4.188,1.062 -0.846,3.179c3.251,2.867 3.024,3.013 6.583,5.565c5.621,4.031 6.077,2.671 12.878,3.407c3.664,0.474 4.138,-0.723 6.75,1.85c-8.149,-0.326 -34.842,-0.475 -29.413,-13.06c1.466,-3.398 3.742,-1.071 4.049,-0.94Z" style="fill:#80a0a5;"/><path d="M188.444,45.946c0.355,0.311 0.1,1.031 0.455,1.342c1.711,1.499 10.185,1.536 11.08,1.539c-0.359,3.96 -5.776,1.987 -3.916,4.836c2.084,3.192 8.385,-1.947 8.106,1.944c-0.968,0.303 -6.395,1.802 -7.149,1.452c-5.376,-2.495 -5.78,-4.485 -14.375,-0.329c-3.563,1.723 -0.975,-3.994 7.574,-4.462c0.095,0.045 1.186,0.562 1.186,0.562c0.168,-0.182 -0.177,-0.56 -0.009,-0.741c-1.596,-2.816 -2.198,-2.078 -5.821,-4.092c1.086,-1.491 1.107,-1.428 2.869,-2.053Z" style="fill:#55371e;"/><path d="M164.621,309.676c0.214,0.068 1.091,-0.196 1.829,0.965c7.151,11.256 -16.957,13.249 -22.871,14.127c1.02,-1.943 0.994,-2.025 3.046,-2.475c8.059,-1.766 8.109,-1.605 15.092,-6.083c2.479,-2.581 3.94,-3.155 1.311,-5.539l1.594,-0.996Z" style="fill:#7d99a3;"/><path d="M148.95,283.873c0.278,-4.332 2.366,-2.166 6.666,-1.907c3.512,0.211 2.984,4.621 4.332,10.951c1.377,6.463 4.565,9.95 -2.081,9.79c0.346,-1.114 1.796,-5.789 -2.02,-14.439c-1.728,-3.917 -3.509,-1.657 -6.896,-4.393Z" style="fill:#c2a57e;"/><path d="M177.38,202.088c1.339,0.883 1.166,0.963 1.989,2.34c-0.124,1.473 -0.549,6.537 -10.876,14.931c-1.52,-1.127 -1.53,-1.06 -2.372,-2.728c0.925,-1.145 9.9,-12.254 11.259,-14.543Z" style="fill:#caa775;"/><path d="M223.721,120.992c0.969,-1.497 1.379,-0.975 2.733,0.169c3.235,9.609 4.778,8.972 7.45,18.692c0.475,5.774 1.842,10.831 -6.192,19.604c-0.968,-1.667 -1.11,-1.647 -1.045,-1.801c0,0 1.203,-1.598 1.308,-1.737c8.238,-11.553 3.78,-16.787 -1.273,-27.968c-1.603,-3.547 -0.086,-4.331 -2.98,-6.959Z" style="fill:#4f2e12;"/><path d="M114.468,138.341c1.9,3.115 2.493,2.357 5.971,3.59c-4.379,7.057 -0.183,10.204 -1.127,14.444c-0.282,1.267 0.135,1.131 1.058,2.062c0.22,1.563 0.295,1.564 0.237,1.688c-0.368,0.798 -0.884,0.162 -1.275,1.01c-3.474,-5.02 -2.916,-5.223 -5.731,-10.731l-0.122,-1.348c1.714,-3.879 3.215,-4.62 0.114,-7.703c1.021,-2.19 1.035,-2.168 1.103,-2.365c0.128,-0.374 -0.344,-0.305 -0.227,-0.648Z" style="fill:#865b36;"/><path d="M151.917,241.14c-11.783,-1.078 -11.739,-1.048 -14.305,-1.344c-5.453,-0.628 -9.655,1.281 -7.206,-3.672c0.134,-0.271 15.672,-0.663 16.683,0.093c4.368,3.266 4.68,4.391 4.828,4.923Z" style="fill:#c1c8cb;"/><path d="M160.607,83.479c0.825,1.411 1.031,1.262 1.308,2.929c0.343,1.022 1.145,2.451 1.26,2.656c3.686,-1.482 2.751,-2.532 5.422,-5.463c3.245,1.844 3.747,1.197 5.748,4.438c-1.58,1.447 -1.674,1.22 -3.739,1.702c-1.287,-0.132 -1.182,-0.033 -2.413,0.309c-5.086,2.633 -5.227,2.114 -7.234,2.263c-1.567,-1.159 -1.532,-1.097 -2.641,-2.72c1.027,-3.169 0.947,-3.109 2.29,-6.116Z" style="fill:#b18962;"/><path d="M126.971,181.541l0.992,1.084c0.728,6.553 1.049,6.377 2.615,12.801l0.51,2.146l1.305,2.448c-3.317,0.56 -4.031,0.767 -5.069,-2.457c-0.325,-1.011 -3.904,-12.132 -3.862,-12.696c0.056,-0.755 3.199,-3.095 3.509,-3.326Z" style="fill:#cdb08d;"/><path d="M202.892,221.67c2.828,-0.679 2.752,-0.044 5.423,1.228c-5.091,11.295 -5.13,11.359 -5.692,12.286c-2.615,0.472 -2.543,0.112 -5.126,-0.389c2.603,-6.364 3.782,-5.746 4.247,-8.507c0.273,-1.622 1.041,-4.252 1.147,-4.617Z" style="fill:#caa978;"/><path d="M142.196,173.38c-0.118,0.262 0.327,0.573 0.21,0.835c-1.347,2.997 -2.526,0.741 -5.569,1.752l-0.644,-0.248c0.966,0.733 0.848,0.803 2.035,1.213l0.155,0.42c-1.609,0.2 -1.489,0.324 -2.931,0.969c-1.942,1.006 -1.926,1.188 -1.792,1.304c0.169,0.147 0.271,-0.051 2.475,1.319c-2.093,-0.308 -2.079,-0.356 -2.261,-0.332c-1.258,0.162 -0.955,0.765 -2.307,0.939c-0.273,0.126 -0.26,0.044 -3.605,1.075l-0.992,-1.084c0.405,-0.202 9.73,-4.86 3.918,-4.082c-0.732,0.098 -0.692,0.197 -5.135,2.395c-1.873,-2.803 -0.376,-3.14 4.542,-5.339c4.477,-2.001 8.946,-0.275 11.9,-1.136Z" style="fill:#c6a372;"/><path d="M239.952,138.668c2.75,0.027 2.729,0.022 5.06,1.384l-0.193,1.296l-2.197,1.53c-3.589,0.276 1.016,4.94 -4.09,12.434c-0.193,0.283 -0.156,0.153 -2.504,3.469c-0.164,-0.434 -0.893,-0.472 -1.057,-0.906c-0.147,-0.389 -0.24,-0.976 2.071,-4.097c2.595,-3.556 2.313,-4.001 1.691,-4.788c-0.96,-1.217 -3.283,-1.618 1.218,-10.321Z" style="fill:#a57e53;"/><path d="M303.441,167.352c-1.001,-3.219 -1.061,-3.186 -1.081,-3.477c-0.112,-1.617 14.77,-3.541 16.346,-0.138c1.933,4.173 -2.525,0.587 -15.266,3.615Z" style="fill:#d16b92;"/><path d="M154.237,235.863c-0.17,-0.739 -0.54,-5.285 -3.414,-8.766c-0.314,-0.38 -3.546,-4.293 -3.115,-5.323c1.887,-4.516 11.753,12.014 9.834,18.436c-0.125,0.419 -2.918,2.473 -3.305,-4.347Z" style="fill:#adcdcc;"/><path d="M131.422,129.162c0.453,0.178 0.906,0.355 1.358,0.533c0.296,0.468 0.592,0.937 0.887,1.405l1.15,0.92c-4.695,5.876 -0.718,8.716 -3.312,14.784c-0.61,-0.437 -1.521,-0.284 -2.131,-0.72c-0.266,-0.191 -0.175,-0.634 -0.215,-0.96c-0.091,-0.747 0.178,-1.586 -0.176,-2.25c-0.252,-0.472 -1.17,-0.274 -1.421,-0.746c1.86,-10.309 3.595,-12.371 3.859,-12.967Z" style="fill:#ab835b;"/><path d="M131.568,181.55c3.583,3.019 3.888,3.696 1.487,7.8c-0.739,1.264 -2.747,0.54 -1.683,1.637c0.703,0.725 1.654,0.085 1.67,2.13c0.02,2.479 8.563,-1.675 4.608,2.874c-3.548,-0.218 -3.427,-0.383 -7.072,-0.566c-1.566,-6.424 -1.887,-6.248 -2.615,-12.801c3.345,-1.031 3.332,-0.949 3.605,-1.075Z" style="fill:#cb9e6d;"/><path d="M163.028,310.671c2.629,2.384 1.168,2.959 -1.311,5.539c-0.934,-0.336 -2.513,-2.089 -3.842,-0.724c-1.346,1.383 -1.722,0.689 -3.246,1.964c-2.715,2.27 -3.007,1.343 -6.504,0.475c-2.419,-0.589 -2.399,-0.609 -2.613,-0.637c-0.35,-0.045 -0.003,0.419 -0.341,0.376c3.523,-4.141 4.456,-2.265 9.745,-3.643c2.68,-0.698 7.48,-3.042 8.11,-3.35Z" style="fill:#a4c8ca;"/><path d="M243.291,145.162c2.02,1.789 2.255,1.477 3.473,3.872c0.632,2.204 -0.366,2.138 -0.14,4.341c-2.968,1.421 -3.626,4.349 -3.549,4.5c0.214,0.421 0.917,0.432 1.131,0.853c-1.908,1.493 -3.933,3.77 -8.376,3.696l0.053,-0.802c0.209,-0.208 8.006,-5.988 7.408,-16.461Z" style="fill:#815b3a;"/><path d="M236.006,306.967c-0.199,0.236 0.342,0.679 0.143,0.915c-0.822,0.975 -2.634,-1.093 -4.267,3.382c-8.121,1.903 -15.173,-3.52 -13.49,-3.574c6.621,-0.212 6.447,-1.852 12.945,-1.144c0.373,0.041 0.346,0.031 4.67,0.421Z" style="fill:#ceb79b;"/><path d="M226.022,262.522c1.128,1.118 0.973,1.138 1.759,2.512c0.082,0.387 0.757,0.453 0.839,0.841c0.037,0.177 -0.079,0.146 -0.186,2.25c-0.101,1.979 -1.522,1.97 -1.632,2.114c-2.727,1.194 -2.663,1.152 -5.442,2.407c-0.078,-0.671 -0.905,-7.813 -0.713,-8.414c0.296,-0.923 0.626,-0.587 5.375,-1.71Z" style="fill:#c4a478;"/><path d="M164.621,216.398l1.5,0.233c0.842,1.669 0.852,1.602 2.372,2.728l0.091,0.762c-6.154,5.6 -6.528,5.696 -7.252,5.881l-0.325,0.996l-0.312,0.276c-0.245,-0.083 -0.302,0.634 -0.548,0.551c-0.684,-0.232 -1.078,-2.913 -1.701,-3.845c-1.411,-2.11 0.282,-2.019 6.175,-7.582Z" style="fill:#bf9764;"/><path d="M205.085,243.969c0.633,0.02 10.513,1.394 11.094,1.947c5.887,5.61 -21.482,4.153 -11.094,-1.947Z" style="fill:#bb915f;"/><path d="M120.962,86.547c1.684,-0.155 2.38,-0.093 1.806,1.499c-1.188,3.293 0.2,5.482 -0.087,10.56c0.1,0.746 0.2,1.492 0.3,2.238l-0.001,0.744c-0.143,0.85 -0.894,4.175 0.229,7.488c0.108,3.844 -2.125,5.148 -2.604,6.01c-0.337,-0.487 -0.674,-0.975 -1.01,-1.462c0.882,-1.988 4.019,-6.028 1.363,-11.958c-0.257,-0.573 -0.824,-4.28 -0.708,-5.266c-0.21,-0.509 -0.419,-1.018 -0.629,-1.527c0.206,-4.3 0.451,-4.18 1.342,-8.326Z" style="fill:#845b32;"/><path d="M160.014,308.25c0.635,0.556 0.365,0.622 0.396,1.403c-0.936,0.419 -11.692,5.23 -12.637,2.114c-0.937,-3.09 -2.424,-2.493 -4.963,-3.161c9.108,-3.82 9.562,1.05 17.204,-0.355Z" style="fill:#dac2a4;"/><path d="M252.583,316.01c3.198,8.07 -8.457,7.684 -10.708,7.852c-2.613,-2.572 -3.087,-1.376 -6.75,-1.85c1.241,-0.722 0.65,-1.634 3.75,-2.182c1.943,-0.343 3.379,0.727 3.758,0.677c4.701,-0.624 4.759,-0.007 5.125,-0.194c3.496,-1.789 4.583,-3.846 4.825,-4.303Z" style="fill:#91b2ba;"/><path d="M199.98,48.828c5.685,1.483 5.677,1.469 5.972,1.576c-3.531,2.061 0.56,1.898 4.306,3.423c-0.903,0.733 -1.593,2.512 -3.61,2.974c-1.098,0.251 -1.413,0.1 -1.523,0.047c-0.761,-0.366 -0.147,-0.85 -0.956,-1.24c0.28,-3.891 -6.022,1.248 -8.106,-1.944c-1.859,-2.849 3.557,-0.875 3.916,-4.836Z" style="fill:#845f3d;"/><path d="M268.698,177.629c-1.376,-0.637 -1.311,-0.615 -2.695,-1.248c-2.462,-1.125 4.206,-3.864 5.106,-4.301c1.515,-0.735 6.067,6.255 4.441,7.447c-2.808,2.06 -6.195,-1.473 -6.852,-1.899Z" style="fill:#cdb48f;"/><path d="M223.446,171.208c4.356,4.12 7.546,8.108 19.218,10.479c-6.782,3.977 -11.972,-1.457 -12.684,-2.202c-4.848,-3.591 -4.676,-3.771 -5.169,-3.935c-4.399,-1.464 -1.515,-3.931 -1.365,-4.342Z" style="fill:#dbcaaa;"/><path d="M160.521,174.271c0.553,0.475 0.305,0.777 1.018,0.875c0.851,0.116 0.566,0.341 1.223,1.616c-1.872,1.761 -3.304,1.162 -2.653,3.608c0.728,2.73 -1.678,1.138 -1.818,1.045c-4.194,-2.777 -8.717,0.691 -7.191,-4.128c2.119,-0.578 3.935,-0.621 9.421,-3.015Z" style="fill:#d7b68a;"/><path d="M130.966,103.018c1.799,1.256 1.748,1.904 3.748,1.131c0.087,-0.034 -0,0 1.014,0.566c-0.123,0.872 -0.215,4.53 -2.786,3.18c-2.227,-1.169 -0.115,1.931 -2.265,6.363c-1.71,3.526 -1.821,3.329 -3.5,6.894c-0.428,-0.271 -0.856,-0.543 -1.285,-0.814c0.586,-1.154 6.115,-12.039 4.195,-15.632c-0.421,-0.788 -0.852,-0.617 -0.634,-1.529c0.028,-0.118 0,0 1.513,-0.16Z" style="fill:#865d37;"/><path d="M144.538,260.684c-1.485,4.245 -2.061,5.993 -3.722,4.824c-2.252,-1.584 -3.15,-1.708 -1.968,-4.249c0.738,-1.587 -1.308,-3.996 3.997,-4.869c1.411,-0.232 1.67,3.926 1.693,4.294Z" style="fill:#a2c2c5;"/><path d="M140.336,157.149c0.973,1.043 0.993,1.126 2.47,0.701c0.506,1.946 0.977,1.538 2.872,2.298c-0.05,0.405 -0.101,0.81 -0.151,1.216c1.27,0.927 1.083,1.193 2.58,1.166c2.143,-0.038 1.841,0.745 3.747,1.584l-1.48,0.58c-2.081,-0.26 -9.031,-0.127 -12.948,-4.261c1.001,-0.717 1.244,-0.462 1.419,-1.712c0.497,-0.524 0.994,-1.048 1.492,-1.572Z" style="fill:#8a5e37;"/><path d="M232.722,80.04c2.951,-2.159 2.876,-2.213 3.16,-2.349c1.558,-0.744 0.729,0.677 1.322,2.259c2.952,7.871 0.623,10.231 -0.003,11.921c-3.21,-5.521 -1.356,-6.263 -4.479,-11.831Z" style="fill:#885e38;"/><path d="M329.788,205.211c-4.799,5.928 -10.163,-4.527 -3.163,-5.315c4.581,-0.516 3.28,4.834 3.163,5.315Z" style="fill:#c7c7c9;"/><path d="M205.181,304.805c-1.185,-1.478 -1.211,-1.448 -1.28,-1.597c-3.796,-8.305 11.476,-0.537 8.617,1.532c-0.122,0.088 -9.255,-4.925 -4.395,-0.614c7.672,6.805 -2.733,0.8 -2.942,0.679Z" style="fill:#9ab5bb;"/><path d="M209.646,101.616c0.246,0.238 0.492,0.477 0.738,0.715c-0.598,0.282 -0.361,0.66 -2.259,1.066c-5.932,1.269 -5.479,2.276 -8.788,7.431l-1.063,-1.597c0.503,-2.892 0.355,-2.821 1.432,-5.492c1.178,-2.924 3.441,0.941 4.765,-1.301c1.076,-1.821 2.923,-0.589 3.657,-0.8c0.356,-0.102 0.414,-0.781 0.785,-0.786c0.353,-0.005 0.382,0.769 0.735,0.764Z" style="fill:#ddc99b;"/><path d="M196.765,147.364c-4.575,6.038 -24.355,-5.3 -14.912,-2.783c13.632,3.634 13.806,2.284 14.912,2.783Z" style="fill:#e0e0de;"/><path d="M302.815,241.109c-0.08,-0.268 -1.342,-4.494 0.537,-3.451c1.676,0.931 1.936,0.865 2.074,2.774c0.128,1.77 1.606,-0.24 3.979,-0.412c5.013,-0.365 5.583,-1.061 6.83,1.087c-0.948,0.503 -7.526,3.992 -13.421,0.001Z" style="fill:#cbc4d5;"/><path d="M169.152,132.986c0.813,0.646 0.81,0.292 1.633,-0.174c1.427,1.079 1.365,1.026 2.342,2.475c0.191,0.398 2.156,4.479 0.498,5.494c-1.268,0.776 -1.543,0.462 -1.862,-0.999c-0.405,-1.856 -0.895,-1.5 -2.721,-1.605l-1.271,-0.721c-1.093,-3.108 -1.94,-4.907 1.38,-4.471Z" style="fill:#dbc69c;"/><path d="M132.345,114.371c0.31,1.806 0.378,3.251 -1.645,7.38c-1.837,3.75 -4.111,4.079 -1.359,6.866l-1.37,2.276c-1.301,-1.086 -1.343,-1.129 -2.997,-0.589c-0.126,-0.396 -1.706,-2.25 0.17,-3.662c4.599,-3.463 4.185,-7.459 7.201,-12.27Z" style="fill:#87603b;"/><path d="M306.586,207.087c0.458,0.106 0.916,0.212 1.374,0.318c-1.483,1.386 -2.98,1.137 -3.084,1.2c-0.446,0.268 -0.323,1.065 -0.742,1.373c-1.248,0.918 -0.805,-1.856 -2.283,-1.178c-2.782,1.276 -2.96,-0.479 -5.983,0.452c-0.954,0.294 -3.242,-3.447 2.184,-3.008c4.328,0.35 4.314,-0.338 8.535,0.843Z" style="fill:#cac7d9;"/><path d="M284.726,162.502c0.867,-0.361 9.013,-3.75 11.354,2.963l-0.219,0.631c-2.695,-0.619 -2.561,-0.792 -5.164,-1.703c-3.664,-1.281 -3.585,1.037 -7.346,0.679c-0.157,-1.606 0.193,-1.454 1.375,-2.57Z" style="fill:#632d43;"/><path d="M130.683,262.581c-0.189,0.054 -4.147,1.857 -4.028,-0.488c0.031,-0.611 0.555,-10.942 4.028,-6.502c1.607,2.054 -0.124,2.269 0.001,6.989Z" style="fill:#a4c0c7;"/><path d="M166.642,158.936c2.815,-1.535 4.24,-2.769 4.616,0.416c-3.255,1.963 -3.774,7.47 -4.669,8.241c-1.633,1.407 -1.862,0.971 -3.697,-0.188c2.549,-3.152 5.097,-5.546 3.75,-8.469Z" style="fill:#d5c4a6;"/><path d="M212.598,98.085c-2.651,-0.107 -2.602,-0.182 -5.211,0.598c-5.518,1.65 1.292,-7.253 7.443,-2.266c6.16,4.994 -2.025,1.75 -2.232,1.668Z" style="fill:#31281d;"/><path d="M78.583,172.965c-1.854,-0.191 -14.131,0.476 -11.474,-2.355c0.384,-0.409 11.436,-0.515 11.529,-0.007c0.034,0.186 -0.004,0.175 -0.055,2.362Z" style="fill:#c9c5d6;"/><path d="M141.51,65.011c-4.935,3.655 -4.885,3.565 -8.958,8.241c-0.114,-0.14 -1.096,-0.108 -1.321,-1.627c-0.434,-2.925 3.002,-4.389 3.422,-4.568c4.158,-0.683 4.034,-3.229 5.972,-2.862c0.394,0.075 0.491,0.741 0.885,0.816Z" style="fill:#ab8567;"/><path d="M239.267,122.816c3.691,-1.427 3.61,0.115 6.612,3.578c1.333,1.969 0.95,2.216 -0.615,4.054c-3.163,-3.778 -3.337,-3.542 -5.997,-7.632Z" style="fill:#bfbfd2;"/><path d="M171.926,304.203c-2.014,-2.68 -5.235,3.828 -5.492,0.599c-0.263,-3.315 14.357,-7.936 7.212,0.863c-0.574,-0.487 -1.147,-0.975 -1.721,-1.462Z" style="fill:#92b1b8;"/><path d="M188.4,74.614c1.399,-3.581 1.541,-3.443 1.615,-3.762c0.221,-0.961 0.641,-0.242 1.61,-0.584c1.805,-0.638 0.821,2.038 0.284,2.444c-0.97,0.733 -0.705,0.893 -0.246,1.955c-0.242,0.44 -0.186,0.453 -1.317,5.27c-0.324,-0.461 -0.647,-0.923 -0.971,-1.384c-0.423,-0.472 -0.416,-0.351 -1.492,-0.857c-0.155,-0.176 -0.523,0.366 -0.678,0.19c-0.676,-0.768 -1.559,-4.601 1.196,-3.272Z" style="fill:#8c633f;"/><path d="M138.377,196.104c1.915,-0.08 1.823,-0.026 3.719,-0.156c4.006,-0.274 2.94,2.442 6.751,3.527c-1.443,0.465 -1.374,0.618 -2.93,0.244c-3.436,-0.826 -3.452,0.247 -6.809,-0.571c-0.481,-1.593 -0.431,-1.506 -0.731,-3.044Z" style="fill:#c99f74;"/><path d="M210.646,264.554c0.352,-0.085 0.229,-0.529 1.359,-0.329c0.781,0.138 0.605,0.5 0.408,9.906c-0.894,42.766 -1.757,-8.797 -1.767,-9.576Z" style="fill:#c7c8d2;"/><path d="M226.544,98.692c0.038,4.205 0.318,4.14 -0.819,8.301c-1.271,-1.027 -1.758,-2.751 -1.889,-1.081c-1.1,13.949 -1.365,-2.574 -1.348,-2.824c2.026,-1.331 2.174,-1.225 2.183,-1.434c0.044,-0.953 -0.648,-0.569 -0.846,-1.547c-0.424,-2.097 0.618,-1.86 2.719,-1.416Z" style="fill:#ccb684;"/><path d="M163.678,78.97c2.254,2.403 2.311,2.339 2.435,2.595c1.444,2.976 -3.679,2.107 -2.938,7.499c-0.115,-0.205 -0.916,-1.634 -1.26,-2.656c-0.278,-1.667 -0.483,-1.518 -1.308,-2.929c1.456,-2.423 1.166,-2.494 3.071,-4.509Z" style="fill:#af845e;"/><path d="M138.895,132.053c0.77,1.372 1.018,1.504 -0.054,2.572c-0.361,0.359 -0.504,5.512 0.024,6.968c0.652,1.797 -0.402,1.548 -0.554,2.035c-0.059,0.189 0.011,0.183 0.154,2.464c-2.797,-0.652 -0.94,-1.85 -1.378,-4.73c-0.212,-1.398 -0.926,-4.064 -0.241,-8.511c0.683,-0.266 1.366,-0.532 2.049,-0.798Z" style="fill:#b28b60;"/><path d="M145.148,247.895c0.379,3.043 1.19,2.594 3.864,3.993c-3.814,2.603 -3.67,-0.685 -4.571,-1.137c-1.142,-0.573 -2.341,1.259 -5.876,-0.093c0.122,-0.64 0.243,-1.28 0.365,-1.919c2.518,-1.012 5.227,-0.337 6.218,-0.844Z" style="fill:#a9ced5;"/><path d="M180.5,118.219c-4.747,4.434 -3.997,-8.936 -0.203,-5.974c2.226,1.738 0.409,5.542 0.203,5.974Z" style="fill:#e6e6e4;"/><path d="M116.706,70.099c-0.314,-5.566 -0.122,-6.193 0.034,-6.707c0.488,-1.6 3.862,-1.126 4.509,-0.03c0.409,0.693 -2.278,5.364 -3.876,6.838l-0.667,-0.101Z" style="fill:#cbc5d4;"/><path d="M187.151,157.219c3.82,-0.255 3.741,-0.416 7.503,-0.218c6.557,0.345 -10.676,7.123 -7.503,0.218Z" style="fill:#bfa378;"/><path d="M252.351,237.997c1.369,2.2 1.418,2.161 1.479,2.376c0.694,2.475 -1.081,1.221 -3.628,2.104l-0.707,-0.063c-0.547,-0.079 -1.095,-0.158 -1.642,-0.238c-1.721,-0.841 -1.125,-1.25 -1.437,-3.056c5.477,-1.165 5.463,-1.022 5.936,-1.123Z" style="fill:#cca475;"/><path d="M247.099,244.61l0.731,-0.055c0.564,0.415 1.127,0.831 1.691,1.246c-4.35,2.689 -4.453,2.331 -9.08,4.504c0.029,-0.377 -0.678,-0.553 -0.649,-0.93c0.027,-0.359 0.58,-0.449 0.777,-0.75c0.209,-0.321 -0.215,-1.176 0.593,-1.423c3.143,-0.959 2.729,-1.854 5.937,-2.593Z" style="fill:#c7a170;"/><path d="M219.857,50.973c2.36,-1.012 2.514,-1.607 4.676,-0.228c0.305,0.194 6.074,3.873 2.925,3.443c-0.678,-0.093 -1.392,1.634 -1.775,2.19c-2.792,-2.858 -2.726,-2.786 -5.826,-5.404Z" style="fill:#c0bdcd;"/><path d="M157.224,248.682c-0.566,1.472 -1.133,2.945 -1.699,4.417c-2.174,-1.588 -2.354,-0.284 -5.07,0.005c-0.091,-0.561 -0.182,-1.122 -0.274,-1.683c1.248,-0.711 1.068,-0.753 2.289,-1.435c0.344,-0.212 0.688,-0.424 1.032,-0.636c-0.317,-3.284 1.918,-3.5 3.722,-0.668Z" style="fill:#99bebf;"/><path d="M198.688,61.954c4.202,6.742 1.268,11.989 0.763,12.891c-0.493,-0.908 -1.648,-3.038 -0.763,-12.891Z" style="fill:#8b5f41;"/><path d="M140.861,311.869c5.98,-5.408 4.637,5.486 1.322,4.778c-3.229,-0.69 -2.746,-1.833 -1.322,-4.778Z" style="fill:#a3bfcb;"/><path d="M286.758,167.682c2.696,-0.183 2.627,0.062 5.115,0.934c0.298,0.104 1.583,1.271 2.658,-0.018c2.062,-2.469 1.127,1.841 2.237,1.87c0.472,0.012 0.816,-0.603 1.289,-0.591l0.796,0.813c-2.416,1.497 -2.537,0.783 -4.642,0.197c-0.595,-0.166 -1.509,1.007 -3.744,-0.931c-0.687,-0.545 -0.623,-0.515 -0.687,-0.545c-0.357,-0.171 -0.365,0.07 -0.695,-0.089l-0.741,-0.016c-0.886,-0.603 -0.763,-0.653 -1.586,-1.624Z" style="fill:#e576a0;"/><path d="M113.43,134.565c1.288,1.642 1.215,1.654 1.038,3.776c-0.117,0.342 0.355,0.274 0.227,0.648c-0.068,0.198 -0.082,0.175 -1.103,2.365c-0.358,1.175 -0.251,1.142 -0.693,2.277c-0.553,1.421 -0.903,1.053 -1.881,2.193c0.525,-5.801 0.479,-5.743 2.411,-11.259Z" style="fill:#8a6543;"/><path d="M226.667,302.811c1.235,4.976 -14.875,3.357 -10.551,0.952c0.741,-0.412 0.984,1.381 10.551,-0.952Z" style="fill:#9fbab9;"/><path d="M137.55,115.852c1.566,2.727 1.358,3.327 1.258,3.616c-0.605,1.746 -0.347,1.685 -0.407,7.459c-0.313,-0.128 -0.671,0.378 -0.985,0.25c-0.945,-0.386 -0.881,-3.49 -0.874,-3.802c0.003,-0.169 -0.102,-0.119 -1.374,-1.603c0.794,-1.973 1.589,-3.946 2.383,-5.92Z" style="fill:#8d643c;"/><path d="M216.343,129.46c0.463,1.173 0.315,1.3 -0.832,1.833c-3.722,0.868 -3.796,0.604 -6.842,3.03c-1.142,0.91 -1.316,0.534 -2.211,-0.532c2.771,-2.703 4.24,-4.523 9.885,-4.33Z" style="fill:#746858;"/><path d="M280.977,228.495c1.204,-0.18 1.508,-0.506 1.943,0.683c0.407,1.112 -0.408,1.272 -0.517,1.294c-4.258,0.838 -2.51,3.216 -6.299,5.508c0.767,-4.454 0.112,-4.964 1.724,-5.609c1.29,-0.516 0.51,-2.081 3.149,-1.875Z" style="fill:#cbc7db;"/><path d="M244.819,141.348l0.697,0.816c0.818,0.799 0.741,0.734 1.649,1.437l0.569,0.794c-0.144,2.422 0.218,2.321 0.445,2.98c0.057,0.165 -0.101,0.119 -1.415,1.659c-1.218,-2.395 -1.453,-2.084 -3.473,-3.872c-0.223,-0.761 -0.445,-1.522 -0.668,-2.283l2.197,-1.53Z" style="fill:#b58a5a;"/><path d="M290.107,135.353c0.906,2.802 1.758,3.116 -0.229,5.263c-1.583,-0.219 -1.497,-0.208 -2.971,0.091c-0.39,-2.184 -0.567,-2.152 -0.504,-2.332c0.061,-0.175 0.74,-0.218 0.882,-1.575c0.528,-5.024 2.546,-1.582 2.822,-1.447Z" style="fill:#c2c5d4;"/><path d="M118.509,220.688c2.137,1.815 1.956,2.003 2.095,4.73c0.048,0.94 -0.536,4.226 -0.733,4.518c-0.418,0.62 -3.042,0.518 -1.361,-9.249Z" style="fill:#c1c7d7;"/><path d="M234.405,311.622c1.066,-1.659 1.071,-1.985 2.996,-1.65c1.46,0.254 1.922,1.499 1.995,1.695c0.904,2.435 -3.349,6.82 -4.991,-0.045Z" style="fill:#afbfce;"/><path d="M227.563,88.125c0.163,0.385 -0.009,3.2 3.762,1.532c0.082,1.243 0.164,2.487 0.246,3.73c-1.331,-0.745 -1.347,-0.546 -2.675,0.086c-0.395,-0.874 -1.126,-2.179 -1.23,-2.365c-1.803,-3.217 -2.589,-1.621 -3.372,-1.204l-1.594,-1.378c1.782,-1.35 1.732,-1.436 1.924,-1.458c2.616,-0.293 2.236,0.803 2.938,1.055Z" style="fill:#825934;"/><path d="M92.879,193.125c-0.058,-0.458 -0.591,-4.712 0.637,-5.741c2.175,-1.822 5.41,11.174 -0.637,5.741Z" style="fill:#c7c5d3;"/><path d="M185.637,214.11c1.434,3.244 -0.902,4.089 -2.262,4.077c-3.623,-0.031 -3.572,-5.987 2.262,-4.077Z" style="fill:#cdaa79;"/><path d="M223.9,80.939l-0.713,0.624l-0.778,2.757c-1.483,-1.188 -1.46,-1.088 -3.056,-2.166c0.688,-0.64 0.296,-1.294 2.283,-1.422c1.363,-0.088 0.823,-2.121 0.914,-2.246c2.301,-3.124 6.183,2.736 3.574,2.042c-1.217,-0.324 -1.161,-0.137 -2.225,0.411Z" style="fill:#b68658;"/><path d="M134.614,313.923c-2.02,1.528 -1.715,1.69 -3.132,3.746c-0.399,-0.23 -0.188,-1.022 -0.587,-1.252c-0.03,-0.017 -0.017,-0.011 -1.501,1.254c-1.111,0.947 -1.162,0.368 -2.613,-0.164c2.601,-4.122 3.114,-3.97 7.833,-3.584Z" style="fill:#a8c7cf;"/><path d="M212.125,134.734c-0.029,3.411 0.267,14.574 -1.637,11.075c-0.509,-0.937 -0.209,-0.987 -0.151,-8.937c0.015,-2.056 1.111,-1.629 1.788,-2.138Z" style="fill:#ddcbb0;"/><path d="M205.172,119.56c-3.346,-5.166 1.122,-7.34 2.337,-4.507c2.275,5.305 -1.937,4.576 -2.337,4.507Z" style="fill:#e0e0e2;"/><path d="M295.1,238.162c-0.846,-2.49 -0.495,-2.582 -0.319,-2.487c1.131,0.613 1.18,0.899 2.337,0.2c1.381,2.615 1.632,2.378 2.61,5.236c-0.314,0.372 0.059,1.696 -3.112,0.764c-0.494,-1.985 -0.293,-2.067 -0.946,-2.764l-0.57,-0.949Z" style="fill:#c9c7cc;"/><path d="M241.979,133.812c4.354,4.055 3.32,5.765 3.033,6.24c-2.331,-1.361 -2.31,-1.357 -5.06,-1.384c0.212,-1.465 0.37,-1.352 2.027,-4.856Z" style="fill:#976f41;"/><path d="M130.578,195.426c3.645,0.184 3.524,0.348 7.072,0.566l0.727,0.112c0.3,1.539 0.25,1.451 0.731,3.044l-0.76,-0.134c-5.612,-2.146 -6.716,-1.675 -7.261,-1.442l-0.51,-2.146Z" style="fill:#c3a36c;"/><path d="M52.274,97.145c0.23,1.787 -0.301,1.57 -1.199,3.089c-0.999,1.688 5.638,2.48 1.925,3.853c-2.368,0.876 -2.52,-1.597 -3.134,-1.94c-2.586,-1.443 0.345,-4.557 1.501,-4.308c1.055,0.227 0.843,-0.644 0.907,-0.693Z" style="fill:#c9c4d9;"/><path d="M199.189,38.052c1.629,0.113 5.204,-0.265 5.988,0.521c1.145,1.148 1.302,0.478 2.906,0.289c0.255,-0.03 1.965,3.042 -1.42,1.224c-2.067,-1.11 -9.821,2.405 -7.474,-2.033Z" style="fill:#c8c7d6;"/><path d="M150.374,331.777c1.697,-4.206 3.209,-5.638 5.857,-2.033c1.671,2.276 -5.361,2.049 -5.857,2.033Z" style="fill:#a5a1b8;"/><path d="M222.28,146.637c0.384,-0.096 7.56,-1.883 3.579,3.417c-0.893,1.188 -1.524,-0.272 -3.15,-0.486l-0.428,-2.931Z" style="fill:#6f4726;"/><path d="M138.929,248.739c-0.122,0.64 -0.243,1.28 -0.365,1.919c-1.574,-0.466 -7.087,1.487 -6.934,-0.234c0.051,-0.575 1.451,-0.288 1.502,-0.864c2.896,-1.656 2.973,-1.88 5.796,-0.821Z" style="fill:#a0c9ce;"/><path d="M238.931,172.966c-0.493,-0.08 -1.533,0.1 -4.429,-1.775c-2.076,-1.344 -3.962,-3.108 -4.029,-3.567c-0.394,-2.701 1.307,-0.265 8.115,4.501l0.342,0.841Z" style="fill:#72706f;"/><path d="M199.351,130.029c1.075,1.502 1.296,1.763 2.838,0.79l2.259,1.503c-1.843,2.269 -2.225,2.057 -4.644,1.047c-2.476,-1.033 -0.853,-2.05 -0.453,-3.34Z" style="fill:#ddc8a2;"/><path d="M142.196,173.38l0.53,0.996c0.677,1.494 0.242,1.557 0.975,3.069l-0.533,0.276l-0.999,-0.2c-1.262,-0.057 -2.524,-0.113 -3.786,-0.17l-0.155,-0.42c-0.464,-0.322 -0.928,-0.644 -1.392,-0.965c3.043,-1.01 4.222,1.246 5.569,-1.752c0.118,-0.262 -0.327,-0.573 -0.21,-0.835Z" style="fill:#bd9267;"/><path d="M153.261,304.004c6.218,0.87 6.191,0.962 6.731,1.037c0.077,0.485 0.153,0.97 0.23,1.455c-0.591,0.017 -8.786,0.258 -6.961,-2.492Z" style="fill:#aac2c6;"/><path d="M281.394,167.965c2.284,0.792 2.27,-0.315 5.363,-0.283c0.823,0.97 0.7,1.02 1.586,1.624c-3.371,0.045 -3.23,0.251 -6.54,0.772c-0.562,-0.054 -1.124,-0.107 -1.686,-0.161l-0.709,0.118c0.178,-1.651 0.306,-1.732 1.986,-2.07Z" style="fill:#d97ca1;"/><path d="M124.142,246.365c0.577,2.357 0.072,2.505 1.675,4.439c-2.358,2.2 -2.51,2.014 -2.674,1.814c-0.059,-0.072 -0.645,-0.787 -0.793,-0.856c-1.077,-0.5 -0.32,-0.713 0.286,-1.666c0.39,-0.198 0.803,0.459 1.005,-0.509c0.015,-0.07 0.071,-0.341 -0.047,-0.893c-0.059,-0.276 -0.254,-0.511 -0.314,-0.787c-0.067,-0.125 -2.78,-6.88 0.862,-1.541Z" style="fill:#9ac5cc;"/><path d="M250.259,75.384c1.364,-1.05 2.169,-1.812 2.398,-0.081c0.035,0.262 0.142,4.205 -0.267,4.588c-2.668,2.504 -1.66,-0.88 -2.131,-4.507Z" style="fill:#c9c5d6;"/><path d="M168.234,152.764c0.216,0.191 5.269,5.358 -2.061,2.948c-0.277,-0.354 0.225,-0.421 -0.074,-0.803c-0.049,-0.063 -0,0 -0.822,-0.572c1.233,-1.208 1.095,-1.514 2.957,-1.574Z" style="fill:#dbc59b;"/><path d="M152.386,100.073c0.107,0.815 0.044,0.742 0.204,1.563c1.068,5.458 -0.745,5.132 -1.977,7.558c-0.002,-0.621 -0.018,-4.926 1.139,-7.678c0.211,-0.481 0.422,-0.961 0.633,-1.442Z" style="fill:#885e36;"/><path d="M170.605,89.741c0.815,0.365 1.629,0.729 2.444,1.094c-4.018,4.001 -4.798,1.726 -4.674,1.357c0.055,-0.163 -0.014,-0.159 -0.183,-2.141c1.231,-0.342 1.126,-0.441 2.413,-0.309Z" style="fill:#8b5f36;"/><path d="M295.908,141.347c0.143,-2.583 1.302,-1.368 3.788,-1.021c1.763,0.247 1.155,4.581 -0.023,3.942c-2.177,-1.181 -1.529,-1.933 -3.764,-2.921Z" style="fill:#c9c5d6;"/><path d="M125.535,238.303c-0.782,-6.134 1.211,-5.676 1.528,-5.362c1.12,1.108 0.973,2.684 0.951,2.93c-0.323,3.47 -2.002,2.42 -2.479,2.432Z" style="fill:#b4c1c0;"/><path d="M135.98,308.616c-1.585,1.892 -2.603,2.796 -2.851,3.017l-0.765,0.069c-0.389,-0.039 -0.777,-0.078 -1.166,-0.116c1.777,-4.016 4.341,-6.613 4.782,-2.969Z" style="fill:#9daab6;"/><path d="M252.329,159.404c-0.274,4.281 -0.273,4.282 -0.034,4.557c1.78,2.049 -2.168,2.602 -2.332,-0.108c-0.019,-0.32 0.565,-0.216 0.653,-3.953c0.024,-1.026 0.482,-0.503 1.713,-0.497Z" style="fill:#c6c3d4;"/><path d="M230.214,85.615l0.129,0.404l0.983,3.638c-3.771,1.667 -3.6,-1.148 -3.762,-1.532c1.12,-1.538 1.133,-1.436 2.651,-2.509Z" style="fill:#875d39;"/><path d="M125.891,120.338c0.428,0.271 0.856,0.543 1.285,0.814c-0.953,4.37 -1.97,3.821 -2.246,3.62c-0.121,-0.089 0.109,0.472 -1.766,0.636c-0.398,0.035 -0.422,-0.91 -0.82,-0.875c0.264,-0.419 0.528,-0.837 0.792,-1.256c1.112,-0.807 0.986,-0.869 2.756,-2.939Z" style="fill:#8a5f36;"/><path d="M191.829,152.032c-8.421,0.463 -8.189,-2.194 -7.56,-2.229c0.559,-0.031 3.69,-0.204 6.926,1c0.432,0.161 0.201,1.068 0.633,1.229Z" style="fill:#a1656e;"/><path d="M247.494,154.447c-1.554,2.259 -1.545,2.159 -3.289,4.281c-0.214,-0.421 -0.917,-0.432 -1.131,-0.853c-0.077,-0.151 0.581,-3.079 3.549,-4.5l0.871,1.072Z" style="fill:#815e46;"/><path d="M122.915,216.118c2.034,-3.731 1.923,-3.71 2.121,-4.014c3.532,-5.434 0.416,4.606 0.298,4.988c-1.298,-0.414 -1.247,-0.369 -2.419,-0.974Z" style="fill:#733150;"/><path d="M136.273,258.991c0.111,0.259 1.268,2.955 -1.651,3.108c-1.396,0.073 -4.178,-5.128 1.651,-3.108Z" style="fill:#b0c7cb;"/><path d="M243.371,307.877c0.064,-1.733 -0.093,-2.756 1.364,-1.935c0.924,0.521 2.09,2.504 2.234,2.748c3.836,6.523 -3.387,-0.606 -3.597,-0.813Z" style="fill:#aec0c7;"/><path d="M123.38,29.6c0.407,0.144 5.458,1.934 2.972,4.501c-2.679,2.767 -1.624,-0.936 -2.972,-4.501Z" style="fill:#c7c4d8;"/><path d="M96.606,184.763c-0.001,-0.303 -0.012,-4.39 2.935,-2.384c0.736,0.501 0.914,5.212 -2.935,2.384Z" style="fill:#c9c6d5;"/><path d="M140.38,154.797c0.545,-0.289 0.55,-0.162 1.007,-0.534c1.513,-1.231 1.212,0.3 1.689,2.121l0.051,0.774l-0.322,0.693c-1.476,0.424 -1.497,0.342 -2.47,-0.701c0.015,-0.784 0.03,-1.568 0.044,-2.352Z" style="fill:#825c36;"/><path d="M178.877,220.168c-2.782,0.752 -4.127,2.162 -4.243,-0.721c-0.037,-0.918 4.41,-3.448 4.243,0.721Z" style="fill:#d5b681;"/><path d="M106.045,316.963c0.215,-0.183 7.571,-6.424 3.529,-0.114c-1.189,1.856 -1.65,1.174 -3.529,0.114Z" style="fill:#c8c5d8;"/><path d="M139.886,215.057l0.732,-0.118c2.128,1.522 1.781,1.97 0.755,4.41c-0.475,0.175 -0.95,0.349 -1.425,0.524c-0.105,-0.458 -0.21,-0.916 -0.315,-1.374c0.344,-1.056 0.371,-0.971 0.26,-2.13c-0.002,-0.437 -0.004,-0.875 -0.006,-1.312Z" style="fill:#d77ba6;"/><path d="M108.15,111.439c2.509,-2.796 5.714,1.61 2.465,1.896c-0.758,0.067 -0.597,-0.257 -1.345,-0.58c-0.214,-0.229 0.05,-0.314 -0.199,-0.58c-0.064,-0.069 0,0 -0.921,-0.735Z" style="fill:#c4c7d1;"/><path d="M126.908,248.744c0.2,-1.207 -0.117,-1.819 1.038,-1.464c2.408,0.741 3.139,-0.864 4.495,1.354c-4.636,1.824 -5.328,0.503 -5.534,0.11Z" style="fill:#9cc7cf;"/><path d="M85.115,55.907c0.112,1.926 1.918,3.797 -2.601,4.158c0.979,-2.625 -0.269,-4.06 2.601,-4.158Z" style="fill:#c9c6da;"/><path d="M161.007,226.998c0.27,0.302 2.704,3.03 2.541,4.378c-0.054,0.449 -0.74,0.652 -0.794,1.102c-0.482,-0.153 -0.964,-0.306 -1.446,-0.459c-0.052,-0.379 -0.351,-2.559 -0.613,-4.745l0.312,-0.276Z" style="fill:#c8a46f;"/><path d="M259.15,232.609c-1.522,-2.441 -0.023,-3.04 2.796,-2.437c0.29,0.062 2.665,3.034 -2.796,2.437Z" style="fill:#d5b890;"/><path d="M315.557,178.344c5.698,-1.997 2.159,2.078 2.076,2.191l-0.764,0.026c-1.515,-0.244 -1.157,-0.685 -1.312,-2.217Z" style="fill:#c2cbd8;"/><path d="M174.854,313.801c-0.712,1.984 0.144,2.226 -1.265,3.826c-0.137,-0.339 -4.098,-10.164 0.861,-4.489c0.17,0.195 0.233,0.469 0.403,0.664Z" style="fill:#a8a6bf;"/><path d="M156.322,40.028c-1.531,0.704 -6.585,5.095 -5.681,1.589c0.856,-3.317 2.327,-1.014 5.681,-1.589Z" style="fill:#ccc4d7;"/><path d="M308.308,196.027c-0.309,0.921 -0.59,6.567 -1.726,2.298c-0.124,-0.465 -0.282,-3.661 0.406,-3.968c1.367,-0.609 1.316,0.143 1.32,1.67Z" style="fill:#c5cad0;"/><path d="M337.802,197.668c1.16,-3.231 1.28,-3.216 1.561,-3.18c4.175,0.534 -0.787,3.857 -1.065,4.043l-0.496,-0.863Z" style="fill:#bdbdc3;"/><path d="M132.78,129.695c0.55,-0.888 1.686,-2.378 1.839,-2.579c1.79,-2.348 2.135,1.965 -0.952,3.985c-0.296,-0.468 -0.592,-0.937 -0.887,-1.405Z" style="fill:#87603a;"/><path d="M140.578,122.614c1.785,-1.454 2.389,0.635 2.592,0.808c-0.026,0.041 -1.376,5.134 -2.699,0.725c0.036,-0.511 0.071,-1.022 0.107,-1.533Z" style="fill:#866244;"/><path d="M140.258,210.706l0.242,1.118c-0.957,2.471 -0.13,2.571 0.119,3.115l-0.732,0.118c-0.228,-0.212 -0.698,0.336 -0.926,0.124c-0.166,-0.155 -0.518,-3.672 -0.408,-4.05c0.306,-1.052 0.62,-0.606 1.705,-0.425Z" style="fill:#d77aa2;"/><path d="M108.938,148.69c1.865,1.269 1.019,1.67 1.569,3.926l-0.561,-0.119c-1.634,-0.351 -1.406,-0.582 -2.494,-1.883c0.879,-0.883 1.014,-0.661 1.486,-1.924Z" style="fill:#825129;"/><path d="M249.495,242.415l0.707,0.063c1.028,0.994 0.884,1.011 2.22,1.727c-0.967,0.532 -1.934,1.064 -2.902,1.596c-0.564,-0.415 -1.127,-0.831 -1.691,-1.246c0.925,-1.072 0.87,-0.982 1.665,-2.14Z" style="fill:#c7a173;"/><path d="M147.487,269.634c0.323,0.051 0.323,0.686 0.645,0.738c1.465,0.233 1.477,-0.444 2.813,0.135l0.484,0.585c-1.658,0.685 -1.787,1.667 -4.852,-0.096l0.91,-1.362Z" style="fill:#a3ccd1;"/><path d="M306.586,207.087c-0.032,-0.264 -0.573,-16.389 1.913,-2.712c0.18,0.988 -0.457,2.799 -0.539,3.031c-0.458,-0.106 -0.916,-0.212 -1.374,-0.318Z" style="fill:#cdc6df;"/><path d="M161.309,232.019c0.482,0.153 0.964,0.306 1.446,0.459c0.161,2.305 0.909,2.425 -0.369,4.17c-0.359,-1.543 -0.718,-3.086 -1.077,-4.629Z" style="fill:#d1a46c;"/><path d="M273.214,219.357c-0.373,0.778 -0.746,1.557 -1.119,2.335c-1.495,-0.796 -1.518,-0.749 -1.614,-0.86c-0.163,-0.188 -2.034,-4.402 2.733,-1.475Z" style="fill:#ddba88;"/><path d="M137.628,309.51c0.926,0.035 0.883,-0.006 1.74,0.435c-1.614,2.251 -1.539,2.306 -1.743,2.431c-4.733,2.925 -0.143,-2.689 0.002,-2.867Z" style="fill:#909ead;"/><path d="M163.038,73.689c3.603,-2.607 3.926,1.828 2.449,1.751c-0.795,-0.041 -0.72,-0.02 -1.494,-0.042c-0.318,-0.57 -0.637,-1.139 -0.955,-1.709Z" style="fill:#956a47;"/><path d="M316.869,180.561l0.764,-0.026c0.429,0.268 0.858,0.536 1.288,0.804c-0.452,0.402 0.34,0.615 -0.114,1.018c-0.251,0.223 -0.305,0.001 -4.201,0.02c0.38,-0.639 0.453,-0.535 2.263,-1.817Z" style="fill:#d1c3d6;"/><path d="M295.93,220.167c0.19,1.238 0.197,1.156 0.799,2.26c-0.716,1.318 -0.687,1.223 -1.502,2.506c-0.133,-0.263 -0.723,0.042 -0.857,-0.221c-0.572,-1.131 1.356,-4.218 1.559,-4.544Z" style="fill:#c5cccf;"/><path d="M119.595,113.624c0.337,0.487 0.674,0.975 1.01,1.462c-0.518,2.037 -0.574,1.936 -1.6,3.758c-0.265,-0.488 -0.529,-0.976 -0.794,-1.463c1.209,-2.834 1.324,-3.442 1.384,-3.756Z" style="fill:#836137;"/><path d="M228.897,93.474c1.327,-0.632 1.344,-0.831 2.675,-0.086c-0.08,0.203 -1.003,2.534 -1.003,2.534c-0.236,0.024 -0.612,0.062 -1.671,-2.447Z" style="fill:#80522f;"/><path d="M332.719,224.093c2.014,-3.076 1.794,-3.263 2.094,-3.362c1.946,-0.643 1.466,3.55 -2.094,3.362Z" style="fill:#cac7da;"/><path d="M88.17,302.773c2.698,-0.002 3.524,0.216 2.889,2.843c-0.454,1.876 -1.128,-0.268 -2.889,-2.843Z" style="fill:#c8c5d5;"/><path d="M159.992,305.041c0.55,-0.078 1.101,-0.156 1.651,-0.234c0.509,0.013 1.018,0.026 1.527,0.039c0.082,0.547 0.163,1.094 0.245,1.641c-1.064,0.003 -2.128,0.007 -3.193,0.01c-0.077,-0.485 -0.153,-0.97 -0.23,-1.455Z" style="fill:#637882;"/><path d="M171.926,304.203c0.574,0.487 1.147,0.975 1.721,1.462c-0.751,0.507 -1.502,1.014 -2.253,1.52c-0.241,-0.129 -0.524,0.421 -0.764,0.292c-2.101,-1.123 -0.439,-1.553 1.296,-3.275Z" style="fill:#717d88;"/><path d="M124.142,246.365c1.811,0.59 1.382,1.003 2.765,2.379c-0.363,0.687 -0.727,1.373 -1.09,2.06c-1.603,-1.934 -1.099,-2.081 -1.675,-4.439Z" style="fill:#a0c5cc;"/><path d="M230.07,119.12c1.756,1.361 1.587,1.735 0.513,3.65l-0.65,-0.2c-0.253,-0.728 -0.507,-1.457 -0.76,-2.185c0.798,-1.236 0.84,-1.155 0.898,-1.265Z" style="fill:#825a3e;"/><path d="M257.844,250.119c2,2.735 -2.828,2.104 -2.646,1.751c0.214,-0.413 0.824,-0.558 0.978,-0.997c0.092,-0.262 -0.437,-0.479 -0.368,-0.748c0.192,-0.748 0.667,-0.75 0.752,-0.75c0.873,-0.003 0.467,0.746 1.283,0.744Z" style="fill:#cac1d2;"/><path d="M124.886,161.656c1.82,-0.129 1.919,-0.132 2.927,1.48c-2.103,1.128 -3.089,0.904 -2.927,-1.48Z" style="fill:#71431b;"/><path d="M199.915,127.869c0.758,0.983 1.515,1.966 2.273,2.949c-1.542,0.973 -1.763,0.713 -2.838,-0.79c-0.197,-1.167 -0.038,-1.101 0.565,-2.16Z" style="fill:#d8c4a4;"/><path d="M152.546,98.629l-0.161,1.444c-0.211,0.481 -0.422,0.961 -0.633,1.442c-2.789,-0.256 -1.316,-4.134 0.794,-2.886Z" style="fill:#825f40;"/><path d="M200.863,82.994c-0.287,0.488 -0.575,0.976 -0.862,1.465c-0.002,-0.005 -1.385,-1.093 -1.432,-3.071c-0.101,-4.221 2.209,1.399 2.294,1.607Z" style="fill:#b59361;"/><path d="M122.692,157.152c1.253,-1.434 1.966,-1.887 2.67,-0.027c0.317,0.839 0.218,0.892 -0.68,1.287c-1.313,-0.141 -1.362,-0.143 -1.99,-1.261Z" style="fill:#86522b;"/><path d="M143.077,156.384c4.508,-3.556 2.045,1.772 1.952,1.973c-1.192,-0.315 -1.031,-0.402 -1.901,-1.2l-0.051,-0.774Z" style="fill:#925830;"/><path d="M240.051,114.316c3.201,3.881 0.648,4.152 0.346,4.033c-2.32,-0.917 -0.804,-1.644 -0.346,-4.033Z" style="fill:#cac9d9;"/><path d="M276.822,170.242c-0.058,-0.216 -0.752,-2.785 0.132,-2.788c1.518,-0.005 0.974,0.658 1.704,2.728l-1.119,0.496l-0.717,-0.435Z" style="fill:#da82a4;"/><path d="M119.744,264.403c1.729,-0.379 2.305,-0.945 2.608,0.722c0.132,0.728 -0.244,0.553 -0.533,1.207c-3.185,-0.126 -1.928,-1.587 -2.075,-1.928Z" style="fill:#b0c5d2;"/><path d="M212.423,90.456c-0.056,0.241 1.724,1.269 -0.548,2.338c-0.562,0.264 -1.662,-0.487 -1.405,-1.651c0.21,-0.952 0.544,-0.556 1.954,-0.687Z" style="fill:#e1ce8f;"/><path d="M283.922,137.652c-4.147,-3.256 -0.091,-3.275 0.128,-3.15c0.219,0.125 0.598,0.341 -0.128,3.15Z" style="fill:#c2cbd6;"/><path d="M247.852,242.177c0.547,0.079 1.095,0.158 1.642,0.238c-0.795,1.158 -0.741,1.068 -1.665,2.14l-0.731,0.055c-0.49,-1.358 -0.328,-1.41 0.754,-2.433Z" style="fill:#c6a47c;"/><path d="M295.67,239.111c0.654,0.697 0.452,0.78 0.946,2.764c-2.734,1.271 -2.647,-1.387 -0.946,-2.764Z" style="fill:#ccc1e6;"/><path d="M280.117,169.917c0.562,0.054 1.124,0.107 1.686,0.161c-1.429,2.678 -3.065,1.616 -3.307,1.459c0.741,-0.999 0.55,-1.107 1.621,-1.62Z" style="fill:#d383a4;"/><path d="M147.641,67.176c0.71,-2.08 0.328,-2.775 2.524,-2.758c2.82,0.022 -2.258,2.622 -2.524,2.758Z" style="fill:#875d38;"/><path d="M108.4,188.631c0.016,1.801 0.352,2.512 -1.525,2.41c-1.389,-0.076 -0.588,-0.689 -0.278,-2.416c0.601,0.002 1.202,0.004 1.803,0.006Z" style="fill:#e2ca9d;"/><path d="M210.776,123.743c-0.192,0.315 -0.384,0.63 -0.577,0.946l-0.513,0.668c-0.179,-0.078 -2.04,-0.888 -1.112,-2.172c0.903,-1.248 1.165,-0.496 2.201,0.559Z" style="fill:#b2b0b4;"/><path d="M94.807,47.477c0.04,0.118 0.504,1.477 0.504,1.477c-1.046,4.266 -1.947,0.31 -1.964,0.153c0.617,-0.998 0.626,-0.9 1.46,-1.63Z" style="fill:#cbc6da;"/><path d="M118.211,117.381c0.265,0.488 0.529,0.976 0.794,1.463c-0.842,1.469 -1.087,1.428 -2.531,0.728c0.579,-0.73 1.158,-1.461 1.737,-2.191Z" style="fill:#8a5f37;"/><path d="M246.848,71.705c-0.013,1.532 0.278,1.915 -1.151,2.127c-1.243,-1.531 -0.734,-2.334 1.151,-2.127Z" style="fill:#cac9dc;"/><path d="M176.173,122.723c-2.815,2.601 -2.291,-1.727 -1.05,-1.707c1.162,0.019 0.72,0.513 1.05,1.707Z" style="fill:#bcb8be;"/><path d="M123.433,167.518c1.864,2.107 -1.712,2.701 -1.68,0.848c0.02,-1.17 0.488,-0.705 1.68,-0.848Z" style="fill:#b0aeae;"/><path d="M267.242,166.028c-2.533,0.271 -2.286,-0.476 -2.178,-0.682c0.481,-0.914 4.69,-2.476 2.178,0.682Z" style="fill:#c6c3d4;"/><path d="M323.547,222.988c-2.656,2.443 -2.978,1.085 -3,0.837c-0.216,-2.367 2.775,-0.944 3,-0.837Z" style="fill:#c5c1d0;"/><path d="M147.34,247.309c2.499,-0.532 4.736,0.739 2.298,1.414c-1.523,0.422 -1.265,-0.24 -2.298,-1.414Z" style="fill:#a7d2d9;"/><path d="M150.569,205.033c0.128,0.501 0.256,1.002 0.385,1.503c-1.106,2.804 -1.923,0.32 -1.608,-0.044c0.1,-0.115 0.091,-0.108 1.223,-1.458Z" style="fill:#c9a46c;"/><path d="M175.232,52.374c2.679,-1.668 2.629,-1.695 2.829,-1.678c1.454,0.125 1.772,-1.175 1.776,-1.176c5.681,-0.703 -0.809,1.773 -0.964,1.832c-1.812,0.691 -1.832,0.38 -3.642,1.022Z" style="fill:#895f3c;"/><path d="M62.466,294.196c-1.05,2.15 -1.188,2.229 -1.376,2.336c-1.044,0.593 -0.382,-5.755 1.376,-2.336Z" style="fill:none;"/><path d="M51.898,261.377c1.5,-0.445 1.411,-0.533 1.5,-0.445c0.396,0.388 0.373,1.12 0.37,1.222c-0.175,5.588 -1.828,-0.62 -1.87,-0.776Z" style="fill:#cdcadd;"/><path d="M138.844,158.722c-0.175,1.249 -0.418,0.995 -1.419,1.712l-0.48,-0.381c-0.371,-1.747 0.291,-2.197 1.899,-1.33Z" style="fill:#825d46;"/><path d="M332.035,84.182c0.723,1.75 1.034,1.783 0.537,2.14c-0.982,0.705 -3.9,-3.291 -0.537,-2.14Z" style="fill:#cac6de;"/><path d="M143.127,157.158c0.871,0.798 0.709,0.885 1.901,1.2c0.216,0.597 0.433,1.194 0.649,1.791c-1.895,-0.759 -2.366,-0.351 -2.872,-2.298l0.322,-0.693Z" style="fill:#8d5f37;"/><path d="M148.118,61.19c0.175,-0.103 6.692,-3.965 2.352,0.954c-0.134,0.152 -0.426,0.483 -2.352,-0.954Z" style="fill:#8d5d38;"/><path d="M111.339,166.971c2.568,-1.023 3.08,-0.306 3.231,-0.096c0.15,0.21 0.224,2.037 -3.231,0.096Z" style="fill:#c4c2d2;"/><path d="M285.375,157.874c0.916,-1.166 1.185,-0.843 1.768,-2.251c0.648,-1.564 1.126,0.719 0.522,2.311c-0.763,-0.02 -1.527,-0.04 -2.29,-0.06Z" style="fill:#dd759e;"/><path d="M119.118,192.857c1.462,4.247 -1.538,1.86 -1.617,1.69c-0.267,-0.572 1.392,-1.552 1.617,-1.69Z" style="fill:#c4c8d4;"/><path d="M83.361,299.957c-2.108,-0.587 -1.998,-0.744 -2.18,-0.778c-1.079,-0.2 -0.633,-0.688 0.214,-1.285c0.874,-0.615 0.731,0.108 1.966,2.063Z" style="fill:#ccc9da;"/><path d="M104.647,179.657c-3.089,0.025 -1.692,-1.4 -1.529,-1.444c1.152,-0.305 2.318,-0.495 1.529,1.444Z" style="fill:#ccc8de;"/><path d="M122.98,101.588c0.167,3.814 0.165,3.741 0.229,7.488c-1.123,-3.312 -0.372,-6.638 -0.229,-7.488Z" style="fill:#865c33;"/><path d="M212.089,100.818c-0.75,0.912 -0.606,0.991 -1.704,1.513c-0.246,-0.238 -0.492,-0.477 -0.738,-0.715c1.122,-1.115 1.19,-1.649 2.443,-0.798Z" style="fill:#d3c091;"/><path d="M295.93,220.167c1.048,-0.646 3.139,0.036 0.799,2.26c-0.266,-0.753 -0.533,-1.506 -0.799,-2.26Z" style="fill:#ccc9cd;"/><path d="M140.258,210.706c2.297,-0.547 3.308,-0.158 2.401,1.972c-0.073,0.171 0.139,-0.806 -2.159,-0.855l-0.242,-1.118Z" style="fill:#e172a8;"/><path d="M230.691,318.338c-0.714,-1.027 -0.642,-1.566 0.684,-1.474c2.435,0.169 -0.564,1.424 -0.684,1.474Z" style="fill:#a3cad1;"/><path d="M241.855,309.447l0.748,0.707c-0.002,0.482 -0.004,0.964 -0.007,1.447c-2.209,-0.209 -1.225,-1.16 -0.741,-2.153Z" style="fill:#6f7f8a;"/><path d="M35.501,142.273c-0.858,-1.54 -1.738,-2.202 0.042,-2.605c0.638,-0.144 0.742,0.889 0.751,0.987c0.098,0.976 -0.365,0.745 -0.794,1.617Z" style="fill:#cec9dd;"/><path d="M159.788,115.145c1.197,3.878 -1.019,2.776 -1.396,2.913c0.639,-1.566 0.559,-1.477 1.396,-2.913Z" style="fill:#ceb280;"/><path d="M139.893,216.369c0.112,1.159 0.085,1.074 -0.26,2.13l-0.575,-0.026c-0.684,-1.4 -0.667,-1.78 0.835,-2.104Z" style="fill:#f56aac;"/><path d="M148.727,134.596c0.636,-2.177 -1.562,-3.589 0.722,-3.589c1.144,0 0.846,0.477 0.465,1.538c-0.407,1.132 -0.515,0.962 -1.187,2.051Z" style="fill:#c09768;"/><path d="M317.823,206.028c1.101,1.13 1.374,1.815 -0.166,2.081c-0.044,-0.519 -0.089,-1.038 -0.133,-1.557l0.299,-0.524Z" style="fill:#ebc185;"/><path d="M160.207,274.452c1.273,-0.114 1.34,-0.031 1.825,1.168c-1.337,0.004 -1.936,0.343 -1.825,-1.168Z" style="fill:#81a3aa;"/><path d="M133.036,225.686c0.071,-0.128 5.47,-7.26 1.797,-0.359c-0.385,0.724 -0.67,0.781 -0.756,0.798c-0.676,0.135 -0.418,-0.564 -1.041,-0.439Z" style="fill:#e070a2;"/><path d="M199.915,98.346c-0.796,-5.596 1.57,0.142 1.601,0.268l-1.601,-0.268Z" style="fill:#dcc8a4;"/><path d="M333.788,188.68c1.736,-0.138 4.313,1.141 1.837,1.251c-1.957,0.087 -1.557,-1.06 -1.837,-1.251Z" style="fill:#c8c7d8;"/><path d="M150.633,109.996c1.075,0.486 1.811,0.305 1.173,1.379c-1.201,2.024 -1.175,-1.234 -1.173,-1.379Z" style="fill:#8f5c35;"/><path d="M151.854,164.114c0.468,0.194 0.328,0.277 0.781,0.464c0.109,0.045 -0,-0 1.39,0.482l-0.69,0.174c-0.727,-0.008 -1.453,-0.016 -2.18,-0.024l-0.781,-0.516l1.48,-0.58Z" style="fill:#825e3b;"/><path d="M252.33,158.671c-0.993,-1.451 -1.641,-2.286 0.185,-2.439c0.195,-0.016 1.169,0.041 -0.185,2.439Z" style="fill:#cbc9dd;"/><path d="M246.108,125.53c-1.321,-3.213 -0.734,-3.316 -0.466,-3.363c1.371,-0.241 0.503,2.998 0.466,3.363Z" style="fill:#cbc6d0;"/><path d="M106.763,134.581c0.094,-3.882 2.028,-2.689 1.921,-2.282c-0.06,0.231 -0.722,-0.316 -1.921,2.282Z" style="fill:#bc8f65;"/><path d="M325.234,212.505c1.812,1.336 0.149,1.387 -0.816,1.952c0.272,-0.651 0.544,-1.301 0.816,-1.952Z" style="fill:#f1c57f;"/><path d="M123.28,247.906c0.059,0.276 0.254,0.511 0.314,0.787c0.119,0.552 0.062,0.823 0.047,0.893c-0.202,0.968 -0.614,0.311 -1.005,0.509c0.215,-0.73 0.429,-1.46 0.644,-2.189Z" style="fill:#9bcad0;"/><path d="M245.516,142.164c1.267,-0.632 1.33,-2.266 1.876,-0.935c0.241,0.587 -0.757,1.245 -0.516,1.833l0.29,0.539c-0.908,-0.703 -0.831,-0.638 -1.649,-1.437Z" style="fill:#c49766;"/><path d="M178.696,126.27c-0.199,-0.02 -7.069,-0.718 -2.078,-1.395c0.917,-0.124 0.725,0.17 2.078,1.395Z" style="fill:#0f0e09;"/><path d="M187.041,106.066c-0.633,1.016 -0.805,2.147 -0.835,2.344c-0.127,-0.193 -1.833,-2.784 0.169,-2.887c0.286,-0.015 0.38,0.558 0.666,0.543Z" style="fill:#e1cba1;"/><path d="M338.691,218.277c-3.307,-2.392 -0.346,-2.534 -0.143,-2.543c0.204,-0.01 -0.302,0.215 0.143,2.543Z" style="fill:#ccc3d6;"/><path d="M156.894,68.934c0.101,1.596 0.166,1.598 0.109,1.724c-0.255,0.556 -3.295,-1.568 -0.109,-1.724Z" style="fill:#8c603d;"/><path d="M269.038,223.513c-0.074,0.561 -0.148,1.121 -0.222,1.682c-0.227,-0.093 -0.415,0.451 -0.642,0.359c-1.528,-0.623 -0.511,-1.106 0.865,-2.041Z" style="fill:#dcbd90;"/><path d="M283.202,214.89c-0.022,-0.219 -0.257,-2.582 -0.077,-2.745c8.402,-7.609 0.222,2.58 0.077,2.745Z" style="fill:#cdc9da;"/><path d="M108.4,188.631c-0.601,-0.002 -1.202,-0.004 -1.803,-0.006c0.158,-0.12 1.971,-1.5 1.971,-1.5c0.099,0.071 -0,0 -0.167,1.506Z" style="fill:#dbc498;"/><path d="M138.951,79.111c-0.122,-0.071 -3.764,-2.209 -0.541,-1.678c0.139,0.023 0.04,0.124 0.541,1.678Z" style="fill:#b7885f;"/><path d="M265.581,32.06c2.041,-1.817 2.134,-0.496 2.146,-0.322c0.088,1.247 -0.504,0.729 -1.768,0.691l-0.378,-0.368Z" style="fill:#cbc8db;"/><path d="M145.244,272.061c-0.185,-0.016 -2.31,-0.204 -2.31,-0.204c-0.199,-0.161 0.433,-0.571 0.234,-0.733c0.258,-0.012 -0.063,-0.738 0.195,-0.75c0,0 1.731,1.552 1.881,1.686Z" style="fill:#a2cdd4;"/><path d="M338.497,96.297c0.798,-0.467 0.855,-0.839 1.134,-0.278c0.31,0.623 -0.645,2.375 -1.134,0.278Z" style="fill:#cdcadb;"/><path d="M115.049,181.011c1.915,-0.481 1.964,-0.166 1.91,-0.023c-0.605,1.6 -0.965,1.261 -2.573,0.901l0.663,-0.878Z" style="fill:#dbc4a9;"/><path d="M287.665,157.934c0.597,-0.299 0.509,-0.244 1.039,-0.521c2.317,-1.211 0.365,1.782 -0.329,1.467c-0.359,-0.163 -0.351,-0.784 -0.71,-0.947Z" style="fill:#df7aa3;"/><path d="M124.347,313.125c-0.068,-0.114 -0.853,-1.423 -0.853,-1.423c1.808,-2.421 0.885,1.294 0.853,1.423Z" style="fill:#c2bfd2;"/><path d="M164.31,38.574c2.835,-1.389 1.969,0.683 1.858,0.801c0,0 -1.709,-0.737 -1.858,-0.801Z" style="fill:#c9c4d8;"/><path d="M247.251,163.718c0.054,-0.117 2.053,-4.426 1.487,-0.62c-0.154,1.038 -0.469,0.627 -1.487,0.62Z" style="fill:#c4c1d2;"/><path d="M208.988,63.368c-1.739,0.803 -1.797,1.012 -1.871,0.864c-1.726,-3.454 1.737,-0.961 1.871,-0.864Z" style="fill:#856130;"/><path d="M160.014,308.25c1.297,-0.037 1.187,0.043 2.419,0.393c-0.674,0.337 -1.349,0.673 -2.023,1.01c-0.031,-0.781 0.239,-0.847 -0.396,-1.403Z" style="fill:#81746d;"/><path d="M321.96,283.911c-0.023,0.136 -0.458,2.684 -1.587,0.66c-0.609,-1.091 0.417,-0.471 1.587,-0.66Z" style="fill:#cdc9d8;"/><path d="M153.331,146.688l0.145,1.161c-0.128,-0.114 -1.601,-1.43 -1.601,-1.43c0.011,-1.076 0.454,0.084 1.456,0.27Z" style="fill:#d3a77a;"/><path d="M130.068,343.415c0.542,1.014 0.602,0.945 0.542,1.014c-0.318,0.372 -2.962,0.046 -0.542,-1.014Z" style="fill:none;"/><path d="M119.556,326.623c-0.727,-0.129 -1.454,-0.257 -2.181,-0.386c1.235,-0.343 1.344,-0.639 2.181,0.386Z" style="fill:#9d98ae;"/><path d="M134.44,343.124c1.073,0.475 1.853,0.675 0.829,1.264c-0.989,0.569 -0.698,-0.205 -0.829,-1.264Z" style="fill:none;"/><path d="M155.632,211.834c-1.038,-1.606 -0.648,-1.862 -0.513,-1.951c0.135,-0.089 2.341,-0.694 0.513,1.951Z" style="fill:#cca070;"/><path d="M292.722,181.654c1.972,0.051 2.178,-0.114 2.114,0.235c-0.295,1.611 -1.032,0.978 -2.114,-0.235Z" style="fill:#c2c5d6;"/><path d="M163.169,97.945c0.138,-0.147 1.536,-1.626 2.405,-0.754c1.31,1.315 -0.675,0.211 -2.405,0.754Z" style="fill:#7f5732;"/><path d="M110.606,185.587c-0.004,0.116 1.696,0.681 -0.051,1.627c-0.969,0.524 -0.005,-1.509 0.051,-1.627Z" style="fill:#e2c9aa;"/><path d="M233.562,129.422c-1.271,-3.072 0.917,-1.662 1.037,-1.571c1.016,0.777 -0.37,0.561 -1.037,1.571Z" style="fill:#825734;"/><path d="M299.623,319.125c-1.009,0.73 -1.674,-0.326 -0.658,-0.861c0.077,-0.04 0,-0 0.658,0.861Z" style="fill:none;"/><path d="M151.155,165.21c0.727,0.008 1.453,0.016 2.18,0.024c-1.176,0.752 -1.356,1.051 -2.18,-0.024Z" style="fill:#7d5834;"/><path d="M145.681,300.342c1.573,1.527 1.744,1.463 1.694,1.645c-0.502,1.825 -1.633,-1.466 -1.694,-1.645Z" style="fill:#c1bfd5;"/><path d="M139.058,218.473l0.575,0.026c0.105,0.458 0.21,0.916 0.315,1.374l-0.826,0.227c-0.021,-0.542 -0.043,-1.084 -0.064,-1.627Z" style="fill:#e075a5;"/><path d="M228.934,118.077l1.136,1.043c-0.058,0.11 -0.1,0.028 -0.898,1.265c-0.079,-0.769 -0.159,-1.539 -0.238,-2.308Z" style="fill:#7d5633;"/><path d="M244.861,68.493c-1.651,0.893 -1.651,1.062 -1.777,0.961c-0.497,-0.4 0.71,-1.809 1.777,-0.961Z" style="fill:#ccc7d7;"/><path d="M190.162,60.397c-0.137,-0.135 -2.335,-2.311 -0.676,-2.309c0.153,0 0.934,1.577 1.005,1.719c0.1,0.202 -0.429,0.388 -0.329,0.589Z" style="fill:#885e3c;"/><path d="M142.921,246.252c1.161,-0.923 1.821,-2.136 1.857,-0.627c0.014,0.585 -1.701,0.624 -1.857,0.627Z" style="fill:#a9d1d9;"/><path d="M278.659,170.182l0.749,-0.147l0.709,-0.118c-1.071,0.513 -0.88,0.621 -1.621,1.62c-0.319,-0.286 -0.638,-0.573 -0.956,-0.859l1.119,-0.496Z" style="fill:#d782a4;"/><path d="M211.129,58.872c0.492,0.33 0.984,0.659 1.476,0.989c-1.229,0.279 -1.44,0.186 -1.476,-0.989Z" style="fill:#89603d;"/><path d="M289.1,172.968c-0.358,0.165 -0.367,0.769 -0.725,0.934c-0.305,0.141 -1.021,-0.812 -0.75,-1.151c0.074,-0.093 -0,-0 1.475,0.217Z" style="fill:#c96283;"/><path d="M176.719,133.091l0.377,0.251c0.008,1.151 0.689,1.964 -0.471,1.628c-0.316,-0.092 -0.384,-0.604 -0.701,-0.696c0.265,-0.394 0.53,-0.789 0.795,-1.183Z" style="fill:#bfb4a2;"/><path d="M319.944,213.278c-0.097,-0.052 -1.212,-0.653 -1.212,-0.653c-0.012,-1.163 0.579,-0.36 1.212,0.653Z" style="fill:#e5d282;"/><path d="M134.54,318.073c1.478,-1.361 1.672,-0.628 1.618,-0.504c-0.598,1.382 -1.552,0.483 -1.618,0.504Z" style="fill:#a6c8cf;"/><path d="M289.084,169.322c0.331,0.159 0.338,-0.082 0.695,0.089c0.063,0.03 0,-0 0.687,0.545c-0.169,0.45 0.531,0.205 0.366,0.644c-0.54,1.439 -0.509,-0.372 -1.749,-1.278Z" style="fill:#e07ea3;"/><path d="M138.383,177.352c-2.75,0.87 -2.69,0.916 -2.931,0.969c1.442,-0.645 1.322,-0.769 2.931,-0.969Z" style="fill:#c89e6e;"/><path d="M121.751,148.135c-0.34,-1.252 -1.052,-1.487 0.11,-2.206l0.826,-0.136c-0.025,0.2 -0.069,0.173 -0.936,2.342Z" style="fill:#8b5c33;"/><path d="M109.946,152.497l0.561,0.119c-0.055,0.55 -0.11,1.101 -0.166,1.651c-0.851,-0.751 -0.404,-0.843 -0.396,-1.77Z" style="fill:#794c26;"/><path d="M229.933,122.571l0.65,0.2c0.222,0.358 0.887,0.247 1.11,0.605c2.171,3.493 -1.656,-0.69 -1.76,-0.804Z" style="fill:#835933;"/><path d="M295.93,220.167c0.266,0.753 0.533,1.506 0.799,2.26c-0.602,-1.104 -0.61,-1.022 -0.799,-2.26Z" style="fill:#c8cccf;"/><path d="M138.981,332.501c-0.621,-1.838 0.969,-1.062 0.897,-0.623c-0.059,0.359 -0.838,0.264 -0.897,0.623Z" style="fill:#a7a3bb;"/><path d="M204.971,124.124c0.01,0.076 0.566,4.681 -0.607,0.748c-0.022,-0.074 0,0 0.607,-0.748Z" style="fill:#050604;"/><path d="M208.866,64.876c-0.039,1.001 -0.078,2.001 -0.117,3.002c-0.199,-1.508 -0.268,-1.431 0.117,-3.002Z" style="fill:#865d34;"/><path d="M233.746,154.948l-0.07,0.718c-0.244,0.239 -0.487,0.478 -0.731,0.717c0.267,-0.478 0.534,-0.957 0.802,-1.435Z" style="fill:#7d5535;"/><path d="M223.9,80.939c0.595,0.818 1.829,0.929 0.772,1.062c-0.123,0.015 0,-0 -1.485,-0.439l0.713,-0.624Z" style="fill:#b6875d;"/><path d="M154.874,164.62c1.111,-0.634 1.119,-0.446 2.269,-0.111c-1.206,-0.053 -1.109,-0.041 -2.269,0.111Z" style="fill:#8e5b34;"/><path d="M257.625,194.883c-1.597,-0.239 -1.624,-0.161 -1.725,-0.258c-2.835,-2.73 1.608,0.182 1.725,0.258Z" style="fill:#f7f2d8;"/><path d="M113.479,149.056l0.122,1.348l-1.117,-0.49c0.332,-0.286 0.663,-0.572 0.995,-0.859Z" style="fill:#75502c;"/><path d="M136.835,269.882c1.032,-0.763 1.332,-2.384 1.362,-1.007c0.007,0.322 -0.29,0.604 -0.549,0.795c-0.225,0.167 -0.588,0.045 -0.813,0.212Z" style="fill:#98bec9;"/><path d="M103.445,142.167l0.31,0.692l0.02,1.48c-0.38,-1.399 -0.544,-1.283 -0.33,-2.172Z" style="fill:#916b47;"/><path d="M233.746,154.948c2.223,-1.386 0.039,0.604 -0.07,0.718l0.07,-0.718Z" style="fill:#7e5632;"/><path d="M131.07,233.329l2.075,0.357c-1.131,0.316 -1.088,0.205 -2.075,-0.357Z" style="fill:#88264d;"/><path d="M228.794,113.625c0.035,-0.12 0.442,-1.5 0.442,-1.5c1.195,-0.404 -0.108,0.368 -0.442,1.5Z" style="fill:#7d5530;"/><path d="M317.524,206.552c0.044,0.519 0.089,1.038 0.133,1.557l0.266,0.534c-0.767,-0.915 -0.713,-0.939 -0.399,-2.091Z" style="fill:#e9c67d;"/><path d="M136.193,175.719l0.644,0.248c0.464,0.322 0.928,0.644 1.392,0.965c-1.187,-0.41 -1.069,-0.479 -2.035,-1.213Z" style="fill:#c2966c;"/><path d="M169.152,132.986c0.544,-0.058 1.089,-0.116 1.633,-0.174c-0.823,0.465 -0.821,0.819 -1.633,0.174Z" style="fill:#e0ca9b;"/><path d="M246.876,143.062c0.286,0.444 0.572,0.888 0.858,1.333l-0.569,-0.794l-0.29,-0.539Z" style="fill:#bc9566;"/><path d="M145.111,332.536c-0.182,-0.006 -4.161,-0.147 -2.222,-0.504c0,0 2.044,0.464 2.222,0.504Z" style="fill:#a6a2ba;"/><path d="M161.076,223.889c0.053,-0.189 0.658,-2.359 0.658,-2.359c0.195,-0.022 -0.042,0.167 -0.658,2.359Z" style="fill:#bf9367;"/><path d="M145.125,296.118c0.511,-0.699 0.103,-1.671 0.75,-1.026c0,0 -0.69,0.944 -0.75,1.026Z" style="fill:#c4c5d9;"/><path d="M122.147,152.552c0.444,1.109 0.262,1.064 0.247,2.315c-0.082,-0.772 -0.165,-1.544 -0.247,-2.315Z" style="fill:#895c37;"/><path d="M292.878,159.341c-0.102,0.003 -1.278,0.034 -1.278,0.034c-1.419,-1.316 1.185,-0.078 1.278,-0.034Z" style="fill:#d6739c;"/><path d="M232.796,157.872c0.589,0.607 1.603,0.357 0.864,0.891c-0.061,0.044 -0.482,0.348 -0.93,-0.114c-0.181,-0.187 0.247,-0.59 0.066,-0.777Z" style="fill:#765132;"/><path d="M122.681,98.606c0.442,1.127 0.581,1.076 0.3,2.238c-0.1,-0.746 -0.2,-1.492 -0.3,-2.238Z" style="fill:#845c33;"/><path d="M128.658,304.45c0.13,-0.006 2.908,-0.132 1.569,0.425c-0.12,0.05 0,0 -1.569,-0.425Z" style="fill:#c7c5d6;"/><path d="M125.567,78.432c0.033,0.75 0.775,0.314 0.808,1.057c0.003,0.067 0.063,1.429 -0.745,0.372c-0.29,-0.379 0.226,-1.05 -0.063,-1.429Z" style="fill:#b38862;"/><path d="M135.375,148.605c0.497,0.682 1.529,0.537 0.743,1.02c-0.53,0.325 -0.708,0.081 -0.743,0.032c-0.352,-0.483 0.386,-0.522 -0,-1.052Z" style="fill:#b18a64;"/><path d="M155.764,142.545c0.084,0.085 1.05,1.057 1.05,1.057c-0.348,1.041 -0.279,-0.281 -1.05,-1.057Z" style="fill:#cbaa7b;"/><path d="M147.126,267.375c-0.51,-0.75 -0.556,-0.694 -0.51,-0.75c0.421,-0.519 0.138,0.204 0.51,0.75Z" style="fill:#a4cbce;"/><path d="M318.407,209.931c-1.188,0.447 -1.998,1.817 -1.532,0.576c0,0 1.41,-0.53 1.532,-0.576Z" style="fill:#e9cf86;"/><path d="M153.331,146.688c0.742,1.498 0.891,1.504 0.802,1.617c-0.165,0.21 -0.492,-0.667 -0.657,-0.457l-0.145,-1.161Z" style="fill:#d0a578;"/><path d="M103.864,140.619l-0.109,2.24l-0.31,-0.692c0.14,-0.516 0.279,-1.032 0.419,-1.549Z" style="fill:#926b48;"/><path d="M191.829,152.032c0.831,-0.648 1.096,-1.959 1.081,-0.843c0,0 -0.994,0.776 -1.081,0.843Z" style="fill:#7a4855;"/><path d="M116.08,216.259c0.194,0.824 0.308,0.739 0.005,1.606l-0.005,-1.606Z" style="fill:#c7c4d9;"/><path d="M152.003,209.729l-0.188,0.544c-0.298,-0.277 -0.349,0.306 -0.69,-0.011c-0.558,-0.519 0.24,-0.146 0.878,-0.533Z" style="fill:#cda174;"/><path d="M192.356,74.707c0.225,0.478 0.449,0.956 0.674,1.435c-0.225,-0.478 -0.449,-0.956 -0.674,-1.435Z" style="fill:#684d38;"/><path d="M224.525,71.765c0.606,0.183 1.213,0.366 1.819,0.548c-0.606,-0.183 -1.213,-0.366 -1.819,-0.548Z" style="fill:#8f6240;"/><path d="M190.219,52.27c0.392,-0.06 0.785,-0.119 1.177,-0.179c-0.168,0.182 0.177,0.56 0.009,0.741c-0,-0 -1.091,-0.517 -1.186,-0.562Z" style="fill:#5e4230;"/><path d="M161.643,304.807c0.785,-0.306 0.812,-0.543 1.527,0.039c-0.509,-0.013 -1.018,-0.026 -1.527,-0.039Z" style="fill:#465758;"/><path d="M204.904,88.871c-0.021,0.873 0.083,0.846 -0.546,1.479l0.546,-1.479Z" style="fill:#d7be91;"/><path d="M114.32,171.445c0.564,0.309 1.205,-0.097 0.805,0.44c-0,0 -0.74,-0.405 -0.805,-0.44Z" style="fill:#c5c3d2;"/><path d="M176.926,45.184c0.461,0.775 1.44,1.287 0.56,0.941c-0.585,-0.23 0.022,-0.713 -0.56,-0.941Z" style="fill:#31241d;"/><path d="M117.873,134.621l0.654,0.97c-0.218,-0.323 -0.436,-0.647 -0.654,-0.97Z" style="fill:#ad8760;"/><path d="M53.147,94.939c-0.309,0.484 -0.618,0.968 -0.927,1.452c0.309,-0.484 0.618,-0.968 0.927,-1.452Z" style="fill:#c8c5d8;"/><path d="M242.602,310.153c0.42,0.741 0.384,0.704 -0.007,1.447c0.002,-0.482 0.004,-0.964 0.007,-1.447Z" style="fill:#576975;"/><path d="M116.706,70.099l0.667,0.101c-0.334,0.353 -0.343,0.171 -0.667,-0.101Z" style="fill:#cac6d5;"/><path d="M234.545,72.622c0.846,-0.875 1.415,-1.879 0.963,-0.997c-0.346,0.676 -0.647,0.38 -0.963,0.997Z" style="fill:#c09971;"/><path d="M230.536,85.238l-0.194,0.781l-0.129,-0.404l0.322,-0.377Z" style="fill:#8d6341;"/></g></svg>