<?xml version="1.0" encoding="UTF-8" standalone="no"?><!DOCTYPE svg PUBLIC "-//W3C//DTD SVG 1.1//EN" "http://www.w3.org/Graphics/SVG/1.1/DTD/svg11.dtd"><svg width="100%" height="100%" viewBox="0 0 355 353" version="1.1" xmlns="http://www.w3.org/2000/svg" xmlns:xlink="http://www.w3.org/1999/xlink" xml:space="preserve" xmlns:serif="http://www.serif.com/" style="fill-rule:evenodd;clip-rule:evenodd;stroke-linejoin:round;stroke-miterlimit:2;"><g><path d="M6.639,209.58c-0.724,-3.472 -0.726,-3.448 -0.782,-3.75c-8.512,-45.416 6.397,-85.178 10.875,-95.271c64.18,-144.685 257.439,-137.037 315.336,-4.517c51.007,116.749 -35.779,252.768 -173.464,241.073c-81.661,-6.937 -139.901,-72.82 -151.965,-137.535Z" style="fill:#252a26;fill-opacity:1;"/><path d="M316.779,193.881c-0.395,-3.527 -0.367,-3.508 -0.426,-3.809c-0.894,-4.534 -15.64,0.635 -16.362,-2.975c-0.714,-3.574 5.418,-1.898 6.971,-2.583c1.908,-0.841 1.699,-19.415 -0.013,-20.305c-1.9,-0.988 -40.857,-0.436 -41.823,-0.388c-0.27,0.013 -2.532,0.126 -2.994,1.555c-0.463,1.432 -0.268,17.791 -0.241,18.032c0.311,2.805 6.244,0.325 6.811,2.287c1.072,3.709 -6.081,2.583 -14.066,2.649c-2.911,0.024 -2.474,2.375 -2.313,5.531c0.171,3.362 2.885,2.716 3.637,3.243c1.378,0.965 0.954,33.585 0.916,36.506c-0.035,2.729 -0.993,2.355 -3.75,2.498c-2.709,0.141 -2.109,4.062 -2.112,4.255c-0.102,5.627 2.479,4.066 8.109,4.085c24.906,0.081 24.845,0.024 27.006,0.035c6.195,0.031 0.901,5.174 4.591,8.522c3.185,2.89 32.859,0.107 33.482,1.659c0.457,1.138 -16.856,37.277 -55.521,62.663c-60.864,39.961 -126.09,30.569 -164.793,12.261c-67.937,-32.137 -110.837,-107.66 -94.126,-186.801c19.414,-91.941 111.768,-156.291 210.445,-129.998c76.118,20.282 122.244,89.869 123.736,157.067c0.905,40.761 -9.308,62.881 -14.178,75.063c-5.14,12.859 -0.564,-15.017 -4.144,-18.58c-2.409,-2.398 -1.314,-2.872 -1.733,-9.977c-0.254,-4.306 -0.203,-4.734 7.006,-11.5c6.337,-5.948 -5.31,-17.5 -13.092,-5.629c-4.391,6.699 -5.287,-0.13 -4.829,-1.679c0.664,-2.25 3.672,-0.138 3.809,-3.689Z" style="fill:#c5d4ad;"/><path d="M219.388,89.596c0.45,0.228 12.979,5.124 12.779,12.781c-0.396,15.145 -35.211,-0.852 -36.661,0.179c-1.263,0.898 3.073,2.414 -5.065,18.694c-0.829,1.658 0.063,1.77 1.938,1.756c4.989,-0.039 9.424,-0.338 9.459,1.888c0.153,9.706 0.178,10.662 -2.736,11.088c-2.927,0.427 -0.109,4.867 -3.716,4.972c-3.798,0.11 -0.732,5.04 -4.509,4.866c-7.665,-0.352 -12.89,-1.139 -13.773,1.444c-5.221,15.287 -8.846,26.573 3.428,38.202c9.366,8.875 23.029,4.175 23.59,0.127c0.533,-3.844 0.706,-3.808 2.901,-6.957c0.363,-0.52 -2.755,-9.824 3.324,-13.314c2.069,-1.188 4.413,0.177 5.03,-1.571c2.222,-6.295 3.036,-12.643 8.495,-12.908c20.462,-0.996 21.433,1.856 20.757,5.469c-0.675,3.614 -5.363,13.227 -4.249,15.059c3.276,5.387 0.739,5.748 0.101,12.015c-0.419,4.122 -2.331,3.386 -3.31,7.439c-1.225,5.072 -5.213,3.116 -8.251,7.386c-1.237,1.739 -1.748,0.931 -15.575,2.921c-4.928,0.709 -5.106,-1.515 -9.71,0.266c-10.691,4.137 -19.544,-0.663 -21.026,-1.467c-0.282,-0.123 -0.508,-0.355 -0.79,-0.477c-0.862,-0.374 -0.629,0.224 -0.55,1.127c15.975,16.823 19.931,9.915 31.385,15.74c18.829,9.575 14.344,34.43 -4.995,49.91c-4.091,3.275 4.487,4.877 2.556,21.377c-0.309,2.643 -0.145,3.011 2.408,3.772c3.379,1.007 0.327,4.604 3.787,5.035c0,0 2.083,0.557 2.264,0.605c10.436,1.969 14.704,8.997 15.475,10.267c6.999,15.745 -9.906,13.702 -20.779,13.439c-2.779,-0.067 -21.444,-1.254 -23.72,-4.749c-1.917,-2.943 1.089,-14.391 1.263,-16.347c0.161,-5.221 0.208,-6.155 5.325,-7.249c3.104,-0.663 2.849,-20.153 -3.198,-17.752c-32.407,12.868 -51.578,-1.562 -52.277,3.289c-2.046,14.194 -11.101,12.281 -12.243,15.669c-1.409,4.179 -1.91,4.362 -0.112,8.418c2.948,5.717 8.076,5.263 7.505,12.623c-0.379,4.887 -0.616,9.311 -18.525,8.095c-9.793,-0.665 -12.808,-9.744 -14.767,-14.879c-5.002,-18.939 -3.248,-21.072 3.28,-25.062c3.236,-1.978 11.149,-5.197 13.674,-4.656c3.862,0.828 4.062,5.573 7.345,1.814c2.495,-2.856 2.615,-8.485 0.289,-9.709c-3.883,-2.044 -15.457,-6.943 -28.172,-19.769c-42.984,-43.36 -35.724,-115.376 -6.769,-152.893c3.694,-4.786 2.857,-5.153 3.059,-8.701c0.641,-11.236 2.692,-37.596 38.634,-46.125c2.313,-0.549 7.1,-1.087 7.484,-1.811c0.301,-0.569 0.714,-4.341 6.694,-3.973c3.52,0.217 4.343,3.675 6.007,3.796c4.078,0.296 15.368,0.025 27.605,7.8c16.729,10.629 14.724,32.437 15.815,33.618c1.472,1.593 5.147,0.231 21.821,7.422Z" style="fill:#24231f;"/><path d="M103.173,94.635c22.918,3.751 25.74,-0.139 33.634,3.403c25.278,11.344 26.43,6.135 43.598,-0.078c3.687,-1.334 3.601,-1.385 7.483,-2.285c-0.002,0.247 -0.237,0.454 -0.239,0.7c-0.009,1.116 0.769,0.655 0.822,0.75c0.207,0.372 -0.011,0.386 0.877,5.245c-1.4,1.044 -1.591,0.637 -20.922,6.219c-9.507,2.746 -12.942,1.781 -22.461,-1.222c-5.997,-1.892 -6.267,-5.369 -15.128,-6.048c-19.1,-1.462 -20.005,-2.378 -22.369,1.128c-6.981,10.358 -5.722,11.034 -8.994,16.459c-0.918,1.522 -0.49,1.584 -0.115,3.275c-9.55,-0.04 -10.34,-1.092 -13.856,3.13c-0.908,1.09 -2.893,1.747 -3.084,3.365c-0.616,5.21 3.101,5.796 5.781,2.247c3.553,-4.706 4.758,-4.246 16.433,-3.945c4.745,0.122 -1.426,8.546 4.487,9.18c2.939,0.315 0.204,4.427 2.991,4.574c2.581,0.136 3.115,0.29 3.084,2.892c-0.038,3.255 1.954,1.625 24.681,1.936c4.132,0.056 2.902,-1.815 4.012,-4.06c0.715,-1.447 3.475,-0.058 3.597,-2.364c0.113,-2.127 0.163,-2.25 2.052,-3.255c2.231,-1.186 0.638,-4.828 3.09,-4.986c5.5,-0.355 7.103,-0.051 7.021,2.23c-0.092,2.534 0.381,2.582 2.685,3.187c2.382,0.625 -0.197,4.811 3.045,4.942c3.286,0.134 1.218,2.184 2.409,3.763c0.556,0.738 6.629,0.198 6.776,1.551c0.176,1.63 -15.121,32.242 7.437,58.442c14.497,16.837 34.51,5.433 39.653,26.358c1.02,4.15 0.994,14.296 -7.416,24.862c-27.866,32.472 -72.75,18.746 -73.51,16.333c-0.623,-1.979 -1.71,-9.479 -6.323,-15.434c-0.494,-0.638 -0.61,-0.646 -0.685,-0.652c-0.653,-0.045 -0.419,0.575 -1.08,0.529c0.075,2.436 10.843,17.21 3.166,28.121c-4.076,5.793 -9.311,5.001 -10.206,4.866c-3.589,-0.543 -7.622,-0.196 -7.284,-3.779c0.074,-0.79 0.22,-0.936 4.268,-1.751c1.134,-0.278 9.989,-2.447 8.514,-11.858c-2.009,-12.818 -8.603,-17.62 -7.166,-12.679c0.03,0.104 4.953,8.351 1.661,6.843c-23.841,-10.924 -69.269,-52.653 -49.473,-129.894c5.612,-21.898 19.443,-42.507 23.258,-42.678c0.305,-0.014 0.281,0.032 3.793,0.438Z" style="fill:#d8bb8f;"/><path d="M190.913,299.629c-0.174,1.955 -3.179,13.404 -1.263,16.347c2.276,3.495 20.941,4.681 23.72,4.749c10.873,0.263 27.778,2.306 20.779,-13.439c0.717,-0.058 0.258,-0.759 0.976,-0.817c0.652,-0.053 0.354,0.568 1.009,0.656c0.207,0.028 0.212,-0.477 0.421,-0.465c0.512,0.03 6.371,2.989 6.917,3.265c0.678,0.342 7.891,3.986 4.368,8.426c-1.132,1.427 -4.321,5.447 -21.019,8.739c-30.253,5.963 -56.427,5.027 -61.459,5.007c-42.85,-0.17 -71.149,-8.365 -73.387,-13.028c-3.422,-7.129 6.79,-9.995 10.646,-11.225c1.958,5.135 4.974,14.214 14.767,14.879c17.909,1.216 18.146,-3.208 18.525,-8.095c0.571,-7.36 -4.558,-6.907 -7.505,-12.623c25.205,-1.68 25.146,-1.649 50.467,-1.526c8.623,0.042 9.263,1.934 12.038,-0.849Z" style="fill:#a3b290;"/><path d="M145.969,45.602c9.965,-6.705 32.651,0.49 40.804,10.567c8.38,10.358 8.713,25.14 7.154,25.369c-0.268,0.039 -0.542,-0.097 -0.81,-0.058c-37.149,-4.576 -51.527,8.548 -59.192,12.022c-0.495,0.224 -10.691,1.548 -10.856,-0.765c-0.683,-9.551 3.466,-25.742 8.882,-33.611c6.57,-9.547 11.66,-12.016 14.018,-13.523Z" style="fill:#5f7a99;"/><path d="M189.348,102.37c-0.029,1.372 -0.188,8.81 -4.287,16.611c-0.682,1.298 -1.243,0.833 -1.833,2.176c-0.262,0.595 -0.281,1.307 -0.66,1.834c-0.133,0.186 -0.552,-0.147 -0.685,0.039c-44.999,0.066 -75.922,-0.686 -82.523,-0.847c-0.375,-1.692 -0.803,-1.754 0.115,-3.275c3.272,-5.425 2.013,-6.101 8.994,-16.459c2.363,-3.506 3.268,-2.591 22.369,-1.128c8.86,0.678 9.131,4.156 15.128,6.048c9.519,3.003 12.954,3.967 22.461,1.222c19.33,-5.583 19.522,-5.176 20.922,-6.219Z" style="fill:#dbc298;"/><path d="M134.204,216.293c-0.733,-1.901 -0.162,-5.798 -4.947,-3.124c-29.838,16.677 -35.428,-20.022 -33.605,-21.517c2.22,-1.821 0.9,3.26 4.962,12.835c5.118,12.064 15.828,12.227 24.915,7.925c4.996,-2.365 6.206,-1.849 6.999,-7.26c0.595,-4.055 4.487,-4.806 5.485,-6.326c2.222,-3.383 2.199,-3.369 5.27,-6.067c6.943,-6.101 3.444,-13.031 10.155,-11.093c5.69,1.643 5.002,7.58 5.097,8.479c0.13,1.237 3.465,1.617 3.782,1.696c10.157,2.54 8.892,8.342 10.014,13.242c1.042,4.547 -1.283,4.314 -1.41,9.044c-0.094,3.505 -3.712,6.329 -7.849,3.834c-3.159,-1.905 -3.075,0.042 -5.229,1.367c-5.767,3.548 -9.397,2.153 -10.482,2.094c-2.519,-0.137 -2.634,2.912 -8.281,0.291c-4.189,-1.944 -4.221,1.578 -14.996,5.046c-32.074,10.323 -41.497,-33.215 -36.681,-32.978c1.021,0.05 0.614,0.557 1.683,6.037c6.285,32.232 33.945,28.183 45.515,19.533c1.381,-1.032 0.315,-1.305 -0.397,-3.058Z" style="fill:#403428;"/><path d="M190.913,299.629c-2.775,2.783 -3.415,0.891 -12.038,0.849c-25.321,-0.123 -25.261,-0.155 -50.467,1.526c-1.798,-4.057 -1.297,-4.239 0.112,-8.418c1.142,-3.389 10.197,-1.475 12.243,-15.669c0.699,-4.85 19.87,9.58 52.277,-3.289c6.047,-2.401 6.302,17.089 3.198,17.752c-5.117,1.093 -5.164,2.027 -5.325,7.249Z" style="fill:#c5d5ae;"/><path d="M276.267,222.374c-0.044,8.579 0.891,13.717 -2.122,13.795c-13.966,0.358 -14.801,0.076 -14.848,-1.807c-0.073,-2.939 -0.878,-35.115 -0.195,-36.751c0.543,-1.301 16.398,-0.522 48.773,-0.717c3.903,-0.024 3.07,5.873 -1.566,4.755c-0.942,-0.227 -11.851,-2.858 -12.056,1.221c-0.265,5.283 0.889,5.383 -0.706,10.479c-0.857,2.738 0.006,3.818 -2.18,3.82c-0.901,0.001 -0.838,-0.416 -11.245,-0.63c-4.34,-0.089 -3.757,1.53 -3.855,5.836Z" style="fill:#e2e2e1;"/><path d="M144.362,43.185c-0.067,0.15 0.443,0.171 0.376,0.321c-0.983,2.19 -18.279,6.931 -23.468,38.638c-0.767,4.686 0.202,11.474 -1.557,11.561c-1.569,0.077 -21.555,-1.095 -22.024,-3.243c-0.413,-1.892 1.41,-19.956 7.806,-27.749c13.748,-16.748 26.46,-16.265 37.379,-19.332c0,-0 1.37,-0.181 1.489,-0.196Z" style="fill:#4e647f;"/><path d="M314.623,227.123c7.813,0.659 8.197,-0.054 9.425,1.536c0.636,0.823 1.487,21.807 0.118,22.706c-0.653,0.429 -30.321,1.124 -31.971,-0.557c-0.388,-0.396 -0.537,-0.408 -0.655,-20.187c-0.026,-4.37 4.906,-2.705 23.083,-3.498Z" style="fill:#b4cee3;"/><path d="M144.046,219.919c-5.97,2.665 -10.758,-10.035 -9.151,-15.465c1.316,-4.446 2.234,3.053 2.591,3.238c2.436,1.27 -0.36,-5.458 4.68,-10.779c4.894,-5.168 6.078,-4.512 7.997,-11.366c0.667,-2.381 4.39,-2.1 5.446,0.834c1.988,5.525 -2.846,5.79 -3.056,5.865c-2.314,0.821 -1.516,2.442 0.048,2.103c14.595,-3.165 16.786,5.612 16.773,5.775c-0.064,0.809 -6.639,-3.194 -9.205,-2.339c-6.663,2.22 2.759,0.719 8.132,5.165c2.222,1.839 2.366,5.346 1.968,5.742c-1.337,1.331 -1.402,0.081 -2.767,-1.161c-1.763,-1.605 -6.246,-2.726 -7.226,-2.122c-1.871,1.154 1.799,2.11 2.029,2.17c5.425,1.413 7.878,6.848 5.12,8.511c-1.196,0.721 -4.853,-1.388 -5.232,-1.607c-2.345,-1.353 -4.34,1.765 -5.244,2.375c-7.685,5.182 -12.165,0.394 -14.07,-0.517c-3.97,-1.899 0.96,3.36 1.166,3.58Z" style="fill:#f2f1f1;"/><path d="M280.125,182.523c-12.536,-0.128 -15.149,0.133 -15.666,-0.71c-0.593,-0.967 -0.285,-1.028 -0.07,-14.186c0.039,-2.37 4.804,-1.738 10.493,-1.731c29.531,0.034 30.691,-0.438 30.876,1.712c0.02,0.228 0.084,13.311 0.043,13.566c-0.236,1.471 -0.959,1.393 -25.676,1.35Z" style="fill:#dfe1e0;"/><path d="M141.85,91.527c30.423,-14.108 51.882,-8.384 71.321,-2.284c0.331,0.104 3.398,1.066 3.902,1.885c0.197,0.319 -0.018,0.791 0.179,1.11c-14.283,-3.222 -18.815,-0.867 -29.305,0.715c-0.412,-0.097 -0.41,-0.87 -0.822,-0.967c-0.405,-0.095 -11.147,1.905 -14.228,2.983c-4.446,1.555 -4.529,0.937 -9.028,2.119c-0.927,0.243 -3.199,0.84 -11.932,-1.034c-0.626,-0.134 -0.444,-0.62 -7.479,-2.846c-1.285,-0.407 -1.302,-0.119 -1.396,-0.18c-0.847,-0.546 -0.366,-0.955 -1.211,-1.5Z" style="fill:#5f7b99;"/><path d="M238.865,155.237c0.944,-0.117 3.298,-0.634 3.515,0.51c0.059,0.314 -0.01,0.303 -2.362,7.268c-1.457,4.313 -0.384,6.649 -4.862,5.871c-9.181,-1.596 -14.127,2.93 -12.994,7.051c0.538,1.956 0.779,2.111 -0.538,3.687c-3.131,3.744 -0.083,5.681 -0.856,7.462c-3.15,7.26 2.04,7.007 5.974,9.023c-0.763,1.192 -0.785,1.201 -2.148,1.364c-13.142,1.572 -13.192,2.16 -14.128,1.516c-0.542,-0.373 -0.983,-0.675 1.611,-8.064c11.295,-32.178 10.931,-32.29 12.167,-34.984c0.209,-0.455 1.273,-0.584 14.622,-0.703Z" style="fill:#8eb9bd;"/><path d="M200.689,101.372c-5.601,-1.728 -5.565,-1.699 -5.618,-1.76c-0.46,-0.526 -1.239,-3.629 -1.32,-3.953c-1.142,-4.552 34.047,-2.967 35.756,6.785c1.67,9.529 -28.357,-0.934 -28.818,-1.073Z" style="fill:#435364;"/><path d="M225.25,180.022c6.2,-0.138 6.266,-0.225 6.587,-0.646c1.786,-2.345 -5.145,-0.631 -6.97,-2.958c-5.272,-6.722 18.705,-7.824 14.613,0.885c-1.273,2.709 -1.031,2.747 -1.208,5.343c-0.149,2.184 -2.837,4.069 -3.199,5.97c-1.764,9.269 -12.279,4.041 -12.744,2.274c-1.026,-3.901 5.406,-2.217 7.415,-2.633c0.638,-0.132 0.885,-1.794 -0.602,-1.93c-11.499,-1.055 -4.414,-6.025 -3.892,-6.305Z" style="fill:#f4f2ed;"/><path d="M217.733,308.175c0.411,0.425 2.249,5.555 -1.367,5.511c-10.243,-0.124 -10.18,-0.44 -20.289,-1.817c-2.921,-0.324 -2.895,-0.32 -2.922,-0.326c-0.194,-0.042 -0.388,-0.083 -0.582,-0.125c-0.339,-0.167 -0.771,0.4 -1.11,0.233c-0.049,-0.024 -0.106,-9.423 2.427,-8.851c4.815,1.088 4.784,1.347 9.729,0.624c3.263,-0.477 5.344,2.894 8.297,3.495c2.955,0.601 2.868,0.8 5.817,1.256Z" style="fill:#cf4d4e;"/><path d="M141.85,91.527c0.845,0.544 0.364,0.954 1.211,1.5c0.095,0.061 0.111,-0.227 1.396,0.18c7.035,2.225 6.853,2.711 7.479,2.846c8.733,1.874 11.005,1.278 11.932,1.034c4.499,-1.182 4.582,-0.564 9.028,-2.119c3.081,-1.077 13.824,-3.078 14.228,-2.983c0.412,0.097 0.41,0.87 0.822,0.967c-23.254,7.06 -23.229,12.375 -39.11,7.293c-1.017,-0.325 -9.516,-3.045 -12.267,-5.251c0.407,-0.438 0.814,-0.877 1.22,-1.315c0.329,-0.164 0.284,-0.157 4.06,-2.152Z" style="fill:#4a5c6e;"/><path d="M257.651,194.184c-5.809,-0.607 -1.746,-3.026 -1.476,-3.056c3.148,-0.351 27.917,0.175 55.45,-0.347c3.526,-0.067 2.98,3.111 0.754,3.152c-40.566,0.76 -40.543,-0.361 -54.728,0.251Z" style="fill:#95b597;"/><path d="M289.565,219.647c0.522,2.474 0.226,2.454 0.099,4.954c-0.25,4.897 -0.451,4.816 -0.547,9.773c-0.04,2.09 -3.095,1.752 -8.997,1.651c-2.331,-0.04 -1.547,-5.186 -1.488,-6.147c0.073,-1.181 2.211,-0.45 2.892,-1.553c1.284,-2.079 -1.726,-3.141 -2.014,-3.242c-0.377,-0.133 -1.685,-0.595 -0.824,-4.934c0.296,-1.493 8.781,-1.352 10.878,-0.502Z" style="fill:#6c929e;"/><path d="M198.767,275.696c-0.195,-3.37 5.815,-5.47 6.81,-4.238c0.052,0.064 6.616,13.936 -0.657,21.992c-0.337,0.373 -3.317,3.674 -5.549,2.954c-1.724,-0.557 -0.509,-1.222 0.409,-5.053c1.044,-4.353 0.755,-6.279 0.766,-8.222c0.296,-0.346 0.844,-0.407 1.14,-0.753c0.557,-0.65 0.534,-4.14 0.532,-4.502c-0.028,-4.367 -2.709,-2.45 -3.451,-2.177Z" style="fill:#d5b790;"/><path d="M175.533,189.527c-0.266,-0.791 -3.476,-10.32 -2.736,-10.067c0.758,0.259 10.522,19.978 29.324,11.405c0.606,-0.276 5.056,-3.652 3.388,2.177c-0.121,0.421 -0.776,2.712 -1.039,5.381c-1.254,-1.23 -1.228,-1.622 -2.984,-1.201c-0.662,0.159 -1.865,1.024 -9.108,1.13c-2.253,0.033 -2.154,-1.379 -4.503,-0.583c0.16,-2.049 2.02,-3.061 -0,-3.144c-0.12,-0.005 -0.929,-0.038 -1.5,-0.103c-2.129,-0.242 -3.913,-2.24 -4.451,-2.335c-2.744,-0.484 -2.009,-1.46 -3.74,-3.563c-1.864,-2.265 -2.434,0.507 -2.652,0.902Z" style="fill:#d8c19a;"/><path d="M114.118,307.168c0.092,1.365 1.131,7.384 -2.657,4.409c-3.107,-2.441 -4.725,-15.753 -4.898,-17.171c-0.747,-6.147 -2.883,-7.594 2.506,-10.691c3.213,-1.847 -0.528,5.157 2.333,9.138c0.126,0.175 0.893,1.243 2.204,1.554c0.346,0.082 0.759,-0.389 1.05,-0.185c0.893,0.629 -2.308,1.477 -0.538,12.946Z" style="fill:#c54a45;"/><path d="M267.393,212.891c-6.464,0.026 -4.956,-2.766 -4.793,-9.279c0.099,-3.966 11.691,-3.657 11.821,-0.764c0.033,0.73 0.364,8.116 -0.072,9.138c-0.371,0.871 -6.394,0.902 -6.955,0.905Z" style="fill:#22272a;"/><path d="M278.357,210.371c-0.038,-5.642 -1.275,-9.042 3.276,-9.374c7.935,-0.578 8.625,0.516 8.686,3.372c0.141,6.68 0.547,8.358 -3.444,8.377c-6.177,0.03 -8.031,0.683 -8.518,-2.375Z" style="fill:#323739;"/><path d="M118.346,309.594c0.657,-0.474 6.113,-4.414 9.555,-3.342c3.253,1.014 5.381,4.42 5.662,6.148c0.74,4.562 -15.422,3.408 -16.998,3.142c-3.523,-0.594 1.432,-5.595 1.781,-5.948Z" style="fill:#f7f7f7;"/><path d="M112.377,315.82c9.131,5.794 22.932,-1.56 20.548,2.45c-1.389,2.336 -18.511,4.743 -23.445,-1.719c-7.943,-10.403 -8.91,-31.007 -5.857,-29.45c0.711,0.363 -0.342,19.988 8.754,28.719Z" style="fill:#e7e6e5;"/><path d="M208.28,227.329c10.243,6.672 2.199,13.146 -0.726,9.832c-6.115,-6.929 -15.107,-6.825 -8.279,-11.493c3.068,-2.097 8.386,1.269 9.005,1.661Z" style="fill:#f7eed5;"/><path d="M256.876,241.951c-2.616,-0.146 -3.874,0.37 -3.454,-2.207c0.34,-2.085 7.848,0.016 23.691,-1.167c12.012,-0.897 12.079,0.821 12.061,1.797c-0.038,2.133 -1.296,1.588 -32.299,1.577Z" style="fill:#94acb7;"/><path d="M187.888,95.675c4.932,-0.482 3.962,1.705 4.828,6.628c1.507,8.568 -4.644,20.589 -7.857,20.74c-0.991,0.046 -1.985,-0.059 -2.975,-0.013c0.133,-0.186 0.552,0.147 0.685,-0.039c0.379,-0.528 0.399,-1.239 0.66,-1.834c0.59,-1.343 1.151,-0.878 1.833,-2.176c4.099,-7.801 4.258,-15.239 4.287,-16.611c-0.888,-4.86 -0.67,-4.874 -0.877,-5.245c-0.053,-0.095 -0.831,0.366 -0.822,-0.75c0.002,-0.247 0.237,-0.454 0.239,-0.7Z" style="fill:#e5e1cf;"/><path d="M218.625,315.898c6.849,-0.096 6.846,0.069 13.512,-1.376c2.065,-0.448 0.792,2.712 -1.485,3.195c-11.351,2.407 -44.188,-0.891 -39.023,-4.588c1.765,-1.263 1.825,2.392 26.996,2.768Z" style="fill:#e8e6e7;"/><path d="M238.113,152.686c-0.381,0.161 -0.359,0.834 -0.74,0.995c-0.941,0.397 -0.979,-1.041 -12.771,0.065c-2.964,0.278 -2.059,1.67 -8.577,20.488c-6.001,17.327 -7.049,21.343 -8.67,23.431c-0.252,-0.542 -0.913,-1.968 1.076,-7.394c3.552,-9.692 3.343,-9.723 3.684,-10.549c3.812,-9.231 3.009,-9.447 7.601,-22.452c2.142,-6.067 5.76,-4.847 18.395,-4.585Z" style="fill:#779593;"/><path d="M304.326,236.643c0.142,-0.535 1.497,-5.65 5.797,-3.764c5.111,2.241 0.873,7.572 1.031,11.976c0.13,3.632 -5.279,3.46 -5.313,0.758c-0.057,-4.58 -1.278,-4.376 -1.515,-8.97Z" style="fill:#182028;"/><path d="M223.963,304.947c0.996,-0.864 4.135,-5.313 8.689,4.504c1.961,4.227 -8.177,4.315 -10.276,4.418c-4.745,0.234 1.175,-8.326 1.587,-8.922Z" style="fill:#f4f5f5;"/><path d="M277.125,184.804c18.661,0.113 20.704,-0.54 20.442,2.331c-0.176,1.93 -1.181,1.805 -24.189,1.362c-2.233,-0.043 -2.64,-3.693 -0.009,-3.713c1.252,-0.009 2.504,0.029 3.756,0.019Z" style="fill:#a2c1a9;"/><path d="M301.711,207.118c0.67,-0.367 7.734,-4.239 9.152,-2.733c1.754,1.863 -2.811,3.115 -6.612,4.724c-10.214,4.324 -4.869,14.829 -7.571,15.684c-2.592,0.82 -2.443,-2.143 -2.43,-2.417c0.525,-10.441 3.301,-12.099 7.461,-15.259Z" style="fill:#d3d3d1;"/><path d="M190.141,85.815c-0.25,0.307 -2.699,3.309 -3.685,3.308c-7.597,-0.007 -7.62,-0.229 -8.189,0.094c-0.84,0.477 -5.749,0.026 -6.776,0.713c-0.834,0.558 -3.465,0.218 -3.291,-0.142c0.187,-0.388 0.676,-0.555 0.91,-0.917c0.422,-0.654 -0.319,-0.951 0.53,-1.632c3.346,-2.687 13.319,-2.204 14.49,-2.148c0.892,0.043 0.824,0.065 6.012,0.722Z" style="fill:#5c7795;"/><path d="M269.701,174.433c-0.594,4.189 0.267,8.568 -2.169,5.101c-0.497,-0.707 -0.035,-9.371 0.053,-9.606c1.245,-3.343 3.172,2.14 4.538,4.124c0.146,0.212 1.022,1.301 2.478,-2.052c4.093,-9.431 3.727,6.829 3.418,7.155c-1.476,1.558 -1.056,-0.46 -1.715,-3.24c-0.736,-3.108 -2.389,4.151 -4.33,2.108c-1.527,-1.607 -0.408,-2.408 -2.273,-3.591Z" style="fill:#3a3b3d;"/><path d="M142.055,157.276c13.172,4.889 13.668,0.153 17.427,1.112c4.691,1.196 -9.666,7.344 -21.736,-0.683c-0.377,-0.251 -5.774,-3.84 -2.986,-4.809c1.339,-0.465 1.136,0.26 2.131,1.21c0.817,0.779 4.739,2.937 5.163,3.17Z" style="fill:#372e21;"/><path d="M290.701,178.066c-1.669,-2.549 -1.651,-2.538 -1.803,-2.753c-2.191,-3.118 -1.178,2.897 -1.857,3.727c-2.767,3.386 -2.397,-9.286 -1.695,-9.942c1.098,-1.026 2.363,1.32 3.708,3.089c3.491,4.592 1.468,-2.497 2.602,-3.502c1.932,-1.71 2.023,2.563 1.999,9.444c-0.001,0.236 -0.074,2.891 -2.954,-0.063Z" style="fill:#2d2f2f;"/><path d="M175.533,189.527c0.218,-0.395 0.787,-3.167 2.652,-0.902c1.73,2.102 0.996,3.078 3.74,3.563c0.538,0.095 2.322,2.092 4.451,2.335c0.571,0.065 1.38,0.098 1.5,0.103c2.02,0.082 0.16,1.095 0,3.144c-0.76,-0.001 -0.711,-0.136 -1.5,-0.002c-0.94,0.16 -0.779,0.394 -1.61,0.813c-5.803,-3.319 -6.294,-3.052 -9.232,-9.053Z" style="fill:#cdac7c;"/><path d="M207.434,301.679c-4.075,-2.407 -2.946,-4.103 -0.192,-7.404c1.901,-2.279 2.349,-1.477 4.001,-0.973c2.893,0.882 0.551,8.537 -3.81,8.377Z" style="fill:#d14f51;"/><path d="M280.801,205.876c0.167,-3.645 1.631,-2.731 5.315,-2.666c2.944,0.052 2.385,6.774 0.731,7.028c-7.369,1.131 -5.945,-2.514 -6.046,-4.362Z" style="fill:#a4b1b9;"/><path d="M265.081,205.122c0.138,-0.719 -0.397,-1.788 2.324,-1.882c0.147,-0.005 4.628,-0.982 4.666,1.886c0.068,5.179 -1.056,6.284 -6.099,4.986c-1.429,-0.368 -0.702,-0.966 -0.891,-4.99Z" style="fill:#889ba4;"/><path d="M119.369,130.136c0.008,-0.28 -0.727,-3.167 1.734,-3.291c0.248,-0.012 2.717,-0.137 2.915,1.061c0.441,2.676 0.526,3.046 3.177,3.434c2.074,0.303 1.123,1.194 1.344,3.289c-0.474,0.586 -0.949,1.172 -1.423,1.758c-0.743,-0.107 -1.486,-0.214 -2.229,-0.321l-0.766,-0.691c-0.228,-0.55 0.816,-3.637 -2.987,-3.597c-0.138,-0.07 -1.025,0.368 -1.755,-0.895c-0.125,-0.216 0.114,-0.532 -0.011,-0.748Z" style="fill:#dadadd;"/><path d="M114.426,281.689c2.477,-1.313 2.423,-2.048 5.092,-1.298c0.999,0.281 1.844,1.734 0.149,2.098c-6.564,1.41 -2.52,5.198 -3.695,8.181c-1.687,4.282 -6.579,-2.53 -1.545,-8.981Z" style="fill:#e9e6e0;"/><path d="M184.765,198.58c0.831,-0.42 0.67,-0.653 1.61,-0.813c0.789,-0.134 0.74,0.001 1.5,0.002c2.349,-0.796 2.25,0.616 4.503,0.583c7.242,-0.106 8.445,-0.971 9.108,-1.13c1.756,-0.421 1.73,-0.029 2.984,1.201c-0.545,0.266 -9.019,5.022 -19.705,0.157Z" style="fill:#bda073;"/><path d="M309.445,223.086c0.458,-0.029 0.379,-0.085 0.764,-0.109c0.109,-0.007 0.096,0.054 1.371,-0.024c3.794,-0.233 5.086,-2.995 5.165,-0.553c0.092,2.847 -3.526,2.672 -11.131,2.377c-1.959,-0.076 -2.76,-5.728 2.288,-5.664c2.588,0.033 0.691,1.611 1.543,3.974Z" style="fill:#bac1bb;"/><path d="M308.622,215.609c-5.606,0.136 -0.13,-2.556 7.436,-9.81c3.667,-3.516 3.042,0.511 2.882,0.686c-0.627,0.687 -0.825,0.473 -8.358,8.073c-0.436,0.44 -0.46,0.34 -1.96,1.051Z" style="fill:#b0bea0;"/><path d="M295.408,169.346c3.243,-2.163 8.348,-1.04 7.951,0.521c-0.2,0.788 -2.542,0.64 -2.667,2.296c-0.201,2.659 0.024,2.615 -0.14,5.228c-0.16,2.55 -2.532,2.5 -2.517,-0.013c0.022,-3.592 0.805,-5.835 -1.483,-6.574c-1.005,-0.324 -1.291,-0.268 -1.144,-1.458Z" style="fill:#303232;"/><path d="M319.684,209.44c0.796,-0.696 0.645,-1.016 1.75,-0.881c3.137,0.382 -1.841,4.71 -2.169,4.995c-3.246,2.822 -4.337,6.309 -6.081,6.814c-6.214,1.798 5.781,-10.209 6.5,-10.928Z" style="fill:#a7b49b;"/><path d="M121.109,291.545c3.871,0.713 6.15,0.639 4.192,4.072c-1.049,1.84 -1.821,-0.201 -7.188,0.928c-1.746,0.367 -1.664,-0.787 -0.659,-3.653c0.879,-2.507 3.141,-1.413 3.656,-1.347Z" style="fill:#ca5352;"/><path d="M302.037,222.406c-2.431,9.182 -4.044,-7.425 0.533,-10.111c0.151,-0.089 5.296,-3.108 1.825,1.22c-0.769,0.959 -0.532,1.061 -2.358,8.891Z" style="fill:#cccecd;"/><path d="M193.469,299.42c-1.192,-5.551 2.533,-4.345 2.682,-3.552c1.065,5.695 5.916,0.286 6.53,3.079c0.582,2.645 -1.141,2.697 -1.339,2.732c-4.699,0.827 -7.402,-1.801 -7.872,-2.258Z" style="fill:#ecedee;"/><path d="M329.651,199.112c1.784,6.54 -3.723,4.266 -6.93,0.078c-1.17,-1.527 2.414,-2.752 3.178,-2.854c1.699,-0.228 3.542,2.467 3.753,2.776Z" style="fill:#c8d3b5;"/><path d="M213.514,169.156c-0.147,0.506 -1.914,8.95 -3.687,7.858c-2.285,-1.407 -0.066,-11.706 3.361,-9.905c0.821,0.432 0.385,0.621 0.326,2.047Z" style="fill:#dce6de;"/><path d="M228.683,160.191c0.145,-0.378 1.703,-4.431 4.668,-1.946c3.697,3.099 -4.495,8.403 -4.668,1.946Z" style="fill:#2a4245;"/><path d="M119.369,130.136c0.125,0.216 -0.114,0.532 0.011,0.748c0.73,1.263 1.617,0.825 1.755,0.895c-1.218,1.255 -1.264,1.213 -1.315,1.356c-0.278,0.778 0.209,0.769 -0.048,1.488c-0.149,0.267 0.419,0.808 -0.886,1.587c-0.373,0.223 -0.403,-0.034 -0.757,0.177c-1.984,-0.28 -2.718,0.25 -2.875,-1.772c-0.12,-1.553 -0.091,-1.531 -0.907,-2.859l0.646,-0.916c0.548,0.213 1.095,0.427 1.643,0.64c0.104,-0.036 0.762,0.814 2.734,-1.343Z" style="fill:#d8d6db;"/><path d="M119.771,134.622c1.11,0.848 1.012,2.608 4.35,0.753l0.766,0.691c-1.067,1.794 -1.09,6.456 -4.565,4.637c-1.513,-0.792 0.378,-2.08 -2.195,-4.316c0.355,-0.212 0.384,0.046 0.757,-0.177c1.305,-0.779 0.737,-1.32 0.886,-1.587Z" style="fill:#ccccd0;"/><path d="M282.108,177.364c-0.765,4.042 -2.22,1.039 -2.221,0.849c-0.023,-3.39 -0.439,-11.239 1.623,-9.66c0.997,0.763 0.61,6.572 0.598,8.811Z" style="fill:#343633;"/><path d="M178.104,131.884c2.254,0.461 2.598,0.481 2.929,2.748c0,0 1.473,1.982 1.601,2.155c-0.401,0.189 -0.369,-0.255 -0.744,-0.079c-0,0 -1.195,1.537 -1.299,1.67c-0.929,-1.371 -0.856,-1.507 -2.498,-1.929c-1.081,-0.744 -1.09,-0.693 -1.818,-1.802l-0.071,-0.794c0.774,-1.159 0.747,-1.153 1.9,-1.969Z" style="fill:#ccccce;"/><path d="M318.97,219.344c0.089,-0.304 1.203,-4.102 2.471,-3.09c0.272,0.218 1.326,9.345 -1.643,8.623c-0.97,-0.236 -0.84,-5.086 -0.828,-5.533Z" style="fill:#d0dabe;"/><path d="M169.138,132.041l0.764,0.039c1.144,0.776 1.14,0.681 1.942,1.788c0.364,1.554 0.458,1.496 1.775,2.435c-1.479,1.581 -1.708,1.185 -1.812,1.332c-0.147,0.208 0.222,0.552 0.076,0.76c-1.158,-1.29 -1.027,-1.525 -2.746,-1.704c-1.901,-0.199 -1.339,-0.909 -1.622,-2.814c0.133,-0.213 -0.224,-0.535 -0.091,-0.748c0.086,-0.138 0.278,0.176 1.714,-1.088Z" style="fill:#cdcdd0;"/><path d="M124.236,245.364c-0.26,-0.269 -2.957,-3.066 -0.661,-4.629c3.502,-2.384 6.446,6.065 0.661,4.629Z" style="fill:#c8a373;"/><path d="M115.412,130.145l-0.419,0.694l-0.646,0.916c-3.114,-0.477 -3.883,-0.715 -3.35,-3.826c0.044,-0.259 4.329,-5.132 4.416,2.216Z" style="fill:#dddfdf;"/><path d="M171.854,130.133c0.195,-1.804 -0.59,-2.381 1.055,-2.908c2.723,-0.873 3.001,0.035 3.264,2.905c-0.407,0.533 -0.33,0.535 -0.768,1.006c-0.488,0.526 -0.487,0.444 -1.027,0.937l-0.778,0.037c-1.107,-0.81 -1.025,-0.81 -1.746,-1.976Z" style="fill:#e3e3e6;"/><path d="M83.524,142.049c2.739,-0.245 4.057,-0.239 3.183,2.355c-0.111,0.33 -2.034,6.041 -3.137,3.022c-0.886,-2.425 -0.164,-4.963 -0.046,-5.376Z" style="fill:#b98c54;"/><path d="M130.144,136.555c2.723,0.465 3.494,0.835 2.532,3.447c-0.248,0.674 -4.593,3.196 -4.492,-1.61c0.192,-0.205 0.012,-0.613 0.204,-0.818c0.179,-0.191 0.561,-0.035 0.757,-0.208c0.294,-0.261 -0.093,-0.403 0.211,-0.649c0.339,-0.275 0.429,0.129 0.788,-0.162Z" style="fill:#d9dadc;"/><path d="M182.634,136.787c0.271,0.052 2.732,-0.486 2.528,2.349c-0.013,0.183 -0.118,1.638 -1.121,1.996c-2.772,0.989 -3.27,0.176 -3.45,-2.753c0.104,-0.134 1.299,-1.67 1.299,-1.67c0.375,-0.176 0.343,0.267 0.744,0.079Z" style="fill:#e6e7e8;"/><path d="M120.298,303.893c-2.874,1.009 -2.861,1.036 -4.168,0.834c1.727,-4.674 12.173,-3.318 9.387,-1.481c-0.525,0.346 -0.963,-0.147 -5.219,0.646Z" style="fill:#c3b8b2;"/><path d="M322.412,204.813c-0.201,-0.216 -2.516,-2.694 -2.516,-2.694c-1.569,-4.634 8.52,3.496 5.951,4.959c-0.95,0.541 -0.9,-0.101 -3.436,-2.265Z" style="fill:#a4b294;"/><path d="M116.693,298.975c0.578,-0.143 5.297,-1.308 7.405,-0.798c1.088,0.263 0.962,1.588 0.17,1.652c-1.018,0.082 -2.046,-0.015 -3.064,0.07c-2.15,0.179 -7.933,3.446 -4.511,-0.924Z" style="fill:#bcb4ac;"/><path d="M167.879,130.149c-0.712,1.032 -0.67,1.052 -1.768,1.673c-4.875,-0.769 -1.549,-4.71 -1.497,-4.726c2.815,-0.878 2.978,0.172 3.265,3.053Z" style="fill:#e8eaea;"/><path d="M198.767,275.696c0.742,-0.273 3.423,-2.191 3.451,2.177c0.002,0.363 0.025,3.852 -0.532,4.502c-0.296,0.346 -0.844,0.407 -1.14,0.753c-0.605,-3.796 -0.594,-3.748 -1.779,-7.432Z" style="fill:#c09c70;"/><path d="M173.619,136.303l0.753,-0.013c1.092,0.867 1.025,0.88 1.71,2.09c-0.289,1.777 -0.002,1.923 -0.756,2.529c-2.542,2.044 -3.377,-2.179 -3.443,-2.514c0.147,-0.208 -0.222,-0.552 -0.076,-0.76c0.104,-0.147 0.333,0.25 1.812,-1.332Z" style="fill:#e3e3e4;"/><path d="M216.807,298.909c-3.048,4.663 -3.005,4.684 -3.459,5.186c-1.105,1.224 -3.345,0.369 -1.996,-1.328c3.29,-4.141 3.504,-4.909 5.455,-3.858Z" style="fill:#dfdedb;"/><path d="M143.69,268.724c-0.052,-0.067 -1.497,-1.492 -1.724,-2.818c-0.597,-3.488 3.129,-2.295 2.628,-0.013c-0.643,2.928 2.305,0.522 2.519,1.533c0.558,2.628 -0.951,2.247 -3.424,1.298Z" style="fill:#ca9d74;"/><path d="M148.038,210.918c-0.334,0.09 -5.158,1.39 -4.287,-0.512c1.202,-2.625 10.479,-2.544 6.403,-0.35c-0.671,0.361 -1.445,0.501 -2.116,0.862Z" style="fill:#363535;"/><path d="M121.135,131.778c3.803,-0.04 2.758,3.046 2.987,3.597c-3.338,1.855 -3.24,0.095 -4.35,-0.753c0.257,-0.719 -0.23,-0.711 0.048,-1.488c0.051,-0.142 0.097,-0.1 1.315,-1.356Z" style="fill:#151616;"/><path d="M173.6,132.109l0.778,-0.037c1.15,0.687 1.114,0.653 1.826,1.782l0.071,0.794c-0.767,1.037 -0.786,0.982 -1.902,1.642l-0.753,0.013c-1.318,-0.938 -1.411,-0.881 -1.775,-2.435c0.741,-1.116 0.707,-1.061 1.756,-1.76Z" style="fill:#0e0e10;"/><path d="M220.083,301.828c-0.985,0.951 -4.667,5.658 -4.665,3.099c0.001,-1.835 6.219,-8.019 6.146,-4.564c-0.004,0.167 -0.005,0.252 -1.481,1.465Z" style="fill:#cbcac6;"/><path d="M144.272,202.695c2.464,-1.12 2.4,-1.209 3.103,-1.284c4.276,-0.46 -2.495,4.407 -4.475,4.271c-0.262,-0.018 -1.985,-0.835 1.372,-2.986Z" style="fill:#4b4a47;"/><path d="M207.241,182.546c4.07,-6.468 1.644,4.385 0.225,4.782c-2.37,0.663 -0.365,-4.426 -0.225,-4.782Z" style="fill:#b8c4bd;"/><path d="M301.747,203.615c-2.44,3.44 -6.678,2.256 -4.924,0.199c1.493,-1.751 4.565,-0.362 4.924,-0.199Z" style="fill:#a3a69e;"/><path d="M120.298,303.893c-0.015,0.381 0.604,0.6 0.589,0.982c-0.005,0.128 -3.826,3.34 -3.854,3.351c-0.21,0.077 -0.372,-0.412 -0.582,-0.335c-0.31,-2.934 -0.26,-2.916 -0.321,-3.163c1.307,0.201 1.293,0.175 4.168,-0.834Z" style="fill:#5b4c48;"/><path d="M150.269,40.089c-0.144,0.195 0.109,0.999 -4.398,0.927c-1.766,-0.028 -1.439,-1.443 -0.101,-1.857c2.02,-0.626 4.188,0.735 4.5,0.93Z" style="fill:#4d4e59;"/><path d="M89.976,113.797c-1.474,4.071 -2.074,3.698 -2.567,4.332c-0.09,-0.234 0.226,-0.505 0.136,-0.739c-0.541,-1.4 -1.724,-1.804 0.53,-3.765c1.55,-1.348 1.547,0.14 1.901,0.172Z" style="fill:#dabb88;"/><path d="M84.78,186.863c-1.053,0.03 -0.97,0.048 -1.053,0.03c-0.61,-0.132 -1.389,-2.67 -0.826,-3.502c0.177,-0.261 3.568,-1.929 1.878,3.472Z" style="fill:#b38855;"/><path d="M85.145,135.45c0.716,0.068 1.432,0.136 2.148,0.204c-0.042,0.285 0.298,0.899 -0.462,2.097c-1.047,1.65 -2.683,-0.241 -2.696,-0.248c0.042,-0.178 0.133,-0.096 1.009,-2.053Z" style="fill:#c29e61;"/><path d="M132.45,280.883c1.742,1.58 2.149,1.442 1.977,2.283c-0.27,1.315 -2.371,2.156 -2.071,0.707c0.293,-1.416 -0.535,-1.059 -0.731,-1.547c0,0 0.759,-1.328 0.825,-1.443Z" style="fill:#d3b98c;"/><path d="M198.357,264.834c0.306,-0.11 9.314,-3.345 4.048,0.291c-0.13,0.09 -1.455,1.005 -1.78,0.86c-0.384,-0.171 -0.361,-0.791 -0.687,-1.057c-0.098,-0.08 -0.117,-0.007 -1.581,-0.094Z" style="fill:#d7a977;"/><path d="M307.23,237.978c-0.246,-1.412 -0.839,-1.937 0.599,-2.217c0.932,-0.182 3.277,2.229 -0.599,2.217Z" style="fill:#2b3031;"/><path d="M128.539,134.629c0.68,1.068 0.601,1.073 1.605,1.926c-0.359,0.291 -0.449,-0.113 -0.788,0.162c-0.303,0.246 0.084,0.388 -0.211,0.649c-0.196,0.174 -0.578,0.017 -0.757,0.208c-0.192,0.205 -0.012,0.613 -0.204,0.818c-1,-1.904 -0.99,-1.906 -1.068,-2.005c0.474,-0.586 0.949,-1.172 1.423,-1.758Z" style="fill:#7f8082;"/><path d="M125.995,287.181c1.347,-2.781 2.809,-0.649 2.657,-0.321c-0.771,1.661 -1.352,1.608 -2.657,0.321Z" style="fill:#d9bc98;"/><path d="M220.692,303.902c0.06,0.434 0.836,0.526 0.896,0.96c0.047,0.339 -0.487,0.493 -0.653,0.793c-0.729,1.321 -1.202,2.117 -1.828,0.778c-0.121,-0.26 0.249,-0.59 0.128,-0.85c0.757,-0.88 0.715,-0.832 1.457,-1.681Z" style="fill:#81423f;"/><path d="M167.879,130.149c0.42,0.631 0.84,1.261 1.259,1.892c-1.437,1.264 -1.628,0.95 -1.714,1.088c-0.133,0.213 0.224,0.535 0.091,0.748c-0.721,-1.13 -0.64,-1.118 -1.403,-2.055c1.097,-0.622 1.056,-0.641 1.768,-1.673Z" style="fill:#787a7c;"/><path d="M176.173,130.129c0.828,1.094 0.813,1.044 1.931,1.755c-1.153,0.816 -1.125,0.81 -1.9,1.969c-0.712,-1.128 -0.676,-1.095 -1.826,-1.782c0.54,-0.493 0.539,-0.411 1.027,-0.937c0.438,-0.471 0.361,-0.473 0.768,-1.006Z" style="fill:#7a7b7d;"/><path d="M171.854,130.133c0.721,1.166 0.639,1.166 1.746,1.976c-1.048,0.699 -1.014,0.643 -1.756,1.76c-0.802,-1.107 -0.798,-1.012 -1.942,-1.788c1.186,-0.809 1.131,-0.775 1.952,-1.947Z" style="fill:#76787b;"/><path d="M176.275,134.648c0.728,1.109 0.737,1.058 1.818,1.802c-1.225,0.777 -1.166,0.747 -2.01,1.93c-0.685,-1.21 -0.618,-1.222 -1.71,-2.09c1.116,-0.66 1.135,-0.605 1.902,-1.642Z" style="fill:#78787a;"/><path d="M76.164,187.121c0.445,3.798 0.674,4.825 0.767,5.239c-2.004,-2.362 -1.234,-2.63 -0.767,-5.239Z" style="fill:#d5ad7c;"/><path d="M136.087,165.633c0.339,1.505 1.497,2.122 -0.028,2.425c-0.854,0.17 -1.06,-0.456 -1.09,-0.548c-0.418,-1.275 -0.057,-1.301 1.118,-1.876Z" style="fill:#e1ca9c;"/><path d="M232.339,159.986l-0.185,1.275c-0.269,-0.083 -0.498,0.436 -0.768,0.354c-0.195,-0.06 -1.918,-3.072 0.953,-1.629Z" style="fill:#97a3ac;"/><path d="M115.412,130.145c0.657,0.635 0.692,0.54 1.224,1.335c-0.548,-0.213 -1.095,-0.427 -1.643,-0.64l0.419,-0.694Z" style="fill:#616264;"/><path d="M133.781,275.613c0.669,1.39 0.786,1.382 0.721,1.498c-0.275,0.483 -0.499,0.203 -0.755,0.653c0.063,-1.985 0.026,-1.979 0.034,-2.15Z" style="fill:#d5bc85;"/><path d="M137.79,93.678c-0.407,0.438 -0.814,0.877 -1.22,1.315c-0.384,-1.11 0.111,-1.012 1.22,-1.315Z" style="fill:#38414c;"/><path d="M182.61,199.932c-0.447,0.216 -0.893,0.433 -1.34,0.649c-0.08,-0.903 -0.312,-1.501 0.55,-1.127c0.282,0.123 0.508,0.355 0.79,0.477Z" style="fill:#5a564a;"/></g></svg>