<?xml version="1.0" encoding="UTF-8" standalone="no"?><!DOCTYPE svg PUBLIC "-//W3C//DTD SVG 1.1//EN" "http://www.w3.org/Graphics/SVG/1.1/DTD/svg11.dtd"><svg width="100%" height="100%" viewBox="0 0 405 372" version="1.1" xmlns="http://www.w3.org/2000/svg" xmlns:xlink="http://www.w3.org/1999/xlink" xml:space="preserve" xmlns:serif="http://www.serif.com/" style="fill-rule:evenodd;clip-rule:evenodd;stroke-linejoin:round;stroke-miterlimit:2;"><g><path d="M199.873,358.509c-141.391,-1.985 -215.581,-152.656 -146.817,-263.52c22.274,-35.911 55.759,-58.828 83.067,-69.87c135.903,-54.958 277.409,73.399 225.828,220.53c-10.978,31.314 -57.068,110.678 -162.077,112.86Z" style="fill:#202629;fill-opacity:1;"/><path d="M35.536,229.147c-0.145,-0.605 -9.536,-31.785 -4.126,-67.476c17.489,-115.385 139.906,-174.165 233.025,-134.443c108.798,46.411 131.137,170.608 77.943,250.648c-81.356,122.416 -266.273,95.956 -306.842,-48.73Z" style="fill:#b9d3d9;"/><path d="M282.4,150.436c2.174,0.394 2.839,0.85 2.271,2.762c-5.517,-1.349 0.748,5.099 -1.982,11.556c-3.332,7.879 -3.663,8.139 -1.236,16.417c0.673,2.293 -6.545,2.071 -3.378,4.913c0.647,0.58 4.791,2.195 9.294,6.576c5.011,4.875 3.841,-1.044 3.555,-1.269c-1.101,-0.865 -4.587,-2.811 -4.284,-4.367c0.479,-2.46 3.455,3.376 8.419,2.103c16.782,-4.302 18.051,-13.527 18.932,-19.225c0.303,-1.962 -3.395,-7.596 -6.718,1.523c-1.414,3.879 -0.825,4.627 -2.383,4.692c-0.691,0.029 -1.497,-0.54 1.67,-8.478c0.05,-0.244 0.205,-0.46 0.255,-0.704c0.19,-0.925 -0.38,-0.514 -1.191,-0.135c-0.545,0.425 -4.732,3.918 -3.726,0.83c0.741,-2.275 5.381,-3.09 5.91,-3.183c3.55,-0.623 1.772,-2.042 1.566,-2.068c-3.823,-0.475 -15.519,4.514 -17.871,3.411c-0.176,-0.083 -1.517,-0.711 -1.492,-1.917c0.079,-3.798 0.338,-3.839 -1.121,-7.316c2.653,0.32 2.95,1.361 3.613,2.818c0.35,3.049 -0.475,3.748 1.214,4.164c0.834,0.205 0.733,-0.484 8.16,-2.103c8.999,-0.513 9.131,0.027 12.856,-1.786c2.218,-0.853 4.099,-1.443 4.459,-1.557c0.797,-0.096 8.026,-0.971 9.636,2.805c3.185,7.468 -11.466,8.704 -12.689,11.984c-4.786,12.849 -5.515,13.603 -21.677,18.901c-1.216,0.398 -0.365,5.524 -4.594,5.153c-3.235,-0.284 -2.492,1.324 -9.854,9.592c-2.332,2.619 -2.21,2.955 -0.907,6.198c3.859,9.6 1.755,29.496 -14.491,42.95c-2.414,1.999 -2.716,1.851 -3.59,4.87c-1.705,0.028 -1.627,0.077 -3.321,0.284c-5.912,3.841 -5.713,4.146 -12.185,6.331c-5.595,2.381 -7.942,1.676 -6.606,5.453c0.091,0.258 0.402,1.605 0.434,1.745c0.636,0.72 1.272,1.44 1.909,2.161c-2.79,2.831 -1.509,3.345 -1.798,7.344c-0.293,4.062 -1.731,8.412 1.694,9.438c4.407,1.321 1.526,3.507 3.558,7.177c0.993,1.794 1.201,1.659 1.69,3.642c1.066,4.322 10.749,9.435 11.847,10.014c6.125,3.234 6.989,4.67 7.913,7.91c1.195,9.643 -1.158,12.046 -17.545,11.631c-9.948,-0.252 -14.139,-3.089 -15.176,-3.79c-2.186,-1.48 -2.555,1.279 -7.368,-0.037c-6.749,-1.845 -6.899,-4 -5.794,-15.943c1.389,-10.987 0.434,-11 0.671,-16.528c0.174,-4.069 3.239,-3.061 3.7,-5.244c0.354,-1.676 1.648,-12.27 -0.045,-12.685c-0.72,-0.176 -9.788,2.576 -9.451,0.512c0.238,-1.459 1.224,-2.265 -0.278,-2.201c-1.426,0.061 -1.763,4.033 -15.092,7.993c-8.504,2.526 -10.017,-4.97 -11.203,-2.661c-0.602,1.172 0.457,4.363 -2.962,4.387c-5.799,0.04 -8.06,-2.127 -7.789,0.888c0.333,3.707 0.698,3.765 3.368,5.14c3.335,1.718 0.108,3.191 2.636,20.444c0.406,5.412 2.733,14.198 -6.426,15.848c-1.761,0.317 -3.135,-0.739 -4.303,0.123c-14.886,10.984 -30.656,4.138 -31.813,0.488c-1.765,-5.567 -1.259,-5.725 1.032,-11.129c4.143,-5.241 5.395,-3.869 9.912,-8.807c10.237,-11.195 3.87,-14.759 7.367,-17.241c1.299,-0.921 4.256,0.169 3.966,-2.6c-0.434,-4.138 0.095,-4.142 -0.577,-8.215c-0.225,-1.361 -6.117,-5.268 -6.531,-5.022c-1.039,0.617 0.21,3.283 -2.346,3.027c-11.338,-1.132 -25.709,-13.488 -29.302,-26.519c-0.896,-3.247 -2.025,-1.661 -2.065,-1.463c-1.74,8.616 3.436,13.458 1.307,13.966c-0.234,0.056 -33.467,-6.359 -22.162,-37.195c1.34,-3.656 -10.48,-5.636 -14.177,-18.909c-5.124,-18.395 22.489,-26.137 16.573,-35.727c-4.428,-7.178 -23.485,-19.646 2.692,-45.847c11.596,-11.607 11.689,-12.461 11.71,-27.852c0.055,-41.971 46.16,-63.566 66.959,-57.84c5.54,1.525 5.537,-0.156 11.247,-0.435c26.107,-1.276 30.729,14.534 39.261,21.179c6.927,5.394 22.055,13.387 18.41,37.833c-1.333,8.943 -17.826,24.018 -2.806,38.877c4.224,4.179 23.674,18.125 5.822,35.341c-4.216,4.066 -5.077,5.148 -1.302,9.667c3.687,4.414 7.575,4.698 8.022,9.88c0.161,1.87 2.732,3.667 4.507,2.168c2.846,-2.403 7.972,-8.25 7.352,-9.634c-1.429,-3.189 -2.542,-4.166 1.593,-6.949c2.123,-1.429 -3.139,-4.416 1.207,-13.936c2.332,-5.108 2.728,-5.27 1.126,-12.144c-0.661,-2.835 -0.297,-3.082 2.309,-4.447Z" style="fill:#1d1c18;"/><path d="M209.71,77.997c0.179,0.025 0.266,-0.568 0.827,0.117c1.542,1.884 1.493,1.865 3.119,3.685c8.518,8.813 8.805,8.458 13.961,13.833c0.942,0.983 8.562,8.927 1.981,16.902c-1.019,-0.137 -0.929,-0.258 -2.009,-0.271c-2.687,-0.033 -0.145,-4.494 -2.219,-4.538c-1.986,-0.042 -1.99,0.037 -3.723,-0.891c-12.191,-6.53 -19.954,20.415 -9.714,25.456c-0.162,0.563 -0.324,1.127 -0.486,1.69c1.187,2.307 1.755,0.095 4.247,-0.502c0.342,-0.082 0.322,-0.044 4.35,-0.596c1.934,0.083 1.872,0.05 3.813,0.244c-0.648,5.204 -3.727,23.085 4.028,40.376c12.066,26.901 44.697,19.409 49.316,42.103c7.247,35.598 -38.615,67.048 -90.921,48.281c-14.267,-5.119 -35.245,-18.358 -32.955,-22.042c1.86,-2.992 2.88,-2.475 3.798,-6.72c0.273,0.34 0.799,0.41 1.072,0.75c1.024,1.278 -1.916,5.115 -0.219,6.527c2.115,1.759 1.751,2.075 4.064,3.534c0.621,0.392 6.082,6.531 9.94,7.49c2.278,1.263 2.238,1.363 4.643,1.556c2.22,0.178 1.054,2.786 3.03,3.047c2.295,0.304 2.185,0.579 4.437,1.202c5.85,1.62 9.668,4.133 24.836,6.291c35.096,4.995 52.233,-13.991 54.815,-15.931c7.645,-9.713 7.261,-10.969 -0.408,-1.23c-3.447,1.233 -4.473,4.09 -7.957,4.277c-5.717,0.307 -6.817,2.158 -21.006,2.216c-13.33,0.055 -28.137,-4.065 -30.868,-5.116c-11.525,-4.437 -12.366,-5.017 -13.319,-5.675c-2.555,-1.764 3.096,-4.563 7.519,-12.721c-3.575,-5.28 -7.18,4.021 -7.941,4.952c-4.466,5.462 -5.899,5.149 -11.664,1.113c-5.337,-3.736 -5.411,-3.582 -5.77,-4.014c-3.445,-4.143 -3.329,-4.208 -3.707,-4.479c-2.054,-1.479 -1.51,-1.922 -3.244,-3.543c-3.476,-3.25 -1.875,-4.12 1.325,-7.611c1.641,-1.79 0.968,-2.627 8.648,-6.596c0.157,-2.912 1.331,-4.577 -1.621,-4.175c-0.2,-0.356 -0.425,-0.178 -2.786,-4.272c-0.094,-0.163 -0.835,-1.448 -1.11,-2.076c-2.938,-6.71 -4.7,-13.102 -5.021,-14.269c0.916,-6.747 0.47,-6.696 0.434,-12c-0.019,-2.722 0.623,-3.264 -1.779,-4.593c-1.435,-4.165 -1.512,-4.082 -3.677,-7.941c-13.212,-17.231 -9.897,-22.448 0.087,-42.333c5.632,-11.218 1.61,-17.374 7.728,-14.836c1.364,2.857 4.771,4.757 2.253,4.345c-0.118,-0.019 -3.773,-2.781 -3.794,-0.632c-0.012,1.16 3.296,2.418 2.978,4.491c-1.098,7.156 -1.946,7.286 0.337,14.144c0.339,1.018 0.502,-0.206 1.535,-0.628c-0.1,-0.788 -3.123,-13.067 4.924,-18.085c3.932,-2.452 13.105,-0.723 7.625,1.707c-8.766,3.887 -6.206,22.652 1.419,21.65c10,-1.313 10.411,-34.152 -9.684,-26.113c-2.52,1.008 -2.825,1.742 -5.203,-0.284c-0.962,-0.819 -0.63,-1.015 -0.903,-1.455c12.692,-3.096 12.966,-7.073 17.313,-3.725c1.585,1.221 3.961,-2.496 0.778,-3.806c-2.209,-0.909 0.363,-1.399 5.855,-9.793c6.008,-9.181 -4.155,11.972 -2.101,13.382c0.058,0.04 12.698,-1.739 17.979,-21.472c0.265,-0.134 0.53,-0.268 0.794,-0.402Z" style="fill:#dec69e;"/><path d="M134.099,176.917c-3.045,1.908 -4.72,3.259 -5.139,-0.337c-1.209,-10.379 -0.51,-29.941 1.667,-23.086c4.889,15.391 21.065,13.034 15.099,33.579c-3.146,10.832 -3.425,12.778 6.749,19.049c11.772,7.256 0.31,14.868 3.881,15.547c3.648,0.693 14.626,-11.359 5.012,-18.491c-8.043,-5.967 -7.439,-8.23 -1.547,-16.296c6.434,-8.808 4.056,-15.496 3.645,-17.1c2.402,1.329 1.76,1.872 1.779,4.593c0.037,5.304 0.482,5.253 -0.434,12c0.321,1.167 2.083,7.559 5.021,14.269c0.275,0.628 1.016,1.913 1.11,2.076c2.36,4.095 2.586,3.917 2.786,4.272c2.953,-0.403 1.779,1.262 1.621,4.175c-7.68,3.969 -7.007,4.805 -8.648,6.596c-3.2,3.491 -4.802,4.361 -1.325,7.611c1.734,1.621 1.189,2.064 3.244,3.543c0.377,0.272 0.262,0.337 3.707,4.479c0.36,0.432 0.433,0.278 5.77,4.014c5.765,4.036 7.197,4.349 11.664,-1.113c0.761,-0.931 4.366,-10.232 7.941,-4.952c-4.423,8.159 -10.075,10.958 -7.519,12.721c0.953,0.658 1.794,1.238 13.319,5.675c2.731,1.051 17.538,5.171 30.868,5.116c14.189,-0.058 15.29,-1.909 21.006,-2.216c3.484,-0.187 4.51,-3.045 7.957,-4.277l0.408,1.23c-2.582,1.94 -19.72,20.926 -54.815,15.931c-15.168,-2.159 -18.986,-4.671 -24.836,-6.291c-2.252,-0.624 -2.142,-0.899 -4.437,-1.202c-1.976,-0.262 -0.81,-2.869 -3.03,-3.047c-2.404,-0.193 -2.365,-0.293 -4.643,-1.556c-3.857,-0.959 -9.318,-7.098 -9.94,-7.49c-2.313,-1.459 -1.949,-1.775 -4.064,-3.534c-1.697,-1.411 1.243,-5.249 0.219,-6.527c-0.273,-0.34 -0.799,-0.41 -1.072,-0.75c-0.023,-2.715 -0.007,-7.57 -5.31,-12.692c-4.42,-4.269 -6.99,-2.713 -12.721,-7.456c0.061,-0.403 1.071,-0.339 0.242,-1.602c-0.069,-0.105 -0.361,-0.55 -0.525,-1.476c-1.335,-7.571 -2.062,-7.36 -3.645,-14.919c-0.47,-2.247 0.193,-2.174 0.137,-2.354c-0.112,-0.356 -0.629,-0.483 -0.741,-0.839c4.381,-2.893 11.787,-7.119 6.899,-7.135c-6.194,3.602 -24.275,14.001 -17.996,22.912c5.462,7.752 13.066,7.325 7.142,12.511c-3.95,3.458 -4.986,2.32 -12.023,-3.841c-13.458,-11.783 -6.94,-21.384 10.58,-35.131c5.456,-4.281 13.861,-7.941 9.219,-8.039c-0.663,-0.014 -3.952,1.682 -4.284,1.853Z" style="fill:#caa677;"/><path d="M113.536,129.332c0.099,0.454 1.228,5.645 3.171,4.861c0.133,-0.054 6.351,-3.903 6.048,0.441c-0.189,2.699 -0.238,4.35 2.14,3.031c3.944,-2.187 4.872,-4.028 6.871,-0.744c-2.316,6.395 -2.377,6.322 -4.433,12.817c-4.617,16.397 -0.112,31.17 -0.3,31.384c-4.34,4.927 -5.273,3.938 -12.229,11.66c-16.154,17.934 3.832,28.044 9.176,33.433l-0.758,1.355c-0.923,6.866 5.229,5.719 5.254,5.717l1.016,0.041c-1.128,5.712 1.126,5.953 0.01,7.804c-3.716,6.16 5.367,17.05 16.528,9.161c0.344,-0.243 0.143,-0.405 3.887,-3.549c2.022,-1.698 2.431,0.613 5.802,3.266c7.913,6.227 9.961,5.504 9.015,8.404c-0.786,2.41 -0.585,5.496 -2.036,19.726l-1.069,-0.294c-5.46,-3.972 -8.079,-9.042 -7.834,-4.515c0.178,3.279 0.383,5.015 -2.733,3.914c-21.394,-7.556 -26.068,-30.791 -26.18,-30.884c-1.466,-1.223 -4.594,4.046 -4.924,7.521c-0.472,4.972 0.979,9.194 -1.097,8.482c-2.07,-0.71 -1.945,-0.836 -5.168,-2.59c0.199,-0.148 3.07,-2.281 1.357,-2.79c-1.286,-0.382 -1.536,0.264 -2.366,-0.738c-0.272,-0.328 -12.865,-9.93 -6.458,-24.06c0.389,-0.859 1.482,0.304 2.699,-0.966c2.98,-3.109 -0.243,-8.199 -0.62,-8.795c-0.889,-1.405 -3.9,-4.304 -3.401,0.755c-2.743,-2.129 -4.428,-1.896 -4.946,-2.955c-0.266,-0.545 -2.375,-1.78 -2.598,-1.911c-1.621,-0.95 -6.009,-7.988 -5.069,-13.973c0.088,-0.559 0.82,-5.223 2.754,-6.516c2.158,-1.443 3.688,7.803 6.116,2.191c2.303,-5.325 7.212,-8.401 6.259,-10.583c-2.273,-5.202 5.975,-8.535 3.748,-15.003c-2.432,-7.062 -4.629,-5.024 -5.771,-6.092c-9.83,-9.2 -7.058,-15.953 -4.3,-23.917c1.668,-4.817 11.01,-14.06 12.438,-15.092Z" style="fill:#2e2e2e;"/><path d="M192.974,46.075c7.107,-1.78 7.193,-2.201 14.353,-0.467c17.89,4.332 17.009,11.661 27.065,19.973c0.263,0.217 0.544,0.411 0.807,0.628c-0.387,0.23 -0.797,0.417 -1.184,0.646c-2.352,1.396 7.917,4.84 6.044,8.399c-2.325,4.417 -5.139,0.297 -8.681,-0.645c-1.804,-0.48 -1.587,1.512 -2.354,2.086c-0.97,0.725 -0.876,0.765 -1.66,1.665c0.014,3.2 -1.649,1.454 -2.894,0.294c-2.393,-2.066 -3.079,-0.929 -3.704,-0.758c-3.495,-1.736 -3.639,-0.967 -4.077,-0.803c-0.732,0.336 -1.464,0.671 -2.196,1.007c-4.926,-5.356 -3.781,-5.999 -5.061,-13.157c-0.74,-4.135 -3.835,-3.485 -3.277,-1.614c1.003,3.362 1.087,3.279 1.493,6.731c-4.158,1.555 -1.528,3.44 -3.414,7.487c-1.02,2.188 -1.55,2.088 -1.223,4.522c0.195,1.455 -0.814,1.054 -1.28,2.401c-0.105,0.304 -1.013,2.932 -1.713,3.642c-0.96,0.974 -1.51,0.995 -0.807,2.196c0.226,0.386 0.62,0.656 0.846,1.042c-0.805,0.822 -0.805,0.765 -4.762,4.134l-1.142,-0.576c3.636,-7.315 3.487,-12.652 3.518,-13.527c0.233,-6.696 1.675,-7.895 -0.778,-8.252c-1.594,-1.593 -1.514,0.157 -3.074,2.188c-3.308,4.306 -4.597,4.642 -5.213,5.291c-2.135,2.25 -3.018,-1.424 -3.038,-1.459c-2.842,-5.046 -9.878,3.563 -11.396,-0.69c-2.252,-6.311 -4.487,-1.93 -12.48,2.281c-7.077,3.729 -3.593,-3.579 -4.898,-5.05c-0.995,-1.122 -7.254,2.696 -7.62,3.045c-4.561,4.341 -4.082,-4.621 -4.218,-4.729c-1.307,-1.032 -4.712,2.748 -5.098,2.815c-3.426,0.596 0.879,-6.073 -2.236,-6.14c-2.344,-0.051 -1.059,3.028 -5.265,3.199c1.613,-3.838 9.078,-14.473 25.459,-21.156c22.03,-8.988 29.461,-4.671 30.104,-5.099c0.37,-0.246 0.487,-0.776 0.857,-1.022c2.17,0.382 2.161,0.345 4.192,-0.525Z" style="fill:#2c2c2c;"/><path d="M130.09,88.175c0.36,0.422 0.408,1.055 0.768,1.478c0.489,0.573 0.573,0.263 3.019,-0.067c0.502,-0.068 1.705,0.447 1.993,1.015c0.436,0.861 0.622,1.86 1.189,2.64c1.547,2.129 2.016,0.756 4.233,-0.737c5.818,-3.918 5.94,1.107 7.042,2.114c1.904,1.74 2.182,0.87 4.478,-0.225c5.103,-2.433 7.119,-0.695 8.919,-2.394l0.711,0.244l-0.121,0.053c-0.643,1.472 -0.602,1.486 -0.695,1.59c-0.388,0.436 -0.218,0.476 -0.335,7.715c-0.317,19.57 -12.45,25.049 -12.464,42.022c-0.014,16.689 22.41,24.136 8.191,42.676c-10.502,13.694 0.53,15.648 5.094,21.241c2.086,2.556 -1.022,10.365 -1.921,8.821c-0.136,-0.234 1.234,-1.01 -1.009,-7.405c-2.654,-7.567 -16.768,-4.27 -11.753,-19.559c5.346,-16.298 1.371,-18.588 -10.646,-29.867c-0.269,-0.282 -2.119,-2.223 -2.943,-3.888c-4.615,-9.33 -1.084,-14.544 0.456,-17.597c3.349,-7.29 5.907,-10.897 5.526,-11.602c-1.305,-2.416 -5.197,5.593 -8.055,10.478c-1.999,-3.284 -2.927,-1.443 -6.871,0.744c-2.378,1.319 -2.328,-0.333 -2.14,-3.031c0.304,-4.344 -5.914,-0.495 -6.048,-0.441c-1.943,0.784 -3.072,-4.408 -3.171,-4.861c6.155,-7.417 7.177,-6.747 10.818,-15.63c1.52,-3.709 0.948,-12.011 1.411,-20.302c0.292,-0.156 2.262,-1.203 2.628,-3.199c0.143,-0.778 -0.452,-1.58 1.696,-2.026Z" style="fill:#2f2f30;"/><path d="M183.835,313.949c6.975,1.134 26.263,0.022 34.082,0.894c0.202,0.023 0.756,0.084 2.362,-0.939c-1.104,11.943 -0.955,14.099 5.794,15.943c4.814,1.316 5.183,-1.443 7.368,0.037c1.036,0.701 5.227,3.538 15.176,3.79c16.387,0.415 18.74,-1.988 17.545,-11.631c1.207,-1.206 1.498,-1.808 2.618,-0.535c0.385,0.438 1.411,0.241 2.342,0.622c17.098,6.981 1.619,14.649 -18.038,17.826c-27.853,4.501 -51.358,3.381 -64.46,3.292c-34.726,-0.236 -65.159,-7.183 -67.449,-12.897c-3.163,-7.892 18.362,-11.987 18.666,-12.07c1.502,-0.408 1.613,-0.256 2.485,0.997c-2.292,5.404 -2.797,5.561 -1.032,11.129c1.157,3.65 16.927,10.496 31.813,-0.488c1.168,-0.862 2.541,0.194 4.303,-0.123c9.159,-1.649 6.832,-10.436 6.426,-15.848Z" style="fill:#98b2ba;"/><path d="M220.468,82.537c3.343,2.346 4.042,1.498 6.29,4.921c1.064,1.621 1.728,1 2.646,2.739c0.115,0.218 1.166,2.208 2.853,1.175c1.408,-0.861 1.143,-1.518 2.828,-1.443l0.738,-0.244c0.592,1.369 0.659,1.285 1.041,2.749c0.273,0.585 0.018,1.868 1.209,0.774c0.241,-0.221 0.686,-0.272 0.789,-0.582c0.119,-0.359 -0.347,-0.752 -0.228,-1.112c0.3,-0.144 0.144,-0.477 0.956,-0.459c1.595,0.035 1.214,-0.601 1.628,-2.133c1.101,-4.084 4.895,-1.973 5.284,-1.757c0.342,0.036 0.244,0.208 0.603,0.245c0.103,0.011 0.096,0.003 1.293,0.047c5.291,23.148 -9.92,24.124 -8.178,41.942c0.697,7.126 7.485,13.486 11.713,17.815c-0.119,0.069 -0.249,1.209 -1.808,1.043c-0.704,-0.075 -0.886,0.397 -0.937,0.42c0.265,0.179 0.117,0.974 1.783,1.208c1.002,0.141 0.855,-0.248 1.19,-0.345c0.333,0.129 0.631,0.338 0.964,0.466c1.045,0.404 1.47,-0.501 1.485,-0.499c0.068,0.007 5.326,7.331 5.389,7.647c0.629,3.134 0.124,4.835 0.005,5.237c-0.651,2.191 1.573,2.73 1.909,2.923c-4.873,11.658 -14.163,10.13 -8.655,20.236c2.179,3.998 9.486,8.149 8.659,8.745c-1.641,1.182 -6.409,-2.186 -8.061,-4.148c-0.058,0.144 0.348,0.22 0.29,0.364c-0.471,1.166 -0.563,1.53 -1.721,0.989c-4.691,-2.19 -10.085,-2.708 -17.413,-11.825c12.517,-15.612 1.854,-28.041 -0.327,-36.144c-7.039,-26.151 -1.364,-26.988 -0.034,-38.109c1.151,-9.633 -15.782,-20.789 -15.23,-21.836c0.231,-0.437 0.817,-0.612 1.048,-1.049Z" style="fill:#2e2e2e;"/><path d="M183.835,313.949c-2.529,-17.253 0.699,-18.726 -2.636,-20.444c-2.67,-1.375 -3.035,-1.433 -3.368,-5.14c-0.271,-3.015 1.99,-0.848 7.789,-0.888c3.419,-0.024 2.36,-3.215 2.962,-4.387c1.186,-2.309 2.699,5.188 11.203,2.661c13.329,-3.96 13.666,-7.932 15.092,-7.993c1.502,-0.064 0.516,0.742 0.278,2.201c-0.337,2.063 8.731,-0.689 9.451,-0.512c1.693,0.415 0.399,11.009 0.045,12.685c-0.461,2.183 -3.526,1.175 -3.7,5.244c-0.237,5.527 0.718,5.541 -0.671,16.528c-1.605,1.023 -2.159,0.961 -2.362,0.939c-7.819,-0.872 -27.106,0.24 -34.082,-0.894Z" style="fill:#b7d2d7;"/><path d="M299.586,116.686c0.364,0.478 0.765,0.132 0.996,1.307c0.501,2.547 0.886,2.605 -0.3,4.943c-2.394,-0.378 -3.209,-1.756 -3.815,0.366c-0.548,1.92 0.44,1.6 2.172,2.641c0.912,0.548 1.421,0.971 -2.211,13.117c-0.658,2.202 -2.819,1.187 -3.782,2.064c-2.496,2.273 0.021,2.381 3.157,3.476c1.854,0.647 0.137,1.49 0.928,4.926c2.105,0.564 2.19,-0.075 2.751,-2.198c0.046,-0.173 0.451,-1.704 1.659,-1.509c1.848,0.299 0.715,1.134 0.356,3.863c-0.209,1.591 1.608,2.206 2.448,1.26c1.667,-1.878 0.284,-3.961 3.948,-3.814c9.305,0.373 8.007,-7.595 6.586,-9.387c-2.176,-2.746 1.085,-2.629 1.585,-6.116c0.591,-0.75 1.183,-1.499 1.774,-2.249c2.387,-1.681 3.42,-3.785 4.281,-2.998c1.582,1.444 -0.828,4.881 -1.074,5.231c-0.206,0.293 -0.791,5.428 -0.522,6.07c0.056,0.133 1.117,2.096 1.614,-0.8c0.503,-2.933 0.7,-2.856 2.041,-4.513c0.913,4.253 0.077,4.185 -1.455,8.181c-0.097,0.253 -1.089,2.841 0.196,3.387c0.275,0.117 0.413,-0.691 0.687,-0.574c-1.167,2.223 -1.988,2.15 -1.247,3.876c1.375,3.201 2.394,-2.633 2.446,-2.934c0.602,-1.482 1.205,-2.964 1.807,-4.445c0.167,0.329 0.636,0.432 0.803,0.761c0.219,0.432 -0.696,2.726 -0.766,3.012c-0.842,3.479 0.396,3.237 1.091,3.949c-2.53,5.254 -7.403,8.289 -7.782,8.877c-0.163,0.252 0.21,0.646 0.048,0.898c-0.123,0.191 -0.509,-0.073 -0.677,0.08c-0.166,0.151 0.029,0.508 -0.137,0.659c-0.36,0.113 -2.241,0.703 -4.459,1.557c-3.725,1.814 -3.857,1.273 -12.856,1.786c-4.212,-1.613 -5.4,-0.752 -6.715,-1.434c-0.513,-0.266 -0.914,-0.776 -1.476,-0.908c-0.395,-0.093 -0.789,0.374 -1.183,0.281c-0.663,-1.457 -0.96,-2.498 -3.613,-2.818c-1.772,-2.118 -1.795,-2.021 -4.22,-3.358c0.568,-1.912 -0.097,-2.369 -2.271,-2.762c-0.023,-2.343 -0.482,-2.234 -2.906,-9.104c-1.837,-5.207 0.284,-16.286 4.983,-21.813c5.935,5.198 4.358,6.458 4.978,6.707c1.586,0.638 2.314,0.109 1.589,-1.432c-0.115,-0.245 -0.129,-0.274 1.89,-2.805c0.833,-1.045 2.016,0.512 1.874,-0.521c-0.095,-0.696 -0.519,-0.44 -0.646,-1.13c-0.091,-0.49 0.375,-0.337 0.29,-0.796c4.195,1.348 2.626,-2.377 3.864,-2.765c0.405,-0.127 0.865,0.035 1.27,-0.092Z" style="fill:#f5931c;"/><path d="M196.895,73.127c-2.096,6.849 -2.503,7.006 -10.61,17.16c-0.149,0.187 -0.324,0.406 -2.804,1.025c-0.322,0.115 -0.688,-0.302 -1.01,-0.187c-0.302,0.108 -0.342,0.557 -0.591,0.758c-2.166,1.747 -3.974,0.586 -4.262,0.401c-4.973,-3.195 -6.738,5.819 -14.587,-0.251c-0.457,-0.577 -0.189,-0.684 -0.657,-1.275c-0.645,-0.816 -0.187,0.36 -0.645,1.241c-1.8,1.7 -3.816,-0.039 -8.919,2.394c-2.296,1.095 -2.575,1.966 -4.478,0.225c-1.102,-1.007 -1.225,-6.031 -7.042,-2.114c-2.216,1.493 -2.686,2.866 -4.233,0.737c-0.567,-0.781 -0.754,-1.779 -1.189,-2.64c-0.287,-0.568 -1.491,-1.083 -1.993,-1.015c-2.446,0.33 -2.53,0.64 -3.019,0.067c-0.36,-0.422 -0.408,-1.055 -0.768,-1.478c-2.147,0.447 -1.553,1.248 -1.696,2.026c-0.366,1.996 -2.336,3.044 -2.628,3.199c0.027,-0.715 0.288,-7.519 0.845,-8.909c3.128,-7.801 5.092,-9.908 5.751,-10.614c4.206,-0.171 2.921,-3.25 5.265,-3.199c3.114,0.068 -1.19,6.736 2.236,6.14c0.386,-0.067 3.79,-3.847 5.098,-2.815c0.136,0.108 -0.343,9.07 4.218,4.729c0.366,-0.348 6.624,-4.167 7.62,-3.045c1.305,1.471 -2.18,8.779 4.898,5.05c7.993,-4.211 10.229,-8.593 12.48,-2.281c1.517,4.253 8.554,-4.356 11.396,0.69c0.02,0.035 0.902,3.71 3.038,1.459c0.616,-0.649 1.905,-0.985 5.213,-5.291c1.56,-2.031 1.48,-3.781 3.074,-2.188Z" style="fill:#4a4c4d;"/><path d="M284.671,153.198c2.425,1.338 2.449,1.24 4.22,3.358c1.459,3.477 1.2,3.518 1.121,7.316c-0.025,1.206 1.316,1.835 1.492,1.917c2.352,1.103 14.048,-3.885 17.871,-3.411c0.206,0.026 1.984,1.444 -1.566,2.068c-0.529,0.093 -5.168,0.907 -5.91,3.183c-1.006,3.088 3.18,-0.405 3.726,-0.83l0.936,0.839c-3.167,7.937 -2.361,8.507 -1.67,8.478c1.558,-0.066 0.97,-0.813 2.383,-4.692c3.323,-9.119 7.021,-3.485 6.718,-1.523c-0.881,5.698 -2.15,14.923 -18.932,19.225c-4.965,1.273 -7.94,-4.563 -8.419,-2.103c-0.303,1.556 3.183,3.503 4.284,4.367c0.286,0.225 1.456,6.144 -3.555,1.269c-4.503,-4.381 -8.647,-5.995 -9.294,-6.576c-3.167,-2.842 4.051,-2.619 3.378,-4.913c-2.428,-8.278 -2.096,-8.538 1.236,-16.417c2.73,-6.456 -3.535,-12.905 1.982,-11.556Z" style="fill:#efefef;"/><path d="M188.782,46.6c-0.37,0.246 -0.487,0.776 -0.857,1.022c-0.643,0.427 -8.074,-3.889 -30.104,5.099c-16.381,6.683 -23.846,17.318 -25.459,21.156c-0.659,0.706 -2.623,2.814 -5.751,10.614c-0.557,1.39 -0.818,8.194 -0.845,8.909c-0.463,8.291 0.109,16.593 -1.411,20.302c-3.641,8.883 -4.664,8.213 -10.818,15.63c-1.428,1.032 -10.769,10.276 -12.438,15.092c-2.759,7.964 -5.531,14.716 4.3,23.917c1.142,1.069 3.339,-0.969 5.771,6.092c2.227,6.468 -6.021,9.801 -3.748,15.003c0.953,2.181 -3.956,5.258 -6.259,10.583c-2.428,5.612 -3.958,-3.634 -6.116,-2.191c-1.934,1.293 -2.666,5.957 -2.754,6.516c-0.94,5.985 3.448,13.023 5.069,13.973c0.223,0.13 2.332,1.366 2.598,1.911c0.518,1.059 2.202,0.825 4.946,2.955c-0.085,1.236 -0.141,1.185 -0.494,2.335c-3.238,-1.326 -12.601,-7.645 -14.223,-15.842c-4.313,-21.789 29.112,-23.126 13.292,-40.169c-24.254,-26.128 16.362,-39.757 17.664,-58.131c0.418,-5.898 -5.093,-36.379 27.655,-57.119c1.116,-0.707 17.605,-10.317 30.081,-9.725c3.01,0.143 4.302,0.285 9.903,2.067Z" style="fill:#515152;"/><path d="M235.2,66.209c0.012,0.009 20.067,10.631 17.22,32.423c-1.878,14.379 -19.225,26.317 -2.034,43.881c10.343,10.568 13.436,11.657 11.526,22.801c-0.336,-0.193 -2.559,-0.731 -1.909,-2.923c0.119,-0.402 0.625,-2.103 -0.005,-5.237c-0.064,-0.317 -5.321,-7.64 -5.389,-7.647c-0.015,-0.002 -0.44,0.903 -1.485,0.499c-0.333,-0.129 -0.631,-0.338 -0.964,-0.466c0.248,-1.222 0.392,-1.238 -0.228,-2.326c-4.229,-4.329 -11.017,-10.688 -11.713,-17.815c-1.742,-17.818 13.469,-18.794 8.178,-41.942c-0.486,-1.012 -0.428,-1.109 -0.522,-1.089c-0.518,0.11 -0.856,0.686 -1.374,0.797c-0.389,-0.217 -4.183,-2.328 -5.284,1.757c-0.413,1.532 -0.032,2.168 -1.628,2.133c-0.812,-0.018 -0.656,0.315 -0.956,0.459c-0.118,0.114 -1.478,1.425 -1.478,1.425c-0.191,0.033 -0.099,-0.538 -0.291,-0.505c-0.381,-1.464 -0.449,-1.38 -1.041,-2.749c-0.246,0.081 -0.492,0.163 -0.738,0.244c-1.685,-0.075 -1.42,0.582 -2.828,1.443c-1.687,1.032 -2.738,-0.957 -2.853,-1.175c-0.918,-1.739 -1.582,-1.118 -2.646,-2.739c-2.248,-3.423 -2.947,-2.575 -6.29,-4.921c-0.512,-0.499 -1.024,-0.997 -1.537,-1.496c-1.608,-1.903 -2.778,-1.512 -2.242,-3.949c0.438,-0.164 0.581,-0.934 4.077,0.803c0.188,0.311 0.35,3.429 3.704,0.758c1.245,1.16 2.908,2.907 2.894,-0.294c0.783,-0.9 0.69,-0.94 1.66,-1.665c0.767,-0.573 0.55,-2.566 2.354,-2.086c3.542,0.942 6.356,5.062 8.681,0.645c1.873,-3.56 -8.396,-7.003 -6.044,-8.399c0.387,-0.23 0.797,-0.417 1.184,-0.646Z" style="fill:#4e4f51;"/><path d="M177.471,296.941c0.18,-0.145 2.822,-2.276 2.871,-0.308c0.208,8.302 0.095,8.249 1.209,16.542c0.904,6.73 -3.407,5.4 -9.904,10.018c-12.591,8.951 -28.492,5.06 -28.701,1.91c-0.012,-0.182 0.028,-0.167 0.378,-2.25c0.321,-0.891 1.854,-5.149 8.566,-8.17c3.988,-1.795 10.141,4.268 10.905,0.649c0.18,-0.185 -0.186,-0.589 -0.006,-0.774c0.111,-0.114 0.133,-0.064 1.796,-0.867c0.165,-0.045 1.682,-0.458 1.711,-1.286c0.018,-0.526 0.044,-1.243 -6.177,-2.256c0.312,-0.258 0.272,-0.805 0.584,-1.063c0.17,-0.141 4.027,-0.107 4.378,-0.104c3.936,1.769 3.105,-0.861 3.611,-1.75c0.119,-0.209 0.156,-0.159 2.112,-2.148c2.884,-2.927 -1.03,-4.161 0.852,-6.741c0.682,-0.935 1.127,0.096 5.815,-1.402Z" style="fill:#93653d;"/><path d="M237.13,307.766c-3.047,6.29 3.117,0.483 10.051,1.29c0,0 1.47,1.068 1.598,1.161c-1.757,0.68 -9.589,1.303 -8.25,2.824c4.538,5.154 5.924,2.65 7.275,2.185c6.968,2.506 7.848,1.802 13.443,6.463c1.311,1.092 1.307,3.199 1.574,4.052c-12.636,3.935 -25.215,-0.363 -38.241,-6.515c-3.717,-1.755 -2.202,-2.836 -1.776,-6.858c1.377,-13.011 -1.064,-17.037 2.528,-14.87c3.39,2.045 6.445,-1.297 7.783,2.85c0.239,0.74 -2.189,4.405 1.395,5.738c0.634,0.236 1.379,0.2 1.949,0.565c0.366,0.234 0.307,0.881 0.672,1.116Z" style="fill:#8d6039;"/><path d="M319.83,114.425c6.366,5.944 15.397,16.154 7.912,33.153c-0.695,-0.712 -1.933,-0.47 -1.091,-3.949c0.069,-0.286 0.985,-2.58 0.766,-3.012c-0.167,-0.329 -0.636,-0.432 -0.803,-0.761c0.078,-0.102 0.017,-0.111 0.689,-1.442c0.019,-0.034 0.885,-0.4 0.875,-1.544c-0.04,-4.485 0.564,-4.833 -1.499,-6.702c-0.068,-1.202 0.102,-1.223 -0.592,-2.279c-0.169,0.191 0.09,0.569 -0.079,0.76c-0.174,0.197 -0.55,0.041 -0.764,0.193c-1.058,0.749 -1.064,3.228 -1.064,3.523c-1.341,1.658 -1.538,1.58 -2.041,4.513c-0.497,2.896 -1.559,0.933 -1.614,0.8c-0.269,-0.641 0.316,-5.776 0.522,-6.07c0.245,-0.35 2.656,-3.787 1.074,-5.231c-0.862,-0.787 -1.895,1.318 -4.281,2.998c-0.591,0.75 -1.183,1.499 -1.774,2.249c-0.073,-0.514 -0.582,-4.095 -3.635,-5.371c-3.757,-1.57 1.027,-5.461 -2.299,-5.899c-2.271,-0.3 -1.417,0.952 -2.164,3.067c-0.512,1.449 -2.667,1.344 -2.256,-0.779c1.023,-5.278 -2.028,-3.168 -2.201,-2.931c-1.331,1.824 -0.278,3.464 -3.226,3.226c1.186,-2.338 0.802,-2.396 0.3,-4.943c-0.231,-1.175 -0.631,-0.829 -0.996,-1.307c-0.405,0.127 -0.865,-0.035 -1.27,0.092c-1.238,0.388 0.332,4.112 -3.864,2.765c-0.664,-0.277 -3.643,-2.952 -4.577,-3.034c-0.961,-0.085 -0.795,-0.38 -1.629,-0.779c0.125,-0.115 1.566,-1.441 1.566,-1.441c12.912,-6.751 18.727,-5.951 30.018,0.137Z" style="fill:#f4931c;"/><path d="M300.281,122.936c2.948,0.238 1.895,-1.401 3.226,-3.226c0.173,-0.237 3.224,-2.348 2.201,2.931c-0.411,2.123 1.744,2.228 2.256,0.779c0.747,-2.114 -0.107,-3.366 2.164,-3.067c3.326,0.439 -1.458,4.329 2.299,5.899c3.053,1.276 3.562,4.858 3.635,5.371c-0.501,3.487 -3.762,3.37 -1.585,6.116c1.421,1.792 2.719,9.76 -6.586,9.387c-3.664,-0.147 -2.28,1.936 -3.948,3.814c-0.84,0.947 -2.657,0.332 -2.448,-1.26c0.358,-2.73 1.492,-3.565 -0.356,-3.863c-1.208,-0.195 -1.613,1.335 -1.659,1.509c-0.561,2.123 -0.646,2.762 -2.751,2.198c-0.79,-3.436 0.926,-4.278 -0.928,-4.926c-3.136,-1.095 -5.653,-1.203 -3.157,-3.476c0.963,-0.877 3.124,0.138 3.782,-2.064c3.632,-12.146 3.123,-12.568 2.211,-13.117c-1.731,-1.041 -2.72,-0.721 -2.172,-2.641c0.606,-2.122 1.421,-0.744 3.815,-0.366Z" style="fill:#f9faf2;"/><path d="M178.163,264.429l0.727,-0.338c13.647,5.062 19.21,7.204 36.695,8.129c1.002,1.305 1.037,1.274 1.082,1.409c0.143,0.43 -14.466,10.544 -21.288,9.945c-3.515,-0.309 -2.741,-1.622 -5.118,-4.277c-4.239,-4.736 -3.919,3.763 -4.859,5.243c-0.549,0.864 -7.12,-0.454 -7.326,-0.638c-1.346,-1.194 -0.034,-17.921 0.087,-19.474Z" style="fill:#272827;"/><path d="M132.885,231.234c0.172,-0.187 2.621,-2.847 1.024,-3c-0.204,-0.02 -8.224,5.203 -8.329,0.892c-0.092,-3.766 6.298,-0.015 10.333,-11.366c0.117,-0.33 3.69,-3.417 3.047,3.146c-0.295,3.012 3.023,-0.63 3.188,-0.655c4.711,-0.718 16.129,9.334 11.577,17.364c-0.368,-0.31 -2.296,-3.923 -3.997,0.509c-0.064,0.166 -0.249,1.465 -0.226,1.5c0.275,0.419 0.904,0.514 1.179,0.932c-1.31,3.078 -1.319,3.102 -3.957,5.225c-1.273,-1.195 -1.098,-1.728 -2.349,-1.405c-1.919,0.496 -2.149,0.945 -3.484,-0.492c-1.724,-1.856 -1.732,-1.773 -3.501,-3.51c-2.109,-2.724 -2.323,-2.619 -3.119,-5.942c-0.417,-1.741 -0.69,-1.591 -1.386,-3.199Z" style="fill:#f6f7f4;"/><path d="M228.305,127.037c0.418,0.322 0.837,0.644 1.255,0.966c0.589,23.457 17.44,34.253 3.909,49.544c-12.668,-19.597 -6.551,-46.395 -5.165,-50.509Z" style="fill:#262525;"/><path d="M169.092,103.813c0.273,0.44 -0.059,0.635 0.903,1.455c2.378,2.026 2.684,1.292 5.203,0.284c20.095,-8.039 19.684,24.799 9.684,26.113c-7.625,1.001 -10.185,-17.763 -1.419,-21.65c5.48,-2.43 -3.693,-4.159 -7.625,-1.707c-8.047,5.018 -5.023,17.297 -4.924,18.085c-1.033,0.423 -1.197,1.646 -1.535,0.628c-2.283,-6.858 -1.435,-6.988 -0.337,-14.144c0.318,-2.073 -2.99,-3.331 -2.978,-4.491c0.022,-2.149 3.676,0.613 3.794,0.632c2.518,0.412 -0.89,-1.488 -2.253,-4.345c0.496,-0.286 0.992,-0.573 1.487,-0.859Z" style="fill:#1f1b18;"/><path d="M229.599,112.535c0.051,0.608 0.102,1.216 0.153,1.825c-0.28,-0.031 -3.423,-0.377 -2.606,2.377c0.052,0.175 0.119,0.12 1.601,1.622c-0.476,1.606 -0.595,1.505 -1.744,2.767c-0.181,0.199 -0.243,0.486 -0.294,0.75c-0.144,0.742 0.007,1.554 -0.288,2.25c-0.162,0.383 -0.827,0.378 -0.989,0.76c0.116,-1.494 1.443,-18.649 -9.88,-15.916c-5.128,1.238 5.464,2.113 4.783,12.171c-0.437,6.446 -1.69,7.079 -2.522,8.197c-0.42,0.254 -5.127,3.108 -5.261,3.15c-0.207,0.064 -0.412,-0.262 -0.619,-0.197c-10.24,-5.04 -2.477,-31.986 9.714,-25.456c1.733,0.928 1.737,0.848 3.723,0.891c2.074,0.044 -0.467,4.506 2.219,4.538c1.08,0.013 0.989,0.133 2.009,0.271Z" style="fill:#1d1b16;"/><path d="M175.128,295.149c-0.333,0.035 -3.315,0.734 -4.355,-0.193c-1.669,-1.489 -1.662,-1.429 -3.731,-2.378c-2.888,-1.325 -0.703,-25.982 -0.504,-28.232c0.369,-4.169 2.326,-2.088 6.293,-0.6c4.299,1.613 2.119,3.206 2.22,14.878c0.123,14.239 3.118,15.756 0.077,16.526Z" style="fill:#ceb287;"/><path d="M182.293,149.862c-1.625,-3.694 -1.268,-4.893 -2.642,-4.137c-0.117,0.064 -0.987,0.543 -1.639,0.309c-1.349,-0.483 1.872,-2.982 2.157,-3.307c2.418,-2.753 2.787,-0.233 6.364,1.334c10.82,4.739 19.368,3.47 19.88,4.203c0.67,0.958 -2.66,2.622 -2.811,2.842c-8.803,12.77 -19.413,2.453 -21.308,-1.244Z" style="fill:#311c18;"/><path d="M236.427,292.049c-0.567,0.561 -6.029,5.966 -9.323,3.541c-1.142,-0.841 1.268,-1.251 0.516,-17.714c-0.103,-2.263 -0.224,-3.509 7.495,-4.675c1.495,-0.226 2.721,0.54 1.312,18.849Z" style="fill:#d2b88f;"/><path d="M259.753,209.813c8.351,5.14 3.462,13.673 -0.492,10.797c-5.499,-4 -5.183,-4.475 -11.45,-7.135c-2.367,-1.005 -0.348,-5.232 0.962,-5.789c4.669,-1.983 10.498,1.894 10.98,2.127Z" style="fill:#f8edd4;"/><path d="M104.904,223.183c-0.499,-5.059 2.511,-2.16 3.401,-0.755c0.377,0.596 3.6,5.686 0.62,8.795c-1.217,1.27 -2.309,0.107 -2.699,0.966c-6.407,14.13 6.186,23.731 6.458,24.06c0.83,1.002 1.08,0.356 2.366,0.738c1.714,0.509 -1.158,2.642 -1.357,2.79c-1.148,-0.83 -10.773,-6.779 -11.811,-17.947c-0.917,-9.867 4.778,-11.558 2.527,-16.311c0.353,-1.15 0.409,-1.099 0.494,-2.335Z" style="fill:#474748;"/><path d="M271.163,201.331c-2.217,-2.215 0.521,-2.201 6.335,-10.139c0.384,-0.524 2.318,-3.164 7.57,2.936c0.684,0.795 1.397,1.623 -7.289,10.893c-1.328,1.418 -2.039,0.685 -6.617,-3.689Z" style="fill:#d1b48a;"/><path d="M225.433,124.885c-1.012,5.91 -1,5.833 -1.011,5.912c-0.282,-0.02 -2.687,-0.192 -3.534,-0.172c-1.858,0.044 -2.161,0.323 -3.073,-1.287c0.831,-1.118 2.085,-1.751 2.522,-8.197c0.682,-10.058 -9.911,-10.932 -4.783,-12.171c11.322,-2.734 9.995,14.421 9.88,15.916Z" style="fill:#e5ebe7;"/><path d="M183.482,91.312c0.096,0.198 -0.443,0.365 -0.346,0.563c0.178,0.366 0.76,0.388 0.975,0.733c0.045,0.073 -0.118,0.005 -0.697,0.81c-3.17,4.406 -19.617,10.654 -19.786,5.979c-0.133,-3.696 0.532,-3.861 -1.308,-7.101l0.121,-0.053l0.591,-0.21c7.849,6.07 9.615,-2.944 14.587,0.251c0.288,0.185 2.095,1.346 4.262,-0.401c0.249,-0.201 0.289,-0.651 0.591,-0.758c0.322,-0.115 0.688,0.302 1.01,0.187Z" style="fill:#2d2d2d;"/><path d="M222.376,320.629c2.18,1.143 2.123,1.223 2.319,1.309c32.824,14.369 39.52,3.139 39.487,6.423c-0.024,2.357 -7.371,2.787 -8.053,2.826c-15.721,0.918 -20.823,-2.794 -23.082,-3.95c-2.799,-1.432 -2.787,0.931 -4.748,0.621c-7.555,-1.196 -6.137,-5.014 -6.301,-6.349c0.126,-0.293 0.252,-0.586 0.378,-0.879Z" style="fill:#4e3829;"/><path d="M143.58,328.814c1.286,0.358 10.62,2.958 16.591,1.729c10.376,-2.136 19.19,-10.306 21.008,-10.217c0.849,0.042 0.863,0.242 0.709,1.047c-0.13,0.685 1.022,3.366 -3.182,5.651c-2.185,1.188 -3.063,-2.021 -7.273,1.226c-7.9,6.093 -20.356,6.656 -27.699,2.042c-0.051,-0.492 -0.103,-0.985 -0.154,-1.477Z" style="fill:#503a2b;"/><path d="M257.706,260.829c1.694,-0.207 1.616,-0.256 3.321,-0.284c-0.375,1.558 -2.706,11.24 -13.139,15.12c-0.183,0.068 -1.812,0.674 -2.317,-0.752c-0.182,-0.515 -0.356,-0.244 -0.79,-0.541c-0.228,-0.105 -0.456,-0.21 -0.684,-0.315l-2.838,2.462c-0.636,-0.72 -1.272,-1.44 -1.909,-2.161c0.243,-0.147 2.097,-1.264 2.978,-1.937c2.015,-1.539 2.893,-4.368 4.71,-2.752c1.157,2.45 1.489,3.642 3.583,1.939c9.251,-7.522 7.055,-10.033 7.085,-10.779Z" style="fill:#13191b;"/><path d="M134.562,193.786c0.112,0.356 0.629,0.483 0.741,0.839c0.056,0.18 -0.607,0.107 -0.137,2.354c1.582,7.56 2.31,7.348 3.645,14.919c0.163,0.926 0.456,1.372 0.525,1.476c0.829,1.263 -0.181,1.199 -0.242,1.602c-3.636,-0.919 -4.4,-1.681 -6.685,-11.359c-1.288,-5.456 -2.262,-6.344 2.153,-9.832Z" style="fill:#ceb389;"/><path d="M137.241,242.302c0.05,-0.642 0.099,-1.284 0.149,-1.927c1.769,1.738 1.777,1.655 3.501,3.51c1.335,1.437 1.565,0.988 3.484,0.492c1.251,-0.323 1.076,0.21 2.349,1.405c-12.651,12.108 -17.963,-3.01 -14.431,-3.481c2.151,-0.286 2.357,2.273 2.38,2.551c0.131,1.619 4.418,0.29 2.567,-2.551Z" style="fill:#c7c9c6;"/><path d="M312.632,163.321c14.336,-7.084 14.414,-0.486 13.879,0.488c-0.819,1.493 -9.386,5.869 -10.098,4.342c-0.982,-2.105 -0.296,-2.764 -2.533,-3.537c-0.972,-0.336 -1.2,-0.245 -1.249,-1.294Z" style="fill:#eaeded;"/><path d="M257.706,260.829c-0.03,0.746 2.166,3.256 -7.085,10.779c-2.094,1.703 -2.426,0.511 -3.583,-1.939c-0.738,-2.532 -1.483,-2.459 -1.517,-2.509c6.472,-2.185 6.273,-2.49 12.185,-6.331Z" style="fill:#272829;"/><path d="M183.912,148.563c1.203,-0.302 11.974,2.104 13.006,2.334c8.438,1.884 -4.538,7.629 -10.92,0.732c-0,-0 -1.919,-2.82 -2.086,-3.066Z" style="fill:#da718a;"/><path d="M127.94,200.144c0.342,0.181 0.298,-1.151 0.641,-0.97c0.478,0.253 0.584,5.387 3.471,12.11c2.798,6.514 -2.534,0.756 -2.683,0.594c-3.842,-4.15 -7.305,-4.904 -2.143,-11.142l0.714,-0.593Z" style="fill:#2d2e2e;"/><path d="M248.617,165.371c-3.938,-0.287 -5.253,-0.624 -4.169,-4.449c1.222,-4.313 -4.88,-13.178 -0.236,-10.668c0.042,0.022 4.117,5.898 4.569,9.856c0.221,1.942 0.054,1.916 -0.164,5.26Z" style="fill:#4a4a4a;"/><path d="M288.246,115.73c0.833,0.398 0.668,0.694 1.629,0.779c0.934,0.082 3.913,2.757 4.577,3.034c0.085,0.459 -0.381,0.306 -0.29,0.796c0.128,0.689 0.551,0.433 0.646,1.13c0.141,1.033 -1.041,-0.523 -1.874,0.521c-2.019,2.531 -2.005,2.56 -1.89,2.805c0.725,1.541 -0.003,2.07 -1.589,1.432c-0.62,-0.249 0.956,-1.509 -4.978,-6.707c1.256,-1.263 2.513,-2.526 3.769,-3.789Z" style="fill:#f79218;"/><path d="M288.397,104.014l0.75,-0.041c3.604,2.446 5.487,1.439 5.913,1.211c1.138,-0.609 1.175,-0.291 8.317,0.21c4.286,0.906 4.364,1.201 4.233,1.537c-0.425,1.092 -4.952,-0.12 -9.249,1.056c-5.481,1.5 -6.134,-1.003 -9.98,-0.551c-2.587,0.304 -1.535,-2.221 0.015,-3.422Z" style="fill:#bcd4dc;"/><path d="M207.649,70.059c-0.122,1.804 -0.864,12.806 -7.59,21.29c-0.226,-0.386 -0.62,-0.656 -0.846,-1.042c-0.703,-1.201 -0.153,-1.222 0.807,-2.196c0.7,-0.71 1.608,-3.338 1.713,-3.642c0.465,-1.348 1.475,-0.946 1.28,-2.401c-0.327,-2.434 0.204,-2.334 1.223,-4.522c1.886,-4.046 -0.745,-5.932 3.414,-7.487Z" style="fill:#464848;"/><path d="M306.393,154.202c1.546,-2.173 1.546,-2.112 1.562,-2.278c0.027,-0.273 -0.314,-0.631 -0.111,-0.815c0.404,-0.365 0.456,0.341 6.803,-0.095c0.478,-0.033 5.123,-0.352 5.928,0.863c2.063,3.114 -6.813,3.58 -7.476,3.615c-1.202,0.063 -1.068,-0.55 -2.232,-0.535c-1.663,0.02 -1.968,1.289 -3.006,-0.068c-0.519,-0.679 -0.562,-0.582 -1.468,-0.687Z" style="fill:#f89118;"/><path d="M200.629,253.101c0.555,0.092 9.807,1.628 4.991,4.961c-3.55,2.457 -14.958,-4.125 -7.312,-5.199c0.185,-0.026 0.172,0.018 2.321,0.239Z" style="fill:#ba8f5f;"/><path d="M253.223,173.753c-0.54,-1.499 -0.654,-1.498 -0.582,-1.616c0.988,-1.623 2.596,-1.6 0.701,-5.912c-0.39,-0.888 0.57,-1.457 0.513,-2.364c-0.329,-5.23 1.958,-3.896 2.192,-3.649c5.668,5.992 -0.259,11.068 -2.824,13.542Z" style="fill:#2e2e2e;"/><path d="M303.398,142.777c-1.617,-0.63 -2.197,-0.434 -2.004,-2.117c0.969,-8.443 7.796,-1.942 8.06,-0.807c0.946,4.074 -5.525,3.011 -6.056,2.924Z" style="fill:#f49319;"/><path d="M251.023,314.221c0.454,-0.132 0.908,-0.263 1.362,-0.395c14.44,5.661 11.882,11.055 10.435,11.914c-0.267,-0.854 -0.263,-2.961 -1.574,-4.052c-5.595,-4.661 -6.475,-3.957 -13.443,-6.463c0.534,-0.156 0.454,-0.238 0.959,-0.386c0.18,-0.053 0.167,-0.046 2.261,-0.618Z" style="fill:#a88163;"/><path d="M301.712,173.832l0.492,0.543c-0.135,0.211 0.507,0.442 0.372,0.653c-0.839,1.317 -11.295,-2.655 -14.61,4.842c-0.951,2.151 -2.594,0.491 -1.639,-1.671c2.302,-5.209 9.918,-6.439 15.385,-4.367Z" style="fill:#454445;"/><path d="M326.086,127.889c0.694,1.056 0.524,1.077 0.592,2.279c-0.869,4.272 -1.62,4.515 0.624,8.245c-0.672,1.332 -0.611,1.341 -0.689,1.442c-0.602,1.482 -1.205,2.964 -1.807,4.445c-0.4,-0.314 -0.8,-0.628 -1.2,-0.942c-0.275,-0.117 -0.413,0.691 -0.687,0.574c-1.285,-0.547 -0.293,-3.134 -0.196,-3.387c1.532,-3.997 2.368,-3.928 1.455,-8.181c0.001,-0.294 0.007,-2.773 1.064,-3.523c0.214,-0.152 0.59,0.004 0.764,-0.193c0.169,-0.191 -0.09,-0.569 0.079,-0.76Z" style="fill:#f79217;"/><path d="M166.85,299.901c-2.294,-0.07 -2.223,-0.088 -4.463,0.175c-2.14,0.251 -1.218,-4.932 0.285,-5.342c5.493,-1.498 9.583,4.862 4.178,5.167Z" style="fill:#875e41;"/><path d="M223.077,97.179c0.178,0.174 2.951,2.885 0.804,3.007c-3.139,0.178 -3.134,-3.723 -9.756,-0.812c-1.519,0.668 -2.199,-0.99 -1.242,-2.032c3.691,-4.021 9.493,-0.579 10.194,-0.163Z" style="fill:#292411;"/><path d="M217.814,129.338c0.912,1.61 1.215,1.331 3.073,1.287c0.847,-0.02 3.252,0.152 3.534,0.172c-0.188,0.777 -0.375,1.553 -0.563,2.33c-1.941,-0.194 -1.879,-0.162 -3.813,-0.244c-4.028,0.552 -4.009,0.514 -4.35,0.596c-2.492,0.597 -3.06,2.809 -4.247,0.502c0.162,-0.563 0.324,-1.127 0.486,-1.69c0.207,-0.064 0.412,0.262 0.619,0.197c0.134,-0.042 4.842,-2.896 5.261,-3.15Z" style="fill:#726c5b;"/><path d="M310.12,132.372c-2.164,2.602 -8.37,2.637 -5.763,-3.656c0.561,-1.354 6.563,-1.34 5.763,3.656Z" style="fill:#f5921c;"/><path d="M171.392,128.538c1.637,0.33 6.996,0.222 12.673,6.098c-2.036,1.912 -5.517,-4.09 -12.691,-3.738c-2.013,0.099 -3.194,1.229 -2.98,-0.77c0.112,-1.045 0.539,-0.646 2.998,-1.591Z" style="fill:#726554;"/><path d="M248.779,310.216c0.119,0.184 0.369,-0.625 0.489,-0.441c0.09,0.139 0.005,0.153 0.063,2.063c-0.413,0.064 -6.953,1.086 -4.749,2.173c1.012,0.499 3.042,-0.516 3.232,-0.556c1.689,-0.356 1.612,0.024 3.209,0.765c-2.093,0.573 -2.081,0.566 -2.261,0.618c-0.505,0.148 -0.425,0.23 -0.959,0.386c-1.351,0.465 -2.737,2.968 -7.275,-2.185c-1.339,-1.521 6.492,-2.144 8.25,-2.824Z" style="fill:#37220e;"/><path d="M218.64,272.65c6.911,-1.504 6.823,0.192 6.727,0.725c-0.407,2.262 -0.057,2.771 -2.246,3.363c-1.877,0.508 -5.512,2.723 -4.48,-4.088Z" style="fill:#262526;"/><path d="M191.623,159.478c1.819,0.158 8.658,0.254 5.735,2.633c-3.918,3.19 -12.852,-1.865 -8.695,-2.619c0.971,-0.176 1.989,0.163 2.959,-0.013Z" style="fill:#c2a379;"/><path d="M132.885,231.234c0.697,1.608 0.969,1.458 1.386,3.199c0.796,3.322 1.011,3.217 3.119,5.942c-0.05,0.642 -0.099,1.284 -0.149,1.927c-0.916,-0.666 -9.575,-5.282 -4.356,-11.067Z" style="fill:#bebebd;"/><path d="M235.261,299.301c-2.347,-5.043 4.55,-4.402 5.534,-3.881c0.478,0.253 4.254,6.232 -5.534,3.881Z" style="fill:#8f613c;"/><path d="M245.521,267.16c0.034,0.05 0.779,-0.023 1.517,2.509c-1.817,-1.615 -2.695,1.213 -4.71,2.752c-0.881,0.673 -2.735,1.79 -2.978,1.937c-0.032,-0.14 -0.343,-1.486 -0.434,-1.745c-1.337,-3.777 1.011,-3.072 6.606,-5.453Z" style="fill:#202426;"/><path d="M188.426,118.808c-3.462,7.207 -6.045,-3.483 -2.095,-4.574c2.819,-0.779 2.149,4.175 2.095,4.574Z" style="fill:#ebeceb;"/><path d="M210.638,118.879c0.961,-6.425 3.911,-2.342 4.241,-0.754c0.769,3.7 -3.503,5.8 -4.241,0.754Z" style="fill:#eaebe9;"/><path d="M240.383,301.746c0.135,0.019 5.932,0.217 0.813,2.519c-0.442,0.199 -3.748,1.685 -6.055,-0.159c-0.1,-0.08 -1.193,-0.954 -0.1,-1.602c1.293,-0.766 1.32,-0.44 5.342,-0.758Z" style="fill:#6a4b33;"/><path d="M292.504,159.374c0.395,0.093 0.789,-0.374 1.183,-0.281c0.562,0.133 0.963,0.642 1.476,0.908c1.315,0.682 2.503,-0.179 6.715,1.434c-7.427,1.618 -7.326,2.308 -8.16,2.103c-1.689,-0.415 -0.864,-1.114 -1.214,-4.164Z" style="fill:#bdd4d6;"/><path d="M154.246,312.367c1.759,-2.659 2.643,-1.586 10.339,1.324c-1.663,0.802 -1.685,0.752 -1.796,0.867c-0.18,0.185 0.186,0.589 0.006,0.774c-4.142,-2.066 -4.071,-2.12 -8.549,-2.964Z" style="fill:#674a37;"/><path d="M160.336,303.407c1.075,-0.964 1.039,-1.019 1.162,-1.041c6.983,-1.26 7.815,0.394 8.108,0.978c-0.645,0.578 -1.133,0.681 -1.244,0.704c-3.708,0.783 -3.718,-0.099 -7.544,0.1l-0.481,-0.742Z" style="fill:#5e4a34;"/><path d="M164.712,306.309c0.577,1.31 0.352,1.296 0.368,2.672c-0.35,-0.003 -4.208,-0.037 -4.378,0.104c-0.312,0.258 -0.272,0.805 -0.584,1.063c-1.638,-0.783 -2.05,-1.018 -1.229,-2.582c2.175,-0.249 2.099,-0.192 4.254,-0.178c1.464,0.009 1.433,-0.986 1.568,-1.079Z" style="fill:#382d1c;"/><path d="M312.348,106.208c0.607,-0.027 7.464,-0.333 7.272,2.172c-0.177,2.315 -3.831,-0.688 -6.491,-0.829c-0.964,-0.051 -0.764,-0.354 -0.78,-1.343Z" style="fill:#b1d6eb;"/><path d="M326.677,130.168c2.063,1.869 1.459,2.217 1.499,6.702c0.01,1.144 -0.856,1.51 -0.875,1.544c-2.244,-3.73 -1.494,-3.973 -0.624,-8.245Z" style="fill:#f2902b;"/><path d="M272.199,133.676c0.053,0.375 0.661,4.684 0.661,4.684c0.094,0.371 0.689,0.458 0.801,0.825c0.047,0.154 -0.809,0.667 -1.037,1.44c-2.264,7.647 -1.254,-1.436 -1.235,-1.596c0.327,-2.796 -0.627,-2.981 0.81,-5.352Z" style="fill:#b6d3e5;"/><path d="M153.725,237.616c-1.351,1.639 -1.357,1.535 -3.044,2.941c-0.275,-0.419 -0.904,-0.514 -1.179,-0.932c-0.023,-0.035 0.163,-1.334 0.226,-1.5c1.701,-4.431 3.629,-0.819 3.997,-0.509Z" style="fill:#cecfca;"/><path d="M249.331,311.838c1.764,0.662 1.959,0.365 3.055,1.988c-0.454,0.132 -0.908,0.263 -1.362,0.395c-1.597,-0.741 -1.52,-1.121 -3.209,-0.765c-0.19,0.04 -2.221,1.055 -3.232,0.556c-2.204,-1.087 4.336,-2.109 4.749,-2.173Z" style="fill:#5e4d3e;"/><path d="M320.591,124.229c-2.062,2.627 -2.21,2.663 -2.873,2.426c-1.246,-0.447 -2.443,-7.067 2.873,-2.426Z" style="fill:#f2941f;"/><path d="M158.645,305.804c3.08,-0.12 3.047,-0.333 6.067,0.505c-0.136,0.093 -0.104,1.088 -1.568,1.079c-2.155,-0.014 -2.079,-0.071 -4.254,0.178c-1.021,-0.519 -0.788,-0.766 -0.244,-1.762Z" style="fill:#715139;"/><path d="M292.864,103.29c-0.694,0.145 -0.637,-0.007 -1.378,0.148c-0.188,0.039 -0.173,0.04 -2.339,0.535l-0.75,0.041c-2.498,-1.552 -0.885,-2.083 -0.711,-2.123c2.843,-0.648 3.074,-0.694 5.179,1.4Z" style="fill:#c2d0db;"/><path d="M241.155,306.531c3.159,-0.721 3.358,-1.383 4.121,-0.499c0.226,0.262 -0.27,0.688 -0.178,1.021c0.048,0.174 0.745,0.485 -0.217,0.76c-1.647,0.472 -1.678,-0.08 -3.328,0.519c-0.159,0.058 -1.68,0.61 -2.079,-0.408c-0.107,-0.274 0.466,-0.532 0.359,-0.805c0.722,-0.176 0.725,-0.083 1.321,-0.588Z" style="fill:#4f3c2d;"/><path d="M216.69,77.093c-0.536,2.437 0.634,2.045 2.242,3.949c-0.516,0.289 -0.541,1.136 -1.057,1.425c-0.55,0.308 -3.152,-3.989 -3.381,-4.367c0.732,-0.336 1.464,-0.671 2.196,-1.007Z" style="fill:#2c2d2b;"/><path d="M323.134,114.31c1.152,-0.535 1.135,-0.585 1.244,-0.577c1.016,0.068 2.941,2.771 2.983,2.889c0.414,1.166 -1.534,2.195 -2.342,0.031c-0.084,-0.225 -0.236,-0.633 -1.886,-2.343Z" style="fill:#cbcec9;"/><path d="M323.606,143.36c0.4,0.314 0.8,0.628 1.2,0.942c-0.053,0.301 -1.071,6.135 -2.446,2.934c-0.742,-1.726 0.08,-1.653 1.247,-3.876Z" style="fill:#fe8e10;"/><path d="M229.752,114.359c-0.275,1.165 -0.36,1.088 -0.637,2.263c-0.033,0.138 -0.027,0.129 -0.368,1.736c-1.483,-1.502 -1.549,-1.447 -1.601,-1.622c-0.817,-2.754 2.325,-2.408 2.606,-2.377Z" style="fill:#707169;"/><path d="M295.861,132.396c-0.076,-0.068 -0.757,0.244 -0.829,-0.739c-0.009,-0.12 -0.03,-0.407 -0.001,-1.51c0.062,-2.412 -0.341,-3.943 1.82,-2.913c0.219,0.104 -0.892,4.753 -0.99,5.162Z" style="fill:#ea9529;"/><path d="M309.241,116.555c1.139,-0.781 1.423,-1.007 2.245,0.167c1.36,1.941 -0.932,2.404 -1.563,2.153c-1.294,-0.515 -0.744,-0.915 -0.682,-2.32Z" style="fill:#fe8d09;"/><path d="M293.627,153.374c-0.084,1.263 0.693,2.232 -0.554,1.834c-2.239,-0.715 -2.414,-2.3 -2.446,-2.583c-0.25,-2.263 0.984,-0.321 2.999,0.749Z" style="fill:#f29612;"/><path d="M319.195,145.021l0.379,0.41c0.314,0.392 0.628,0.785 0.941,1.177c-0.234,0.089 0.279,0.659 0.045,0.748c-1.202,0.458 -7.456,-1.725 -1.365,-2.336Z" style="fill:#f7940b;"/><path d="M220.767,77.895c0.625,-0.17 1.31,-1.308 3.704,0.758c-3.354,2.67 -3.516,-0.447 -3.704,-0.758Z" style="fill:#41423b;"/><path d="M214.428,126.914c-0.258,-1.263 -0.859,-1.694 0.42,-2.095c1.118,-0.351 1.734,0.55 1.773,0.689c0.831,2.995 -2.008,1.503 -2.193,1.406Z" style="fill:#d2cfcc;"/><path d="M328.747,155.936c2.084,-0.627 3.005,-1.023 3.035,1.188c0.044,3.304 -2.18,-0.54 -3.035,-1.188Z" style="fill:#b8d4ee;"/><path d="M251.933,147.214c0.62,1.088 0.476,1.104 0.228,2.326c-0.335,0.097 -0.188,0.486 -1.19,0.345c-1.666,-0.235 -1.519,-1.029 -1.783,-1.208c0.051,-0.023 0.234,-0.496 0.937,-0.42c1.559,0.166 1.689,-0.974 1.808,-1.043Z" style="fill:#3c3c3b;"/><path d="M318.58,117.996c-0.458,1.543 -0.033,2.143 -1.61,2.225c-0.535,0.028 -2.476,-3.976 1.61,-2.225Z" style="fill:#f29129;"/><path d="M153.446,316.318c0.468,0.128 0.937,0.255 1.405,0.383c0.1,0.057 4.826,2.795 0.023,1.444c-1.319,-0.371 -1.463,-0.106 -2.273,-1.302c0.281,-0.175 0.563,-0.35 0.844,-0.525Z" style="fill:#a2703c;"/><path d="M308.587,114.469c-0.206,0.146 -5.15,3.643 -3.146,-0.166c0.059,-0.112 0.108,-1.547 3.146,0.166Z" style="fill:#fe8d0d;"/><path d="M182.804,124.113c-2.317,3.196 -2.27,-0.999 -1.561,-1.14c0.922,-0.183 0.753,0.201 1.561,1.14Z" style="fill:#bcb9ba;"/><path d="M301.457,155.671c1.026,-0.219 0.982,-0.32 1.982,-0.124c2.702,0.53 -1.588,2.762 -2.208,0.772c-0.068,-0.218 0.294,-0.429 0.226,-0.648Z" style="fill:#f99506;"/><path d="M274.121,148.876l0.097,0.736c-0.278,0.15 -0.251,0.121 -1.463,0.575c-0.64,-0.619 -0.926,-0.638 -0.412,-1.442c1.261,-1.971 1.689,0.023 1.778,0.131Z" style="fill:#c3d0cb;"/><path d="M316.82,101.851c0.249,-0.013 3.663,-0.195 2.944,1.035c-0.998,1.706 -1.225,-0.028 -2.944,-1.035Z" style="fill:#b1dad8;"/><path d="M145.843,130.855c1.862,2.912 -0.513,2.357 -0.631,2.216c-0.118,-0.141 -0.278,-0.331 0.631,-2.216Z" style="fill:#282826;"/><path d="M263.333,248.363c7.668,-9.739 8.053,-8.484 0.408,1.23l-0.408,-1.23Z" style="fill:#d3b183;"/><path d="M328.184,155.473c-0.327,0.184 -0.286,0.759 -0.612,0.943c-1.669,0.939 -1.433,-1.65 -0.198,-1.551c0.081,0.006 -0,0 0.81,0.608Z" style="fill:#b3dbcd;"/><path d="M158.957,194.81c-0.073,0.148 -1.288,2.619 -1.832,0.937c-0.255,-0.788 0.314,-1.079 0.399,-1.123c0.686,-0.351 0.712,0.554 1.433,0.185Z" style="fill:#cead80;"/><path d="M228.305,127.037c0.09,-0.088 1.798,-1.773 1.571,0.088c-0.038,0.309 -0.278,0.569 -0.316,0.878c-0.418,-0.322 -0.837,-0.644 -1.255,-0.966Z" style="fill:#171518;"/><path d="M238.633,91.513c-0.119,0.359 0.347,0.752 0.228,1.112c-0.103,0.31 -0.548,0.361 -0.789,0.582c-1.191,1.094 -0.936,-0.189 -1.209,-0.774c0.191,-0.033 0.099,0.538 0.291,0.505c0,-0 1.36,-1.311 1.478,-1.425Z" style="fill:#3b3b3b;"/><path d="M274.218,149.612c-0.12,0.214 0.378,0.476 0.258,0.69c-0.497,0.884 -1.006,0.85 -1.118,0.843c-0.671,-0.045 0.103,-0.911 -0.603,-0.958c1.213,-0.454 1.186,-0.424 1.463,-0.575Z" style="fill:#bbd2d7;"/><path d="M127.588,219.385c-0.416,2.022 -1.01,1.559 -1.114,1.456c-0.878,-0.874 0.034,-0.828 1.114,-1.456Z" style="fill:#d2b289;"/><path d="M161.73,91.999c0.458,-0.881 -0.001,-2.057 0.645,-1.241c0.467,0.591 0.2,0.698 0.657,1.275l-0.591,0.21l-0.711,-0.244Z" style="fill:#363739;"/><path d="M194.156,94.906l1.142,0.576c-0.945,0.605 -1.004,1.986 -1.395,0.893c-0.275,-0.768 0.528,-0.703 0.253,-1.47Z" style="fill:#1a1b1e;"/><path d="M246.501,87.165c0.518,-0.11 0.856,-0.686 1.374,-0.797c0.094,-0.02 0.037,0.077 0.522,1.089c-1.197,-0.043 -1.19,-0.036 -1.293,-0.047c-0.36,-0.038 -0.262,-0.21 -0.603,-0.245Z" style="fill:#3f4341;"/><path d="M143.206,180.461c-0.024,2.607 -1.489,0.77 -1.389,0.664c0.352,-0.374 1.038,-0.29 1.389,-0.664Z" style="fill:#d2ab83;"/><path d="M305.625,166.8c0.811,-0.379 1.381,-0.79 1.191,0.135c-0.05,0.244 -0.205,0.46 -0.255,0.704l-0.936,-0.839Z" style="fill:#9b9a9f;"/><path d="M184.572,134.853l1.124,-0.068c-0.223,1.01 -0.152,1.078 -0.241,1.09c0,0 -0.813,-0.94 -0.884,-1.022Z" style="fill:#e4d1b8;"/><path d="M227.19,301.111c0.319,-1.215 -0.441,-2.566 0.435,-1.655c0,0 -0.4,1.522 -0.435,1.655Z" style="fill:#966b31;"/><path d="M241.155,306.531c-0.596,0.505 -0.599,0.412 -1.321,0.588c0.44,-0.196 0.881,-0.392 1.321,-0.588Z" style="fill:#37281e;"/><path d="M143.58,328.814c0.051,0.492 0.103,0.985 0.154,1.477c-0.75,-1.209 -0.88,-1.202 -0.808,-1.301c0.134,-0.182 0.52,0.006 0.654,-0.176Z" style="fill:#34302a;"/></g></svg>